<?xml version="1.0" encoding="utf-8"?>
<!-- Generator: Adobe Illustrator 25.2.0, SVG Export Plug-In . SVG Version: 6.00 Build 0)  -->
<svg version="1.1" id="Aspose.HTML" xmlns="http://www.w3.org/2000/svg" xmlns:xlink="http://www.w3.org/1999/xlink" x="0px"
	 y="0px" viewBox="0 0 277 277" style="enable-background:new 0 0 277 277;" xml:space="preserve">
<style type="text/css">
	.st0{fill-rule:evenodd;clip-rule:evenodd;fill:#FFFFFF;}
	.st1{fill-rule:evenodd;clip-rule:evenodd;fill:#22BAE6;}
	.st2{fill:#22BAE6;}
	.st3{fill:#FFFFFF;}
</style>
<g id="_x2E_NET">
	<path id="XMLID_8_" class="st0" d="M180.5,87.5c-25.8,0-47.7,9.1-65.7,27.2c-18.1,18-27.2,39.9-27.2,65.7s9.1,47.7,27.2,65.6
		c6.7,6.8,13.9,12.3,21.6,16.6H23.6c-1.8-0.1-3.5-0.6-5.2-1.5c-2.8-1.4-4.2-4-4.2-7.9V23.6c0.2-2,0.7-3.8,1.4-5.2
		c1.5-2.8,4.2-4.2,8.1-4.2h229.5l1.5,0.3c1.4,0.2,2.5,0.6,3.6,1c2.9,1.4,4.4,4,4.4,8.1v112.9c-4.3-7.8-9.8-15.1-16.6-21.8
		C227.7,96.6,205.9,87.5,180.5,87.5z"/>
	<g>
		<path id="XMLID_2_" class="st1" d="M180.5,87.5c25.4,0,47.3,9.1,65.5,27.2c6.8,6.7,12.3,14,16.5,21.8V23.6c0-4.1-1.5-6.8-4.4-8.1
			c-1-0.4-2.2-0.8-3.6-1l-1.5-0.3H23.6c-3.9,0-6.6,1.4-8.1,4.2c-0.7,1.5-1.1,3.2-1.4,5.2v229.4c0,3.9,1.4,6.6,4.2,7.9
			c1.7,0.9,3.4,1.4,5.2,1.5h112.8c-7.8-4.3-15-9.8-21.6-16.6c-18.1-17.9-27.2-39.8-27.2-65.6s9.1-47.7,27.2-65.7
			C132.8,96.6,154.7,87.5,180.5,87.5z M259.1,3.7c2.5,0.5,4.4,1.1,5.7,1.9c5.6,2.7,8.4,7.6,8.4,14.7v160.2
			c0,25.7-9.1,47.5-27.4,65.6c-18.2,18.2-40.1,27.4-65.5,27.4H20.2c-2.7,0-5.5-0.7-8.4-2c-5.6-2.9-8.4-7.9-8.4-14.9V20.2
			c0-2.8,0.7-5.6,2.2-8.4c2.7-5.6,7.6-8.4,14.7-8.4h236.2L259.1,3.7z"/>
		<g>
			<path class="st2" d="M79.4,96.3h-9.6V69.9h-27v26.4h-9.6V37.7h9.6v23.9h27V37.7h9.6L79.4,96.3C79.4,96.3,79.4,96.3,79.4,96.3z"/>
		</g>
	</g>
	<g id="shape">
		<path class="st3" d="M108.9,180.2l47.3-24.4v7l-39.9,20v0.2l39.9,20v7l-47.3-24.4V180.2z"/>
		<path class="st3" d="M162.9,214.2l28.5-74h6.9l-28.6,74H162.9z"/>
		<path class="st3" d="M252,185.8l-47.3,24.3v-7l40.2-20v-0.2l-40.2-20v-7l47.3,24.3V185.8z"/>
	</g>
</g>
</svg>
