<?xml version="1.0" encoding="utf-8"?>
<!-- Generator: Adobe Illustrator 25.2.0, SVG Export Plug-In . SVG Version: 6.00 Build 0)  -->
<svg version="1.1" id="Layer_1" xmlns="http://www.w3.org/2000/svg" xmlns:xlink="http://www.w3.org/1999/xlink" x="0px" y="0px"
	 viewBox="0 0 335 283" style="enable-background:new 0 0 335 283;" xml:space="preserve">
<style type="text/css">
	.st0{fill:#EEEDEE;}
	.st1{fill:none;stroke:#EEEDEE;stroke-width:3;stroke-linecap:round;stroke-linejoin:round;}
	.st2{fill:none;stroke:#EEEDEE;stroke-width:3;stroke-linecap:round;stroke-linejoin:round;stroke-dasharray:6.5303,8.7071;}
	.st3{fill:none;stroke:#EEEDEE;stroke-width:3;stroke-linecap:round;stroke-linejoin:round;stroke-dasharray:5.6936,7.5915;}
	.st4{fill:#1FBAE5;}
	.st5{fill:url(#SVGID_1_);}
	.st6{fill:url(#SVGID_2_);}
	.st7{fill:url(#SVGID_3_);}
	.st8{fill:url(#SVGID_4_);}
	.st9{opacity:0.6;}
	.st10{opacity:0.38;fill:url(#SVGID_5_);enable-background:new    ;}
	.st11{opacity:0.38;fill:url(#SVGID_6_);enable-background:new    ;}
	.st12{opacity:0.38;fill:url(#SVGID_7_);enable-background:new    ;}
	.st13{opacity:0.38;fill:url(#SVGID_8_);enable-background:new    ;}
	.st14{fill:#FFFFFF;}
	.st15{fill:#3F99D4;}
</style>
<g id="Aspose.Words">
	<polygon class="st0" points="186.6,265.4 73.6,257.4 73.6,110.9 186.6,110.9 	"/>
	<polygon class="st0" points="192.6,265.4 261.2,257.4 261.2,110.9 192.6,110.9 	"/>
	<g id="lines_1_">
		<g>
			<g>
				<line class="st1" x1="212.8" y1="50.3" x2="209.8" y2="50.3"/>
				<line class="st2" x1="201.1" y1="50.3" x2="174.9" y2="50.3"/>
				<polyline class="st1" points="170.6,50.3 167.6,50.3 167.6,53.3 				"/>
				<line class="st3" x1="167.6" y1="60.9" x2="167.6" y2="96.9"/>
				<line class="st1" x1="167.6" y1="100.7" x2="167.6" y2="103.7"/>
			</g>
		</g>
	</g>
	<g id="circles_2_">
		<circle class="st4" cx="227.8" cy="51.2" r="33.6"/>
		<g>
			<g>
				
					<radialGradient id="SVGID_1_" cx="-351.286" cy="78.5355" r="11.8194" gradientTransform="matrix(0 1 1 0 161.6934 403.6226)" gradientUnits="userSpaceOnUse">
					<stop  offset="0.1429" style="stop-color:#DFF1FC"/>
					<stop  offset="0.8424" style="stop-color:#3E8CC7"/>
					<stop  offset="1" style="stop-color:#3698CE"/>
				</radialGradient>
				<path class="st5" d="M251.7,53.5c0.1-0.7,0.7-9.2-6.7-13.1c-3.4-1.8-8-1.8-10.6,0.8c-4.5,4.5-0.7,9.3,0.7,9.7c0.1,0,0,0,0-0.1
					c-2.2-9,13.4-10.6,16.1,2.6C251.4,53.9,251.6,53.9,251.7,53.5z"/>
				
					<radialGradient id="SVGID_2_" cx="240.6376" cy="229.3306" r="8.5833" gradientTransform="matrix(1 0 0 -1 0 284)" gradientUnits="userSpaceOnUse">
					<stop  offset="0.1429" style="stop-color:#FFE787"/>
					<stop  offset="0.5636" style="stop-color:#F39A1F"/>
					<stop  offset="0.6403" style="stop-color:#F18E1E"/>
					<stop  offset="0.8718" style="stop-color:#EC6E1B"/>
					<stop  offset="1" style="stop-color:#EA621A"/>
				</radialGradient>
				<path class="st6" d="M233.6,64.3c0.7,0.1,9.2,0.6,13.1-6.7c1.8-3.4,1.8-8-0.8-10.6c-4.5-4.5-9.3-0.7-9.7,0.7c0,0,0,0,0.1,0
					c9-2.2,10.6,13.4-2.6,16.1C233.2,64.1,233.2,64.3,233.6,64.3z"/>
				
					<radialGradient id="SVGID_3_" cx="398.2674" cy="-353.8434" r="11.8203" gradientTransform="matrix(0 -1 -1 0 -119.623 445.6934)" gradientUnits="userSpaceOnUse">
					<stop  offset="0" style="stop-color:#F8B100"/>
					<stop  offset="0.2319" style="stop-color:#F8B402"/>
					<stop  offset="0.4027" style="stop-color:#F7BD09"/>
					<stop  offset="0.5533" style="stop-color:#F6CD14"/>
					<stop  offset="0.6727" style="stop-color:#F4E021"/>
					<stop  offset="0.7561" style="stop-color:#EAD61C"/>
					<stop  offset="0.897" style="stop-color:#D1BC0D"/>
					<stop  offset="1" style="stop-color:#BAA400"/>
				</radialGradient>
				<path class="st7" d="M222.8,46.3c-0.1,0.7-0.7,9.2,6.7,13.1c3.4,1.8,8,1.8,10.6-0.8c4.5-4.5,0.7-9.3-0.7-9.7c-0.1,0,0,0,0,0.1
					c2.2,9-13.4,10.6-16.1-2.6C223,45.9,222.8,45.9,222.8,46.3z"/>
				
					<radialGradient id="SVGID_4_" cx="239.6805" cy="237.1223" r="11.8203" gradientTransform="matrix(1 0 0 -1 0 283.9995)" gradientUnits="userSpaceOnUse">
					<stop  offset="0" style="stop-color:#A8C115"/>
					<stop  offset="0.4545" style="stop-color:#A8C711"/>
					<stop  offset="1" style="stop-color:#43902A"/>
				</radialGradient>
				<path class="st8" d="M240.8,35.4c-0.7-0.1-9.2-0.6-13.1,6.7c-1.8,3.4-1.8,8,0.8,10.6c4.5,4.5,9.3,0.7,9.7-0.7c0,0,0,0-0.1,0
					c-9,2.2-10.6-13.4,2.6-16.1C241.2,35.7,241.2,35.5,240.8,35.4z"/>
				<g class="st9">
					
						<radialGradient id="SVGID_5_" cx="220.8028" cy="270.1865" r="13.6575" gradientTransform="matrix(1.0987 0 0 -1.6216 -5.3097 499.2981)" gradientUnits="userSpaceOnUse">
						<stop  offset="0" style="stop-color:#FCE886"/>
						<stop  offset="1" style="stop-color:#FFFFFF"/>
					</radialGradient>
					<path class="st10" d="M237.2,41.4c-1.2,0-2.4,0.2-3.5,0.7c-3.3,4.3,0.1,8.5,1.5,8.9c0.1,0,0,0,0-0.1c-1.4-5.5,3.9-8.2,8.9-6.5
						C242.4,42.5,240,41.4,237.2,41.4z"/>
					
						<radialGradient id="SVGID_6_" cx="220.8035" cy="270.1854" r="13.6575" gradientTransform="matrix(1.0987 0 0 -1.6216 -5.3097 499.2981)" gradientUnits="userSpaceOnUse">
						<stop  offset="0" style="stop-color:#FCE886"/>
						<stop  offset="1" style="stop-color:#FFFFFF"/>
					</radialGradient>
					<path class="st11" d="M236.2,47.8C236.2,47.9,236.2,47.9,236.2,47.8c5.5-1.3,8.2,3.8,6.6,8.7c2.1-1.6,3.4-4,3.4-6.7
						c0-1.1-0.2-2.1-0.6-3C241.2,42.8,236.6,46.4,236.2,47.8z"/>
					
						<radialGradient id="SVGID_7_" cx="220.8037" cy="270.1862" r="13.6578" gradientTransform="matrix(1.0987 0 0 -1.6216 -5.3097 499.2981)" gradientUnits="userSpaceOnUse">
						<stop  offset="0" style="stop-color:#FCE886"/>
						<stop  offset="1" style="stop-color:#FFFFFF"/>
					</radialGradient>
					<path class="st12" d="M239.3,48.8C239.2,48.8,239.2,48.8,239.3,48.8c1.4,5.6-4,8.3-8.9,6.6c1.7,1.8,4.1,3,6.9,3
						c1.2,0,2.4-0.2,3.5-0.7C244,53.5,240.6,49.3,239.3,48.8z"/>
					
						<radialGradient id="SVGID_8_" cx="220.8029" cy="270.1863" r="13.6569" gradientTransform="matrix(1.0987 0 0 -1.6216 -5.3097 499.2981)" gradientUnits="userSpaceOnUse">
						<stop  offset="0" style="stop-color:#FCE886"/>
						<stop  offset="1" style="stop-color:#FFFFFF"/>
					</radialGradient>
					<path class="st13" d="M238.3,51.9L238.3,51.9c-5.5,1.3-8.2-3.8-6.6-8.7c-2.1,1.6-3.4,4-3.4,6.7c0,1.1,0.2,2.1,0.6,3
						C233.2,57,237.8,53.3,238.3,51.9z"/>
				</g>
			</g>
			<path class="st14" d="M231.1,64.4h-16c-4.6,0-8.3-3.7-8.3-8.3c0-2.4,1.1-4.7,2.9-6.3c-0.1-0.6-0.2-1.2-0.2-1.8
				c0-4.6,3.8-8.4,8.4-8.4c0.9,0,1.7,0.1,2.6,0.4c2-3,5.4-4.8,9-4.8c0.5,0,1,0.4,1,1s-0.4,1-1,1c-3.2,0-6.2,1.7-7.7,4.6l-0.4,0.8
				l-0.8-0.4c-0.8-0.4-1.7-0.6-2.6-0.6c-3.5,0-6.4,2.9-6.4,6.4c0,0.7,0.1,1.3,0.3,1.9l0.2,0.7l-0.6,0.4c-1.6,1.2-2.6,3.1-2.6,5.1
				c0,3.5,2.8,6.3,6.3,6.3h16c0.5,0,1,0.4,1,1S231.6,64.4,231.1,64.4z"/>
		</g>
	</g>
</g>
<g>
	<g>
		<path class="st15" d="M156.9,223.4h-17.4v-26.2h-20.2v26.2h-17.4v-64.2h17.4V183h20.2v-23.8h17.4
			C156.9,159.2,156.9,223.4,156.9,223.4z"/>
	</g>
	<g id="HTML">
		<g>
			<polygon class="st15" points="214.5,205 198.2,192.5 214.4,178.4 218.3,182.9 207.7,192.2 218.2,200.2 			"/>
		</g>
		<g>
			<polygon class="st15" points="239.1,205 235.5,200.2 246,192.2 235.3,182.9 239.3,178.4 255.4,192.5 			"/>
		</g>
		<g>
			
				<rect x="207.1" y="189.1" transform="matrix(0.3574 -0.9339 0.9339 0.3574 -33.1077 335.111)" class="st15" width="39.8" height="5"/>
		</g>
	</g>
</g>
</svg>
