<?xml version="1.0" encoding="utf-8"?>
<!-- Generator: Adobe Illustrator 25.2.0, SVG Export Plug-In . SVG Version: 6.00 Build 0)  -->
<svg version="1.1" id="Layer_1" xmlns="http://www.w3.org/2000/svg" xmlns:xlink="http://www.w3.org/1999/xlink" x="0px" y="0px"
	 viewBox="0 0 320 320" style="enable-background:new 0 0 320 320;" xml:space="preserve">
<style type="text/css">
	.st0{fill:none;stroke:#EFEFEF;stroke-linecap:round;stroke-linejoin:round;stroke-miterlimit:10;stroke-dasharray:4,8;}
	.st1{fill-rule:evenodd;clip-rule:evenodd;fill:#FFFFFF;}
	.st2{fill-rule:evenodd;clip-rule:evenodd;fill:#22BAE6;}
	.st3{fill:#22BAE6;}
	.st4{fill:#FFFFFF;}
	.st5{fill:#DEDFDF;}
	.st6{fill:#2F7ABC;}
	.st7{fill:#EFEFEF;}
	.st8{fill:url(#SVGID_1_);}
	.st9{fill:url(#SVGID_2_);}
	.st10{fill:url(#SVGID_3_);}
	.st11{fill:url(#SVGID_4_);}
	.st12{fill:url(#SVGID_5_);}
	.st13{fill:url(#SVGID_6_);}
	.st14{fill:url(#SVGID_7_);}
	.st15{fill:url(#SVGID_8_);}
	.st16{fill:url(#SVGID_9_);}
	.st17{fill:url(#SVGID_10_);}
	.st18{fill:url(#SVGID_11_);}
	.st19{fill:url(#SVGID_12_);}
	.st20{fill:#9E1209;}
	.st21{fill:url(#SVGID_13_);}
	.st22{fill:url(#SVGID_14_);}
	.st23{fill:url(#SVGID_15_);}
	.st24{fill:url(#SVGID_16_);}
</style>
<circle class="st0" cx="154.2" cy="163.2" r="123.7"/>
<g id="Cloud">
	<path id="XMLID_8_" class="st1" d="M227.8,153.6c-19.6,0-36.3,6.9-50,20.7c-13.8,13.7-20.7,30.4-20.7,50s6.9,36.3,20.7,49.9
		c5.1,5.2,10.6,9.4,16.4,12.6h-85.9c-1.4-0.1-2.7-0.5-4-1.1c-2.1-1.1-3.2-3-3.2-6V104.9c0.2-1.5,0.5-2.9,1.1-4
		c1.1-2.1,3.2-3.2,6.2-3.2h174.7l1.1,0.2c1.1,0.2,1.9,0.5,2.7,0.8c2.2,1.1,3.3,3,3.3,6.2v86c-3.3-5.9-7.5-11.5-12.6-16.6
		C263.8,160.5,247.2,153.6,227.8,153.6z"/>
	<g>
		<path id="XMLID_2_" class="st2" d="M227.8,153.6c19.3,0,36,6.9,49.9,20.7c5.2,5.1,9.4,10.7,12.6,16.6v-86c0-3.1-1.1-5.2-3.3-6.2
			c-0.8-0.3-1.7-0.6-2.7-0.8l-1.1-0.2H108.4c-3,0-5,1.1-6.2,3.2c-0.5,1.1-0.8,2.4-1.1,4v174.6c0,3,1.1,5,3.2,6
			c1.3,0.7,2.6,1.1,4,1.1h85.9c-5.9-3.3-11.4-7.5-16.4-12.6C164,260.5,157,243.8,157,224.2s6.9-36.3,20.7-50
			C191.5,160.5,208.2,153.6,227.8,153.6z M287.7,89.8c1.9,0.4,3.3,0.8,4.3,1.4c4.3,2.1,6.4,5.8,6.4,11.2v122
			c0,19.6-6.9,36.2-20.9,49.9c-13.9,13.9-30.5,20.9-49.9,20.9H105.8c-2.1,0-4.2-0.5-6.4-1.5c-4.3-2.2-6.4-6-6.4-11.3v-180
			c0-2.1,0.5-4.3,1.7-6.4c2.1-4.3,5.8-6.4,11.2-6.4h179.8L287.7,89.8z"/>
		<g>
			<path class="st3" d="M150.9,160.3h-7.3v-20.1H123v20.1h-7.3v-44.6h7.3v18.2h20.6v-18.2h7.3V160.3L150.9,160.3z"/>
		</g>
	</g>
	<g id="shape">
		<path class="st4" d="M173.3,224.2l36-18.6v5.3L179,226.1v0.2l30.4,15.2v5.3l-36-18.6C173.3,228.3,173.3,224.2,173.3,224.2z"/>
		<path class="st4" d="M214.4,250.1l21.7-56.3h5.3l-21.8,56.3H214.4z"/>
		<path class="st4" d="M282.3,228.4l-36,18.5v-5.3l30.6-15.2v-0.2L246.3,211v-5.3l36,18.5V228.4z"/>
	</g>
</g>
<g>
	<path class="st4" d="M274.8,142c-19,0-34.5-15.5-34.5-34.5S255.8,73,274.8,73s34.5,15.5,34.5,34.5S293.9,142,274.8,142z"/>
	<path class="st5" d="M274.8,74.4c18.2,0,33,14.8,33,33s-14.8,33-33,33s-33-14.8-33-33S256.6,74.4,274.8,74.4 M274.8,71.4
		c-19.9,0-36,16.1-36,36s16.1,36,36,36s36-16.1,36-36S294.7,71.4,274.8,71.4L274.8,71.4z"/>
</g>
<g>
	<g>
		<polygon class="st6" points="212.9,47.1 231.2,48.2 229.8,65.2 222.6,70.2 215.4,66.7 		"/>
		<polygon class="st6" points="159.3,50.4 163.4,50.4 164.8,47.1 165.4,27.7 158.8,23.9 146.3,23.9 145.3,38.1 145.8,50 		"/>
		<polygon class="st6" points="89,54.9 82.1,48.7 70.4,49.1 69.9,74.9 70.7,75.8 89,75.8 		"/>
		<polygon class="st6" points="46.5,116.5 40.3,110.3 28.1,110.3 28.1,137.2 46.5,137.6 		"/>
		<polygon class="st6" points="51,191.1 44.9,185.6 28.7,185.3 27.2,187.1 27.2,208.7 50.5,209.1 		"/>
		<polygon class="st6" points="78.8,247.1 72.8,241.1 58.4,240.7 59,268 77.7,268 		"/>
	</g>
	<g>
		<g>
			<path class="st7" d="M210.8,45.1h22.5l-2.1,23.2l-9.2,3.1l-9.2-3.1L210.8,45.1z M228.8,52.6l0.3-2.8H215l0.7,8.5h9.8l-0.4,3.6
				l-3.1,0.8l-3.2-0.8l-0.2-2.2h-2.8l0.4,4.4l5.8,1.6h0.1l5.7-1.6l0.8-8.7h-10.3l-0.2-2.9L228.8,52.6L228.8,52.6z"/>
		</g>
		<g>
			<path class="st7" d="M165.4,27.7c0.6,0.5,0.8,1.2,0.8,2v19.5c0,0.8-0.3,1.4-0.8,2c-0.6,0.5-1.2,0.8-2,0.8h-16.9
				c-0.8,0-1.4-0.3-2-0.8s-0.8-1.2-0.8-2V24.8c0-0.8,0.3-1.4,0.8-2s1.2-0.8,2-0.8h11.9c0.8,0,1.4,0.3,2,0.8L165.4,27.7z M146.6,49.1
				h16.9V32.2h-6.1c-0.4,0-0.7-0.1-1-0.4c-0.3-0.3-0.4-0.6-0.4-1v-6.1h-9.4V49.1L146.6,49.1z M149.3,33.1c0.6-0.5,1.2-0.8,2-0.8
				s1.4,0.3,2,0.8s0.8,1.2,0.8,2s-0.3,1.5-0.8,2c-0.6,0.5-1.2,0.8-2,0.8s-1.4-0.3-2-0.8s-0.8-1.2-0.8-2S148.7,33.6,149.3,33.1z
				 M148.4,46.3v-3.8l2.3-2.3c0.3-0.3,0.6-0.3,0.9,0l2.3,2.3l5.2-5.2c0.3-0.3,0.6-0.3,0.9,0l1.4,1.4v7.5L148.4,46.3L148.4,46.3z
				 M163.2,29.4l-4.4-4.4v4.5C158.8,29.4,163.2,29.4,163.2,29.4z"/>
		</g>
		<g>
			<path class="st7" d="M90,53.4c0.6,0.5,0.8,1.2,0.8,2v19.5c0,0.8-0.3,1.4-0.8,2c-0.6,0.6-1.2,0.8-2,0.8H71.1c-0.8,0-1.4-0.3-2-0.8
				c-0.6-0.6-0.8-1.2-0.8-2V50.5c0-0.8,0.3-1.4,0.8-2c0.6-0.5,1.2-0.8,2-0.8H83c0.8,0,1.4,0.3,2,0.8L90,53.4z M71.1,74.8H88V58h-6.1
				c-0.4,0-0.7-0.1-1-0.4c-0.3-0.3-0.4-0.6-0.4-1v-6.1h-9.4V74.8z M83.5,60.8c0.3,0,0.5,0.1,0.6,0.3s0.1,0.5,0,0.7
				c-1.4,2.4-2.3,3.9-2.7,4.6l2.7,4.6c0.2,0.2,0.2,0.5,0,0.7C84,71.9,83.8,72,83.5,72h-1.7c-0.3,0-0.5-0.1-0.6-0.3
				c-0.1-0.1-0.6-1.2-1.7-3.4c-0.5,1.1-1,2.2-1.7,3.4c-0.1,0.2-0.3,0.3-0.6,0.3h-1.7c-0.3,0-0.5-0.1-0.6-0.3c-0.1-0.2-0.1-0.5,0-0.7
				l2.7-4.6L75,61.8c-0.2-0.2-0.2-0.5,0-0.7s0.3-0.3,0.6-0.3h1.7c0.3,0,0.5,0.1,0.6,0.3c0.3,0.7,0.9,1.8,1.6,3.4
				c0.3-0.9,0.9-2,1.7-3.4c0.1-0.2,0.3-0.3,0.6-0.3C81.8,60.8,83.5,60.8,83.5,60.8z M87.7,55.2l-4.4-4.5v4.5H87.7z"/>
		</g>
		<g>
			<path class="st7" d="M47.5,115c0.5,0.6,0.8,1.2,0.8,2v19.4c0,0.8-0.3,1.4-0.8,2s-1.2,0.8-2,0.8H28.6c-0.8,0-1.5-0.3-2-0.8
				c-0.5-0.6-0.8-1.2-0.8-2V112c0-0.8,0.3-1.4,0.8-2s1.2-0.8,2-0.8h12c0.8,0,1.4,0.3,2,0.8L47.5,115z M28.6,136.5h16.9v-16.9h-6.1
				c-0.4,0-0.7-0.1-1-0.4s-0.4-0.6-0.4-1v-6.1h-9.4V136.5z M41.5,124.3h0.9c0.2,0,0.4,0.1,0.6,0.3c0.1,0.2,0.2,0.4,0.2,0.6
				c-0.4,1.5-1.1,4.1-2,8c-0.1,0.4-0.3,0.5-0.7,0.5H39c-0.4,0-0.6-0.2-0.7-0.5c-0.3-1.1-0.6-2.5-1-4.2l-0.2-1c0,0.3-0.1,0.6-0.2,1
				l-1,4.2c-0.1,0.4-0.3,0.5-0.6,0.5h-1.5c-0.4,0-0.6-0.2-0.7-0.5c-0.1-0.5-0.4-1.8-0.9-3.8c-0.5-2.1-0.8-3.5-1-4.1
				c-0.1-0.2,0-0.4,0.1-0.6c0.2-0.2,0.3-0.3,0.5-0.3h1c0.4,0,0.6,0.2,0.7,0.6c0.7,3.7,1.1,5.7,1.1,5.8c0,0,0,0.1,0.1,0.2
				c0-0.2,0.5-2.3,1.4-6.1c0.1-0.3,0.3-0.5,0.7-0.5h0.8c0.4,0,0.6,0.2,0.7,0.5c0.9,3.8,1.4,5.7,1.4,5.9c0,0,0,0.1,0,0.2
				c0-0.2,0.5-2.2,1.2-6C40.9,124.5,41.1,124.3,41.5,124.3z M45.3,116.8l-4.5-4.4v4.4H45.3z"/>
		</g>
		<g>
			<path class="st7" d="M51.2,190.1c0.5,0.6,0.8,1.2,0.8,2v15.7c0,0.8-0.3,1.4-0.8,2s-1.2,0.8-2,0.8H28.6c-0.8,0-1.5-0.3-2-0.8
				c-0.5-0.6-0.8-1.2-0.8-2v-20.6c0-0.8,0.3-1.4,0.8-2s1.2-0.8,2-0.8h15.7c0.8,0,1.4,0.3,2,0.8L51.2,190.1z M48.9,207.8
				c0.2,0,0.3-0.1,0.3-0.4v-15.2c0-0.1,0-0.2-0.1-0.2l-4.6-4.6v5.9c0,0.4-0.1,0.7-0.4,1c-0.3,0.3-0.6,0.4-1,0.4H32.8
				c-0.4,0-0.7-0.1-1-0.4c-0.3-0.3-0.4-0.6-0.4-1v-6.1H29c-0.2,0-0.4,0.1-0.4,0.4v19.9c0,0.2,0.1,0.4,0.4,0.4L48.9,207.8L48.9,207.8
				z M35.3,197.6c1-1,2.2-1.5,3.6-1.5s2.6,0.5,3.6,1.5s1.5,2.2,1.5,3.6s-0.5,2.6-1.5,3.6s-2.2,1.5-3.6,1.5s-2.6-0.5-3.6-1.5
				s-1.5-2.2-1.5-3.6S34.3,198.6,35.3,197.6z M41.8,187.1h-7.5v4.7h7.5V187.1z M37.3,202.9c0.5,0.4,1,0.7,1.7,0.7s1.2-0.2,1.7-0.7
				c0.5-0.4,0.7-1,0.7-1.7s-0.2-1.2-0.7-1.7c-0.5-0.4-1-0.7-1.7-0.7s-1.2,0.2-1.7,0.7c-0.5,0.4-0.7,1-0.7,1.7S36.8,202.4,37.3,202.9
				z"/>
		</g>
		<g>
			<path class="st7" d="M79.3,245.6c0.6,0.6,0.8,1.2,0.8,2V267c0,0.8-0.3,1.4-0.8,2s-1.2,0.8-2,0.8H60.4c-0.8,0-1.5-0.3-2-0.8
				s-0.8-1.2-0.8-2v-24.4c0-0.8,0.3-1.4,0.8-2s1.2-0.8,2-0.8h12c0.8,0,1.4,0.3,2,0.8L79.3,245.6z M77.3,267v-16.9h-6.1
				c-0.4,0-0.7-0.1-1-0.4c-0.3-0.3-0.4-0.6-0.4-1v-6.1h-9.4V267H77.3z M66.4,260.3c0.2,0.2,0.2,0.5,0,0.8l-1,1
				c-0.1,0.1-0.2,0.2-0.4,0.2c-0.1,0-0.2-0.1-0.3-0.2l-3.3-3.2c-0.3-0.2-0.3-0.5,0-0.7l3.3-3.2c0.3-0.3,0.5-0.3,0.8,0l1,1v0.1
				c0.2,0.2,0.2,0.5,0,0.7l-1.9,1.7L66.4,260.3z M69.9,252.4l1.4,0.4c0.3,0.1,0.5,0.3,0.3,0.6l-3.2,11c-0.1,0.4-0.3,0.5-0.6,0.4
				l-1.4-0.4c-0.3-0.1-0.5-0.3-0.3-0.6l3.2-11C69.4,252.4,69.6,252.3,69.9,252.4z M71.3,256.9c-0.2-0.2-0.2-0.5,0-0.8l1-1.1
				c0.2-0.3,0.5-0.3,0.8,0l3.3,3.2c0.3,0.2,0.3,0.5,0,0.7l-3.3,3.2c-0.3,0.3-0.5,0.3-0.8,0l-1-1V261c-0.2-0.2-0.2-0.5,0-0.7l1.9-1.7
				L71.3,256.9z M72.6,242.9v4.4H77L72.6,242.9z"/>
		</g>
	</g>
</g>
<g>
	
		<linearGradient id="SVGID_1_" gradientUnits="userSpaceOnUse" x1="49.9263" y1="272.8539" x2="49.8833" y2="272.9296" gradientTransform="matrix(202.9347 0 0 -202.7803 -9842.8535 55459.4141)">
		<stop  offset="0" style="stop-color:#FB7655"/>
		<stop  offset="0" style="stop-color:#FB7655"/>
		<stop  offset="0.41" style="stop-color:#E42B1E"/>
		<stop  offset="0.99" style="stop-color:#990000"/>
		<stop  offset="1" style="stop-color:#990000"/>
	</linearGradient>
	<path class="st8" d="M284.6,112.3l-23.6,14l30.5-2.1l2.4-30.8L284.6,112.3z"/>
	
		<linearGradient id="SVGID_2_" gradientUnits="userSpaceOnUse" x1="50.0591" y1="273.5489" x2="49.8731" y2="273.6162" gradientTransform="matrix(60.3079 0 0 -111.7781 -2725.7178 30693.8984)">
		<stop  offset="0" style="stop-color:#871101"/>
		<stop  offset="0" style="stop-color:#871101"/>
		<stop  offset="0.99" style="stop-color:#911209"/>
		<stop  offset="1" style="stop-color:#911209"/>
	</linearGradient>
	<path class="st9" d="M291.6,124.2l-2.6-18.1l-7.1,9.4L291.6,124.2z"/>
	
		<linearGradient id="SVGID_3_" gradientUnits="userSpaceOnUse" x1="49.9697" y1="279.8422" x2="49.9101" y2="280.1846" gradientTransform="matrix(188.3195 0 0 -21.9864 -9126.0791 6283.2319)">
		<stop  offset="0" style="stop-color:#871101"/>
		<stop  offset="0" style="stop-color:#871101"/>
		<stop  offset="0.99" style="stop-color:#911209"/>
		<stop  offset="1" style="stop-color:#911209"/>
	</linearGradient>
	<path class="st10" d="M291.6,124.2l-19.2-1.5l-11.3,3.6L291.6,124.2z"/>
	
		<linearGradient id="SVGID_4_" gradientUnits="userSpaceOnUse" x1="51.9827" y1="273.9698" x2="52.0093" y2="273.8534" gradientTransform="matrix(65.2221 0 0 -97.0999 -3129.7219 26714.127)">
		<stop  offset="0" style="stop-color:#FFFFFF"/>
		<stop  offset="0" style="stop-color:#FFFFFF"/>
		<stop  offset="0.23" style="stop-color:#E57252"/>
		<stop  offset="0.46" style="stop-color:#DE3B20"/>
		<stop  offset="0.99" style="stop-color:#A60003"/>
		<stop  offset="1" style="stop-color:#A60003"/>
	</linearGradient>
	<path class="st11" d="M261.2,126.3l4.8-15.7l-10.6,2.2L261.2,126.3z"/>
	
		<linearGradient id="SVGID_5_" gradientUnits="userSpaceOnUse" x1="50.4115" y1="273.2724" x2="50.4176" y2="273.1645" gradientTransform="matrix(105.3202 0 0 -106.8253 -5036.6519 29293.541)">
		<stop  offset="0" style="stop-color:#FFFFFF"/>
		<stop  offset="0" style="stop-color:#FFFFFF"/>
		<stop  offset="0.23" style="stop-color:#E4714E"/>
		<stop  offset="0.56" style="stop-color:#BE1A0D"/>
		<stop  offset="0.99" style="stop-color:#A80D00"/>
		<stop  offset="1" style="stop-color:#A80D00"/>
	</linearGradient>
	<path class="st12" d="M281.9,115.6l-4.4-17.3l-12.7,11.8L281.9,115.6z"/>
	
		<linearGradient id="SVGID_6_" gradientUnits="userSpaceOnUse" x1="49.8476" y1="272.714" x2="49.8679" y2="272.5896" gradientTransform="matrix(94.3212 0 0 -66.4185 -4418.3672 18203.7227)">
		<stop  offset="0" style="stop-color:#FFFFFF"/>
		<stop  offset="0" style="stop-color:#FFFFFF"/>
		<stop  offset="0.18" style="stop-color:#E46342"/>
		<stop  offset="0.4" style="stop-color:#C82410"/>
		<stop  offset="0.99" style="stop-color:#A80D00"/>
		<stop  offset="1" style="stop-color:#A80D00"/>
	</linearGradient>
	<path class="st13" d="M292.9,98.5L281,88.8l-3.3,10.7L292.9,98.5z"/>
	
		<linearGradient id="SVGID_7_" gradientUnits="userSpaceOnUse" x1="50.2026" y1="271.4397" x2="50.3194" y2="271.6098" gradientTransform="matrix(70.7666 0 0 -24.3007 -3275.1392 6683.7607)">
		<stop  offset="0" style="stop-color:#FFFFFF"/>
		<stop  offset="0" style="stop-color:#FFFFFF"/>
		<stop  offset="0.54" style="stop-color:#C81F11"/>
		<stop  offset="0.99" style="stop-color:#BF0905"/>
		<stop  offset="1" style="stop-color:#BF0905"/>
	</linearGradient>
	<path class="st14" d="M287.4,85.3l-7,3.9l-4.4-3.9H287.4z"/>
	
		<linearGradient id="SVGID_8_" gradientUnits="userSpaceOnUse" x1="60.2521" y1="273.9776" x2="60.2895" y2="273.8839" gradientTransform="matrix(18.1773 0 0 -72.6448 -841.6877 20011.7637)">
		<stop  offset="0" style="stop-color:#FFFFFF"/>
		<stop  offset="0" style="stop-color:#FFFFFF"/>
		<stop  offset="0.31" style="stop-color:#DE4024"/>
		<stop  offset="0.99" style="stop-color:#BF190B"/>
		<stop  offset="1" style="stop-color:#BF190B"/>
	</linearGradient>
	<path class="st15" d="M252.7,118.1l3-5.4l-2.4-6.4L252.7,118.1z"/>
	<path class="st4" d="M253,106.1l2.4,6.8l10.4-2.4l11.9-11l3.4-10.7l-5.3-3.7l-9,3.4c-2.8,2.7-8.3,7.8-8.5,8
		C258.1,96.5,254.7,103.1,253,106.1L253,106.1z"/>
	
		<linearGradient id="SVGID_9_" gradientUnits="userSpaceOnUse" x1="50.2076" y1="272.607" x2="50.4098" y2="272.8151" gradientTransform="matrix(158.1624 0 0 -157.9374 -7692.1406 43172.3164)">
		<stop  offset="0" style="stop-color:#BD0012"/>
		<stop  offset="0" style="stop-color:#BD0012"/>
		<stop  offset="7.000000e-02" style="stop-color:#FFFFFF"/>
		<stop  offset="0.17" style="stop-color:#FFFFFF"/>
		<stop  offset="0.27" style="stop-color:#C82F1C"/>
		<stop  offset="0.33" style="stop-color:#820C01"/>
		<stop  offset="0.46" style="stop-color:#A31601"/>
		<stop  offset="0.72" style="stop-color:#B31301"/>
		<stop  offset="0.99" style="stop-color:#E82609"/>
		<stop  offset="1" style="stop-color:#E82609"/>
	</linearGradient>
	<path class="st16" d="M261.5,93.9c6.2-6.1,14-9.6,17.1-6.6c3,3.1-0.2,10.5-6.3,16.6s-13.9,9.9-16.9,6.8
		C252.2,107.6,255.3,100,261.5,93.9L261.5,93.9z"/>
	
		<linearGradient id="SVGID_10_" gradientUnits="userSpaceOnUse" x1="50.3498" y1="273.8694" x2="50.274" y2="273.8938" gradientTransform="matrix(127.0738 0 0 -97.4086 -6124.8726 26798.0684)">
		<stop  offset="0" style="stop-color:#8C0C01"/>
		<stop  offset="0" style="stop-color:#8C0C01"/>
		<stop  offset="0.54" style="stop-color:#990C00"/>
		<stop  offset="0.99" style="stop-color:#A80D0E"/>
		<stop  offset="1" style="stop-color:#A80D0E"/>
	</linearGradient>
	<path class="st17" d="M261.2,126.3l4.8-15.7l15.8,5.1C276.1,120.9,269.7,125.5,261.2,126.3L261.2,126.3z"/>
	
		<linearGradient id="SVGID_11_" gradientUnits="userSpaceOnUse" x1="49.912" y1="273.2094" x2="49.821" y2="273.282" gradientTransform="matrix(94.0112 0 0 -105.6032 -4402.4565 28961.0098)">
		<stop  offset="0" style="stop-color:#7E110B"/>
		<stop  offset="0" style="stop-color:#7E110B"/>
		<stop  offset="0.99" style="stop-color:#9E0C00"/>
		<stop  offset="1" style="stop-color:#9E0C00"/>
	</linearGradient>
	<path class="st18" d="M277.8,99.5l4,16.1c4.8-5,9-10.4,11.2-17.1L277.8,99.5L277.8,99.5z"/>
	
		<linearGradient id="SVGID_12_" gradientUnits="userSpaceOnUse" x1="49.8648" y1="272.4486" x2="49.8113" y2="272.5043" gradientTransform="matrix(79.7018 0 0 -81.7914 -3681.3315 22379.082)">
		<stop  offset="0" style="stop-color:#79130D"/>
		<stop  offset="0" style="stop-color:#79130D"/>
		<stop  offset="0.99" style="stop-color:#9E120B"/>
		<stop  offset="1" style="stop-color:#9E120B"/>
	</linearGradient>
	<path class="st19" d="M293,98.6c1.6-4.9,2-11.9-5.7-13.3l-6.3,3.5L293,98.6L293,98.6z"/>
	<path class="st20" d="M252.7,118c0.2,8.1,6.1,8.2,8.6,8.3l-5.7-13.4L252.7,118L252.7,118z"/>
	
		<radialGradient id="SVGID_13_" cx="49.8418" cy="273.614" r="0.1126" gradientTransform="matrix(93.1133 0 0 -48.6553 -4358.3188 13414.457)" gradientUnits="userSpaceOnUse">
		<stop  offset="0" style="stop-color:#A80D00"/>
		<stop  offset="0" style="stop-color:#A80D00"/>
		<stop  offset="0.99" style="stop-color:#7E0E08"/>
		<stop  offset="1" style="stop-color:#7E0E08"/>
	</radialGradient>
	<path class="st21" d="M277.8,99.6c3.7,2.2,11,6.8,11.2,6.9s3.2-5,3.9-7.9L277.8,99.6L277.8,99.6z"/>
	
		<radialGradient id="SVGID_14_" cx="50.4059" cy="274.1866" r="0.1431" gradientTransform="matrix(97.4344 0 0 -75.848 -4643.1729 20912.0215)" gradientUnits="userSpaceOnUse">
		<stop  offset="0" style="stop-color:#A30C00"/>
		<stop  offset="0" style="stop-color:#A30C00"/>
		<stop  offset="0.99" style="stop-color:#800E08"/>
		<stop  offset="1" style="stop-color:#800E08"/>
	</radialGradient>
	<path class="st22" d="M265.9,110.5l6.4,12.3c3.7-2.1,6.7-4.5,9.4-7.2L265.9,110.5L265.9,110.5z"/>
	
		<linearGradient id="SVGID_15_" gradientUnits="userSpaceOnUse" x1="53.9246" y1="274.1601" x2="53.8381" y2="274.3054" gradientTransform="matrix(40.1367 0 0 -81.143 -1906.0947 22372.3672)">
		<stop  offset="0" style="stop-color:#8B2114"/>
		<stop  offset="0" style="stop-color:#8B2114"/>
		<stop  offset="0.43" style="stop-color:#9E100A"/>
		<stop  offset="0.99" style="stop-color:#B3100C"/>
		<stop  offset="1" style="stop-color:#B3100C"/>
	</linearGradient>
	<path class="st23" d="M255.5,112.9l-0.9,10.7c1.7,2.4,4,2.5,6.5,2.4C259.3,121.6,255.7,112.7,255.5,112.9L255.5,112.9z"/>
	
		<linearGradient id="SVGID_16_" gradientUnits="userSpaceOnUse" x1="49.7828" y1="271.8608" x2="49.8825" y2="271.7554" gradientTransform="matrix(78.0993 0 0 -32.6239 -3603.0396 8956.3213)">
		<stop  offset="0" style="stop-color:#B31000"/>
		<stop  offset="0" style="stop-color:#B31000"/>
		<stop  offset="0.44" style="stop-color:#910F08"/>
		<stop  offset="0.99" style="stop-color:#791C12"/>
		<stop  offset="1" style="stop-color:#791C12"/>
	</linearGradient>
	<path class="st24" d="M281,88.8l12.7,1.7c-0.7-2.8-2.8-4.7-6.3-5.3L281,88.8L281,88.8z"/>
</g>
</svg>
