<?xml version="1.0" encoding="utf-8"?>
<!-- Generator: Adobe Illustrator 25.2.0, SVG Export Plug-In . SVG Version: 6.00 Build 0)  -->
<svg version="1.1" id="Layer_1" xmlns="http://www.w3.org/2000/svg" xmlns:xlink="http://www.w3.org/1999/xlink" x="0px" y="0px"
	 viewBox="0 0 272 272" style="enable-background:new 0 0 272 272;" xml:space="preserve">
<style type="text/css">
	.st0{fill-rule:evenodd;clip-rule:evenodd;fill:#FFFFFF;}
	.st1{fill-rule:evenodd;clip-rule:evenodd;fill:#22BAE6;}
	.st2{fill:#22BAE6;}
	.st3{fill:#C1BC30;}
	.st4{fill:#FFFFFF;}
</style>
<g id="_x2E_NET_2_">
	<path id="XMLID_12_" class="st0" d="M143.7,121.1c-20.9,0-38.7,7.4-53.3,22.1c-14.7,14.6-22.1,32.4-22.1,53.3s7.4,38.7,22.1,53.2
		c5.4,5.5,11.3,10,17.5,13.5H16.4c-1.5-0.1-2.8-0.5-4.2-1.2c-2.3-1.1-3.4-3.2-3.4-6.4V69.2c0.2-1.6,0.6-3.1,1.1-4.2
		c1.2-2.3,3.4-3.4,6.6-3.4h186.3l1.2,0.2c1.1,0.2,2,0.5,2.9,0.8c2.4,1.1,3.6,3.2,3.6,6.6v91.6c-3.5-6.3-8-12.3-13.5-17.7
		C182,128.4,164.3,121.1,143.7,121.1z"/>
	<g>
		<path id="XMLID_9_" class="st1" d="M143.7,121.1c20.6,0,38.4,7.4,53.2,22.1c5.5,5.4,10,11.4,13.4,17.7V69.2c0-3.3-1.2-5.5-3.6-6.6
			c-0.8-0.3-1.8-0.6-2.9-0.8l-1.2-0.2H16.4c-3.2,0-5.4,1.1-6.6,3.4c-0.6,1.2-0.9,2.6-1.1,4.2v186.2c0,3.2,1.1,5.4,3.4,6.4
			c1.4,0.7,2.8,1.1,4.2,1.2h91.5c-6.3-3.5-12.2-8-17.5-13.5c-14.7-14.5-22.1-32.3-22.1-53.2s7.4-38.7,22.1-53.3
			C105,128.4,122.8,121.1,143.7,121.1z M207.5,53c2,0.4,3.6,0.9,4.6,1.5c4.5,2.2,6.8,6.2,6.8,11.9v130c0,20.9-7.4,38.5-22.2,53.2
			c-14.8,14.8-32.5,22.2-53.2,22.2H13.6c-2.2,0-4.5-0.6-6.8-1.6C2.3,268,0,264,0,258.3V66.4c0-2.3,0.6-4.5,1.8-6.8
			C4,55.1,8,52.8,13.7,52.8h191.7L207.5,53z"/>
		<g>
			<path class="st2" d="M72.1,104.3c0,7.7-1.9,13.7-5.8,18s-9.3,6.4-16.4,6.4c-7.1,0-12.7-2.1-16.6-6.4s-5.8-10.3-5.8-18.2
				s1.9-13.9,5.8-18.1c3.9-4.2,9.4-6.3,16.6-6.3c7.1,0,12.5,2.1,16.4,6.4C70.2,90.6,72.1,96.6,72.1,104.3z M35.8,104.3
				c0,5.8,1.2,10.3,3.6,13.3s5.8,4.5,10.5,4.5s8.1-1.5,10.5-4.5c2.4-3,3.5-7.5,3.5-13.4c0-5.8-1.1-10.2-3.5-13.2
				c-2.4-3-5.8-4.5-10.4-4.5c-4.6,0-8.2,1.5-10.6,4.5C37,94.1,35.8,98.5,35.8,104.3z"/>
		</g>
	</g>
	<g>
		<path class="st0" d="M165.3,188.7c5.3,5.2,10.5,10.4,15.7,15.6c4.1,4.2,2.4,10.9-3.2,12.3c-2.9,0.7-5.3-0.3-7.4-2.4
			c-4.5-4.6-9.2-9.2-13.7-13.8c-0.6-0.6-1-1.3-1.5-1.9c-9.3,4.9-18.4,5.7-27.8,1.9c-6.8-2.8-11.8-7.5-15.3-14
			c-6.9-12.8-3.7-28.7,7.5-38.1c11-9.3,27.3-9.4,38.7-0.6C169,156.4,174.5,172.9,165.3,188.7z M118.2,172.1c0,11.6,9.5,21,21.1,21
			c11.5,0,21.2-9.7,21-21.2c-0.2-11.4-9.7-20.9-21.1-20.9C127.7,151,118.2,160.6,118.2,172.1z"/>
		<path class="st0" d="M108.7,222.1c0-3.7,0-7.2,0-10.9c3.6,0,7.1,0,10.7,0c0,3.6,0,7.1,0,10.9C115.9,222.1,112.4,222.1,108.7,222.1
			z"/>
		<path class="st0" d="M139.8,222c-3.7,0-7.2,0-11,0c0-3.6,0-7.1,0-10.7c3.6,0,7.2,0,11,0C139.8,214.8,139.8,218.4,139.8,222z"/>
		<path class="st0" d="M108.7,234.2c3.7,0,7.1,0,10.7,0c0,3.7,0,7.1,0,10.8c-3.6,0-7.1,0-10.7,0
			C108.7,241.5,108.7,237.9,108.7,234.2z"/>
		<path class="st0" d="M128.9,245c0-3.7,0-7.1,0-10.8c3.7,0,7.2,0,11,0c0,3.6,0,7.1,0,10.8C136.2,245,132.6,245,128.9,245z"/>
		<path class="st0" d="M149.5,234.3c3.7,0,7.3,0,11,0c0,3.7,0,7.1,0,10.7c-3.7,0-7.2,0-11,0C149.5,241.4,149.5,237.9,149.5,234.3z"
			/>
		<path class="st0" d="M180.7,245.1c-3.7,0-7.2,0-11,0c0-3.6,0-7.1,0-10.8c3.7,0,7.2,0,11,0C180.7,237.8,180.7,241.3,180.7,245.1z"
			/>
	</g>
</g>
<circle class="st3" cx="207.7" cy="65" r="63.7"/>
<g>
	<path class="st4" d="M174.4,48.5c-3.2,0-5.8,2.6-5.8,5.8v24.1c0,3.2,2.6,5.8,5.8,5.8s5.8-2.6,5.8-5.8V54.3
		C180.2,51,177.6,48.5,174.4,48.5L174.4,48.5z M241.8,48.5c-3.2,0-5.8,2.6-5.8,5.8v24.1c0,3.2,2.6,5.8,5.8,5.8s5.8-2.6,5.8-5.8V54.3
		C247.5,51,245,48.5,241.8,48.5L241.8,48.5z"/>
	<path class="st4" d="M198.4,75.9c-3.2,0-5.8,2.6-5.8,5.8v24.1c0,3.2,2.6,5.8,5.8,5.8s5.8-2.6,5.8-5.8V81.7
		C204.2,78.5,201.7,75.9,198.4,75.9L198.4,75.9z M217.7,75.9c-3.2,0-5.8,2.6-5.8,5.8v24.1c0,3.2,2.6,5.8,5.8,5.8s5.8-2.6,5.8-5.8
		V81.7C223.5,78.5,220.9,75.9,217.7,75.9L217.7,75.9z"/>
	<path class="st4" d="M192.1,18.2c-0.1,0-0.3,0-0.4,0.1c-0.4,0.2-0.5,0.7-0.3,1.1l4.1,7.4c-7.8,4.1-13.1,11.8-13.1,20.7h51.5
		c0-8.9-5.3-16.6-13.1-20.7l4.1-7.4c0.2-0.4,0.1-0.9-0.3-1.1c-0.1-0.1-0.3-0.1-0.4-0.1c-0.3,0-0.6,0.1-0.7,0.4l-4.1,7.4
		c-3.4-1.5-7.2-2.3-11.1-2.3s-7.8,0.8-11.1,2.3l-4.1-7.4C192.6,18.3,192.4,18.2,192.1,18.2L192.1,18.2z M182.3,49.5v37.3
		c0,3.5,2.8,6.2,6.2,6.2h39.1c3.5,0,6.2-2.8,6.2-6.2V49.5H182.3L182.3,49.5z"/>
	<path class="st3" d="M196.2,33.7c-1.2,0-2.2,1-2.2,2.2s1,2.2,2.2,2.2s2.2-1,2.2-2.2C198.3,34.7,197.4,33.7,196.2,33.7L196.2,33.7z
		 M220,33.7c-1.2,0-2.2,1-2.2,2.2s1,2.2,2.2,2.2s2.2-1,2.2-2.2C222.1,34.7,221.1,33.7,220,33.7L220,33.7z"/>
</g>
</svg>
