<?xml version="1.0" encoding="utf-8"?>
<!-- Generator: Adobe Illustrator 25.2.0, SVG Export Plug-In . SVG Version: 6.00 Build 0)  -->
<svg version="1.1" id="Layer_1" xmlns="http://www.w3.org/2000/svg" xmlns:xlink="http://www.w3.org/1999/xlink" x="0px" y="0px"
	 viewBox="0 0 272 272" style="enable-background:new 0 0 272 272;" xml:space="preserve">
<style type="text/css">
	.st0{fill-rule:evenodd;clip-rule:evenodd;fill:#FFFFFF;}
	.st1{fill-rule:evenodd;clip-rule:evenodd;fill:#22BAE6;}
	.st2{fill:#22BAE6;}
	.st3{fill:#FFFFFF;}
	.st4{fill:#1A4674;}
	.st5{fill:#C6C6C6;}
	.st6{clip-path:url(#SVGID_2_);}
	.st7{fill:#5C8DBC;}
	.st8{fill:#1B598E;}
</style>
<g id="Cloud">
	<path id="XMLID_8_" class="st0" d="M143.7,121.1c-20.9,0-38.7,7.4-53.3,22.1c-14.7,14.6-22.1,32.4-22.1,53.3s7.4,38.7,22.1,53.2
		c5.4,5.5,11.3,10,17.5,13.5H16.4c-1.5-0.1-2.8-0.5-4.2-1.2c-2.3-1.1-3.4-3.2-3.4-6.4V69.2c0.2-1.6,0.6-3.1,1.1-4.2
		c1.2-2.3,3.4-3.4,6.6-3.4h186.2l1.2,0.2c1.1,0.2,2,0.5,2.9,0.8c2.4,1.1,3.6,3.2,3.6,6.6v91.6c-3.5-6.3-8-12.3-13.5-17.7
		C182,128.5,164.3,121.1,143.7,121.1z"/>
	<g>
		<path id="XMLID_2_" class="st1" d="M143.7,121.1c20.6,0,38.4,7.4,53.1,22.1c5.5,5.4,10,11.4,13.4,17.7V69.2c0-3.3-1.2-5.5-3.6-6.6
			c-0.8-0.3-1.8-0.6-2.9-0.8l-1.2-0.2H16.4c-3.2,0-5.4,1.1-6.6,3.4c-0.6,1.2-0.9,2.6-1.1,4.2v186.1c0,3.2,1.1,5.4,3.4,6.4
			c1.4,0.7,2.8,1.1,4.2,1.2h91.5c-6.3-3.5-12.2-8-17.5-13.5c-14.7-14.5-22.1-32.3-22.1-53.2s7.4-38.7,22.1-53.3
			C105,128.5,122.8,121.1,143.7,121.1z M207.5,53.1c2,0.4,3.6,0.9,4.6,1.5c4.5,2.2,6.8,6.2,6.8,11.9v130c0,20.9-7.4,38.5-22.2,53.2
			c-14.8,14.8-32.5,22.2-53.1,22.2H13.6c-2.2,0-4.5-0.6-6.8-1.6C2.3,268,0,264,0,258.3V66.5c0-2.3,0.6-4.5,1.8-6.8
			C4,55.1,8,52.9,13.7,52.9h191.6L207.5,53.1z"/>
		<g>
			<path class="st2" d="M61.7,128.2h-7.8v-21.4H32v21.4h-7.8V80.7H32v19.4h21.9V80.7h7.8V128.2L61.7,128.2z"/>
		</g>
	</g>
	<g id="shape">
		<path class="st3" d="M85.6,196.3l38.4-19.8v5.7l-32.4,16.2v0.2l32.4,16.2v5.7l-38.4-19.8C85.6,200.7,85.6,196.3,85.6,196.3z"/>
		<path class="st3" d="M129.4,223.9l23.1-60h5.6l-23.2,60H129.4z"/>
		<path class="st3" d="M201.7,200.8l-38.4,19.7v-5.7l32.6-16.2v-0.2l-32.6-16.2v-5.7l38.4,19.7V200.8z"/>
	</g>
</g>
<g>
	<circle class="st4" cx="207.7" cy="65" r="62.7"/>
	<path class="st5" d="M207.7,3.3c34,0,61.7,27.7,61.7,61.7s-27.7,61.7-61.7,61.7S146,99.1,146,65S173.7,3.3,207.7,3.3 M207.7,1.3
		C172.5,1.3,144,29.8,144,65s28.5,63.7,63.7,63.7s63.7-28.5,63.7-63.7S242.9,1.3,207.7,1.3L207.7,1.3z"/>
</g>
<g>
	<g>
		<defs>
			<circle id="SVGID_1_" cx="207.7" cy="65" r="62.3"/>
		</defs>
		<clipPath id="SVGID_2_">
			<use xlink:href="#SVGID_1_"  style="overflow:visible;"/>
		</clipPath>
		<g class="st6">
			<path class="st7" d="M286.2,31.2c0-3-0.6-5.6-1.9-7.8s-3.1-4.1-5.7-5.5c-20.9-12-41.8-24.1-62.7-36.1c-5.6-3.3-11.1-3.1-16.7,0.2
				c-8.3,4.9-50,28.8-62.4,35.9c-5.1,3-7.6,7.5-7.6,13.4c0,24.2,0,48.5,0,72.7c0,2.9,0.6,5.5,1.8,7.7c1.3,2.3,3.2,4.2,5.8,5.7
				c12.4,7.2,54.1,31,62.4,35.9c5.6,3.3,11.1,3.4,16.7,0.2c20.9-12.1,41.8-24.1,62.7-36.1c2.6-1.5,4.5-3.4,5.8-5.7
				c1.2-2.2,1.8-4.8,1.8-7.7C286.2,103.8,286.2,55.4,286.2,31.2"/>
			<path class="st4" d="M207.9,67.3L131,111.6c1.3,2.3,3.2,4.2,5.8,5.7c12.4,7.2,54.1,31,62.4,35.9c5.6,3.3,11.1,3.4,16.7,0.2
				c20.9-12.1,41.8-24.1,62.7-36.1c2.6-1.5,4.5-3.4,5.8-5.7L207.9,67.3"/>
			<path class="st4" d="M185.2,80.4c4.5,7.8,12.9,13.1,22.5,13.1c9.7,0,18.2-5.3,22.6-13.2l-22.4-13L185.2,80.4"/>
			<path class="st8" d="M286.2,31.2c0-3-0.6-5.6-1.9-7.8L208,67.3l76.4,44.3c1.2-2.2,1.8-4.8,1.8-7.7
				C286.2,103.8,286.2,55.4,286.2,31.2"/>
		</g>
	</g>
</g>
<g>
	<path class="st3" d="M259.6,67.1h-4.3v4.3H251v-4.3h-4.3v-4.3h4.3v-4.3h4.3v4.3h4.3V67.1"/>
	<path class="st3" d="M243.8,67.1h-4.3v4.3h-4.3v-4.3h-4.3v-4.3h4.3v-4.3h4.3v4.3h4.3V67.1"/>
	<path class="st3" d="M222.2,74.2c-3.2,5.7-9.3,9.6-16.4,9.6c-7,0-13.1-3.8-16.3-9.5c-1.6-2.7-2.5-5.9-2.5-9.3
		c0-10.4,8.4-18.8,18.8-18.8c6.9,0,13,3.8,16.2,9.4l16.4-9.4c-6.5-11.3-18.7-18.8-32.6-18.8c-20.8,0-37.7,16.9-37.7,37.7
		c0,6.8,1.8,13.2,5,18.8c6.5,11.3,18.7,18.9,32.7,18.9s26.2-7.7,32.7-19L222.2,74.2"/>
</g>
</svg>
