<?xml version="1.0" encoding="utf-8"?>
<!-- Generator: Adobe Illustrator 25.2.0, SVG Export Plug-In . SVG Version: 6.00 Build 0)  -->
<svg version="1.1" id="Layer_1" xmlns="http://www.w3.org/2000/svg" xmlns:xlink="http://www.w3.org/1999/xlink" x="0px" y="0px"
	 viewBox="0 0 272 272" style="enable-background:new 0 0 272 272;" xml:space="preserve">
<style type="text/css">
	.st0{fill:#FFFFFF;}
	.st1{fill-rule:evenodd;clip-rule:evenodd;fill:#22BAE6;}
	.st2{fill:#22BAE6;}
	.st3{fill:#00ACD7;}
</style>
<g id="BarCode">
	<path class="st0" d="M198,241.8c-25.3,30-105.9,24.7-105.9,24.7H5.4V60.1h209v101.1C214.4,161.2,215.4,221.2,198,241.8z"/>
	<g>
		<path class="st1" d="M68.3,196.6c0-20.9,7.3-38.7,22-53.4c14.6-14.7,32.4-22,53.4-22c20.7,0,38.4,7.3,53.2,22
			c14.8,14.7,22.1,32.4,22.1,53.4c0,20.8-7.4,38.5-22.1,53.2c-14.8,14.8-32.5,22.1-53.2,22.1c-21,0-38.8-7.4-53.4-22.1
			C75.6,235.2,68.3,217.4,68.3,196.6"/>
		<path class="st1" d="M219,196.6h-8.8V69.5c0-3.2-1.1-5.4-3.5-6.6c-0.8-0.4-1.8-0.7-2.8-0.9l-1.3-0.2H16.4c-3.3,0-5.5,1.1-6.6,3.4
			c-0.6,1.3-1.1,2.8-1.1,4.2v186.1c0,3.2,1.1,5.4,3.4,6.5c1.3,0.6,2.7,1.1,4.2,1.1h123.4l3.9,8.8H13.6c-2.3,0-4.5-0.6-6.8-1.7
			c-4.5-2.3-6.8-6.2-6.8-12V66.8c0-2.3,0.6-4.5,1.8-6.8c2.3-4.5,6.2-6.8,11.9-6.8h191.7l2.1,0.2c1.7,0.2,3.3,0.7,4.7,1.5
			c4.5,2.3,6.8,6.2,6.8,11.9L219,196.6L219,196.6z"/>
		<g>
			<g>
				<path class="st2" d="M26.5,125.6V79.3h17.4c3.6,0,6.4,0.5,8.5,1.4c2.1,1,3.8,2.4,5,4.4c1.2,1.9,1.8,4,1.8,6.2
					c0,1.9-0.6,3.9-1.6,5.6c-1.1,1.8-2.7,3.2-4.9,4.2c2.8,0.8,4.9,2.2,6.5,4.2c1.5,1.9,2.3,4.3,2.3,7.1c0,2.2-0.5,4.2-1.4,6.1
					c-0.9,1.9-2,3.3-3.4,4.3c-1.4,1.1-3.1,1.8-5.1,2.3c-2,0.5-4.5,0.8-7.5,0.8L26.5,125.6L26.5,125.6z M32.7,98.7h10.1
					c2.8,0,4.7-0.2,5.8-0.6c1.5-0.5,2.8-1.2,3.6-2.4c0.8-1.1,1.2-2.4,1.2-4.1c0-1.5-0.4-2.9-1.1-4.1c-0.7-1.1-1.8-1.9-3.2-2.4
					c-1.4-0.4-3.7-0.6-7.1-0.6h-9.3V98.7z M32.7,120.2h11.6c1.9,0,3.4-0.1,4.2-0.2c1.4-0.2,2.6-0.6,3.6-1.3c1-0.6,1.7-1.5,2.4-2.6
					c0.6-1.1,0.9-2.4,0.9-3.9c0-1.7-0.4-3.2-1.3-4.5s-2.1-2.2-3.7-2.7c-1.5-0.5-3.8-0.8-6.8-0.8H32.7V120.2z"/>
			</g>
		</g>
	</g>
	<g id="Bars_4_">
		<rect x="104.2" y="167.6" class="st0" width="9.4" height="48.6"/>
		<rect x="117.6" y="167.6" class="st0" width="5.5" height="48.6"/>
		<rect x="127" y="167.6" class="st0" width="5.5" height="48.6"/>
		<rect x="136.2" y="167.6" class="st0" width="3.6" height="48.6"/>
		<rect x="141.4" y="167.6" class="st0" width="5.2" height="48.6"/>
		<rect x="150.7" y="167.6" class="st0" width="3.2" height="48.6"/>
		<rect x="160.3" y="167.6" class="st0" width="5.4" height="48.6"/>
		<rect x="167.4" y="167.2" class="st0" width="2.7" height="48.6"/>
		<rect x="174.3" y="167.2" class="st0" width="5.8" height="48.6"/>
		<rect x="174.3" y="219.9" class="st0" width="5.8" height="5.4"/>
		<rect x="160.3" y="219.9" class="st0" width="9.9" height="5.4"/>
		<rect x="150.7" y="219.9" class="st0" width="4.9" height="5.4"/>
		<rect x="127" y="219.9" class="st0" width="5.5" height="5.4"/>
		<rect x="104.2" y="219.9" class="st0" width="5.5" height="5.4"/>
		<rect x="117.6" y="219.9" class="st0" width="5.5" height="5.4"/>
		<rect x="136.2" y="219.9" class="st0" width="10.2" height="5.4"/>
	</g>
</g>
<circle class="st3" cx="207.7" cy="65" r="63.7"/>
<g>
	<g>
		<g>
			<g>
				<path class="st0" d="M157.9,58.1c-0.2,0-0.3-0.1-0.2-0.3l1.2-1.5c0.1-0.2,0.4-0.3,0.6-0.3h19.7c0.2,0,0.3,0.2,0.2,0.3l-0.9,1.4
					c-0.1,0.2-0.4,0.3-0.6,0.3L157.9,58.1z"/>
			</g>
		</g>
	</g>
	<g>
		<g>
			<g>
				<path class="st0" d="M149.6,63.2c-0.2,0-0.3-0.1-0.2-0.3l1.2-1.5c0.1-0.2,0.4-0.3,0.6-0.3h25.2c0.2,0,0.3,0.2,0.3,0.3l-0.4,1.3
					c-0.1,0.2-0.3,0.3-0.5,0.3L149.6,63.2z"/>
			</g>
		</g>
	</g>
	<g>
		<g>
			<g>
				<path class="st0" d="M162.9,68.2c-0.2,0-0.3-0.2-0.2-0.3l0.8-1.4c0.1-0.2,0.3-0.3,0.6-0.3h11c0.2,0,0.3,0.2,0.3,0.4l-0.1,1.3
					c0,0.2-0.2,0.4-0.4,0.4L162.9,68.2z"/>
			</g>
		</g>
	</g>
	<g>
		<g id="CXHf1q_3_">
			<g>
				<g>
					<path class="st0" d="M220.2,57.1c-3.5,0.9-5.8,1.5-9.3,2.4c-0.8,0.2-0.9,0.3-1.6-0.6c-0.8-0.9-1.4-1.5-2.6-2.1
						c-3.5-1.7-6.8-1.2-10,0.8c-3.8,2.4-5.7,6-5.6,10.5c0.1,4.4,3.1,8.1,7.4,8.7c3.8,0.5,6.9-0.8,9.4-3.6c0.5-0.6,0.9-1.3,1.5-2
						c-2,0-4.5,0-10.6,0c-1.2,0-1.4-0.7-1-1.7c0.7-1.7,2-4.6,2.8-6c0.2-0.3,0.6-0.9,1.4-0.9c2.8,0,13.2,0,20.1,0
						c-0.1,1.5-0.1,3-0.3,4.5c-0.6,4-2.1,7.6-4.5,10.8c-4,5.2-9.2,8.5-15.7,9.4c-5.4,0.7-10.4-0.3-14.8-3.6c-4.1-3.1-6.4-7.2-7-12.2
						c-0.7-6,1-11.4,4.7-16.2c3.9-5.1,9.1-8.4,15.4-9.5c5.2-0.9,10.2-0.3,14.6,2.7c2.9,1.9,5,4.6,6.4,7.8
						C221.1,56.6,220.8,56.9,220.2,57.1z"/>
				</g>
				<g>
					<path class="st0" d="M238.4,87.6c-5-0.1-9.6-1.5-13.5-4.9c-3.3-2.8-5.3-6.4-6-10.6c-1-6.2,0.7-11.8,4.5-16.7
						c4-5.3,8.9-8.1,15.4-9.2c5.6-1,10.9-0.4,15.7,2.8c4.4,3,7.1,7,7.8,12.3c0.9,7.4-1.2,13.5-6.3,18.7c-3.6,3.7-8.1,6-13.2,7.1
						C241.4,87.4,239.9,87.4,238.4,87.6z M251.6,65.3c-0.1-0.7-0.1-1.3-0.2-1.8c-1-5.5-6-8.6-11.3-7.3c-5.1,1.2-8.4,4.4-9.7,9.6
						c-1,4.3,1.1,8.7,5.1,10.4c3,1.3,6.1,1.2,9-0.3C248.9,73.6,251.3,70.1,251.6,65.3z"/>
				</g>
			</g>
		</g>
	</g>
</g>
</svg>
