<?xml version="1.0" encoding="utf-8"?>
<!-- Generator: Adobe Illustrator 25.2.0, SVG Export Plug-In . SVG Version: 6.00 Build 0)  -->
<svg version="1.1" id="Layer_1" xmlns="http://www.w3.org/2000/svg" xmlns:xlink="http://www.w3.org/1999/xlink" x="0px" y="0px"
	 viewBox="0 0 272 272" style="enable-background:new 0 0 272 272;" xml:space="preserve">
<style type="text/css">
	.st0{fill-rule:evenodd;clip-rule:evenodd;fill:#FFFFFF;}
	.st1{fill-rule:evenodd;clip-rule:evenodd;fill:#22BAE6;}
	.st2{fill:#22BAE6;}
	.st3{fill:#DBDBDD;}
	.st4{fill:#EFEDF0;}
	.st5{fill:#FFFFFF;}
	.st6{fill:#DADADA;}
	.st7{fill:url(#SVGID_1_);}
	.st8{fill:url(#SVGID_2_);}
</style>
<g id="_x33_D">
	<path id="XMLID_3_" class="st0" d="M143.6,121.2c-20.9,0-38.7,7.4-53.3,22.1c-14.7,14.6-22.1,32.4-22.1,53.3s7.4,38.7,22.1,53.2
		c5.4,5.5,11.3,10,17.5,13.5H16.4c-1.5-0.1-2.8-0.5-4.2-1.2c-2.3-1.1-3.4-3.2-3.4-6.4V69.4c0.2-1.6,0.6-3.1,1.1-4.2
		c1.2-2.3,3.4-3.4,6.6-3.4h186.1l1.2,0.2c1.1,0.2,2,0.5,2.9,0.8c2.4,1.1,3.6,3.2,3.6,6.6v91.5c-3.5-6.3-7.9-12.2-13.5-17.7
		C181.9,128.6,164.2,121.2,143.6,121.2z"/>
	<g>
		<path id="XMLID_1_" class="st1" d="M143.6,121.2c20.6,0,38.4,7.4,53.1,22.1c5.5,5.4,10,11.4,13.4,17.7V69.4c0-3.3-1.2-5.5-3.6-6.6
			c-0.8-0.3-1.8-0.6-2.9-0.8l-1.2-0.2h-186c-3.2,0-5.4,1.1-6.6,3.4c-0.6,1.2-0.9,2.6-1.1,4.2v186c0,3.2,1.1,5.4,3.4,6.4
			c1.4,0.7,2.8,1.1,4.2,1.2h91.5c-6.3-3.5-12.2-7.9-17.5-13.5c-14.7-14.5-22.1-32.3-22.1-53.2s7.4-38.7,22.1-53.3
			C104.9,128.6,122.7,121.2,143.6,121.2z M207.3,53.2c2,0.4,3.6,0.9,4.6,1.5c4.5,2.2,6.8,6.2,6.8,11.9v129.9
			c0,20.8-7.4,38.5-22.2,53.2C181.8,264.5,164,272,143.4,272H13.6c-2.2,0-4.5-0.6-6.8-1.6C2.3,268,0,264,0,258.3V66.6
			c0-2.3,0.6-4.5,1.8-6.8C4,55.3,7.9,53,13.7,53h191.5L207.3,53.2z"/>
		<g>
			<path class="st2" d="M55.3,91.8c0,3-0.9,5.5-2.6,7.5c-1.8,2-4.2,3.3-7.4,4.1v0.2c3.8,0.5,6.6,1.7,8.6,3.6
				c1.9,1.9,2.8,4.4,2.8,7.5c0,4.5-1.6,8.1-4.9,10.5c-3.2,2.5-7.8,3.7-13.8,3.7c-5.3,0-9.7-0.9-13.3-2.6v-6.8c2,1,4.1,1.8,6.4,2.3
				c2.3,0.6,4.5,0.8,6.5,0.8c3.6,0,6.4-0.6,8.3-2c1.9-1.4,2.8-3.5,2.8-6.3c0-2.5-1-4.4-3-5.6s-5.2-1.8-9.5-1.8h-4.1v-6.2h4.2
				c7.5,0,11.4-2.6,11.4-7.9c0-2-0.6-3.6-1.9-4.7c-1.3-1.1-3.2-1.6-5.8-1.6c-1.8,0-3.5,0.2-5.2,0.7s-3.6,1.5-5.9,3l-3.7-5.4
				c4.4-3.2,9.4-4.8,15.2-4.8c4.8,0,8.5,1.1,11.2,3.1C54,85.3,55.3,88.1,55.3,91.8z"/>
			<path class="st2" d="M99.8,104.1c0,7.9-2.2,13.9-6.6,18s-10.6,6.2-18.8,6.2H61.2V80.8h14.7c7.5,0,13.5,2,17.6,6.1
				C97.7,91,99.8,96.7,99.8,104.1z M91.6,104.4c0-11.4-5.4-17-16-17h-6.7v34.5h5.5C85.9,121.8,91.6,116,91.6,104.4z"/>
		</g>
	</g>
	<g id="Box_1_">
		<polygon class="st3" points="102.2,158.2 147.1,168.7 190.4,158.2 146.3,145.4 		"/>
		<polygon class="st4" points="147.1,244.1 102.2,232.1 102.2,158.2 147.1,168.7 		"/>
		<polygon class="st5" points="190.4,158.2 190.4,233.2 147.1,244.1 147.1,168.7 		"/>
	</g>
</g>
<g>
	<circle class="st5" cx="207.7" cy="65" r="62.7"/>
	<path class="st6" d="M207.7,3.3c34,0,61.7,27.7,61.7,61.7s-27.7,61.7-61.7,61.7S146,99.1,146,65S173.7,3.3,207.7,3.3 M207.7,1.3
		C172.5,1.3,144,29.8,144,65s28.5,63.7,63.7,63.7s63.7-28.5,63.7-63.7S242.9,1.3,207.7,1.3L207.7,1.3z"/>
</g>
<g>
	
		<linearGradient id="SVGID_1_" gradientUnits="userSpaceOnUse" x1="1.9236" y1="272.8295" x2="2.1269" y2="272.6277" gradientTransform="matrix(189.3834 0 0 -189.8058 -188.2389 51818.043)">
		<stop  offset="0" style="stop-color:#387EB8"/>
		<stop  offset="1" style="stop-color:#366994"/>
	</linearGradient>
	<path class="st7" d="M207.4,26.3c-19.8,0-18.5,8.6-18.5,8.6v8.9h18.9v2.7h-26.4c0,0-12.6-1.4-12.6,18.5s11,19.2,11,19.2h6.6v-9.3
		c0,0-0.4-11,10.9-11H216c0,0,10.5,0.2,10.5-10.2V36.6C226.5,36.6,228.1,26.3,207.4,26.3L207.4,26.3L207.4,26.3z M197,32.3
		c1.9,0,3.4,1.5,3.4,3.4S198.9,39,197,39s-3.4-1.5-3.4-3.4S195.1,32.3,197,32.3L197,32.3L197,32.3z"/>
	
		<linearGradient id="SVGID_2_" gradientUnits="userSpaceOnUse" x1="1.7003" y1="273.0388" x2="1.9187" y2="272.8319" gradientTransform="matrix(189.3834 0 0 -189.8058 -122.2384 51882.3047)">
		<stop  offset="0" style="stop-color:#FFE052"/>
		<stop  offset="1" style="stop-color:#FFC331"/>
	</linearGradient>
	<path class="st8" d="M208,103.7c19.8,0,18.5-8.6,18.5-8.6v-8.9h-18.9v-2.7H234c0,0,12.6,1.4,12.6-18.5s-11-19.2-11-19.2H229v9.3
		c0,0,0.4,11-10.9,11h-18.7c0,0-10.5-0.2-10.5,10.2v17.1C188.9,93.4,187.3,103.7,208,103.7L208,103.7L208,103.7z M218.4,97.8
		c-1.9,0-3.4-1.5-3.4-3.4s1.5-3.4,3.4-3.4s3.4,1.5,3.4,3.4C221.8,96.3,220.3,97.8,218.4,97.8L218.4,97.8L218.4,97.8z"/>
</g>
</svg>
