<?xml version="1.0" encoding="utf-8"?>
<!-- Generator: Adobe Illustrator 25.2.0, SVG Export Plug-In . SVG Version: 6.00 Build 0)  -->
<svg version="1.1" id="Layer_1" xmlns="http://www.w3.org/2000/svg" xmlns:xlink="http://www.w3.org/1999/xlink" x="0px" y="0px"
	 viewBox="0 0 272 272" style="enable-background:new 0 0 272 272;" xml:space="preserve">
<style type="text/css">
	.st0{fill-rule:evenodd;clip-rule:evenodd;fill:#FFFFFF;}
	.st1{fill-rule:evenodd;clip-rule:evenodd;fill:#22BAE6;}
	.st2{fill:#22BAE6;}
	.st3{fill:#DBDBDD;}
	.st4{fill:#EFEDF0;}
	.st5{fill:#FFFFFF;}
	.st6{fill:#EF5135;}
</style>
<g id="_x33_D">
	<path id="XMLID_3_" class="st0" d="M143.6,121.2c-20.9,0-38.7,7.4-53.3,22.1c-14.7,14.6-22.1,32.4-22.1,53.3s7.4,38.7,22.1,53.2
		c5.4,5.5,11.3,10,17.5,13.5H16.4c-1.5-0.1-2.8-0.5-4.2-1.2c-2.3-1.1-3.4-3.2-3.4-6.4V69.4c0.2-1.6,0.6-3.1,1.1-4.2
		c1.2-2.3,3.4-3.4,6.6-3.4h186.1l1.2,0.2c1.1,0.2,2,0.5,2.9,0.8c2.4,1.1,3.6,3.2,3.6,6.6v91.5c-3.5-6.3-7.9-12.2-13.5-17.7
		C181.9,128.6,164.2,121.2,143.6,121.2z"/>
	<g>
		<path id="XMLID_1_" class="st1" d="M143.6,121.2c20.6,0,38.4,7.4,53.1,22.1c5.5,5.4,10,11.4,13.4,17.7V69.4c0-3.3-1.2-5.5-3.6-6.6
			c-0.8-0.3-1.8-0.6-2.9-0.8l-1.2-0.2h-186c-3.2,0-5.4,1.1-6.6,3.4c-0.6,1.2-0.9,2.6-1.1,4.2v186c0,3.2,1.1,5.4,3.4,6.4
			c1.4,0.7,2.8,1.1,4.2,1.2h91.5c-6.3-3.5-12.2-7.9-17.5-13.5c-14.7-14.5-22.1-32.3-22.1-53.2s7.4-38.7,22.1-53.3
			C104.9,128.6,122.7,121.2,143.6,121.2z M207.3,53.2c2,0.4,3.6,0.9,4.6,1.5c4.5,2.2,6.8,6.2,6.8,11.9v129.9
			c0,20.8-7.4,38.5-22.2,53.2C181.8,264.5,164,272,143.4,272H13.6c-2.2,0-4.5-0.6-6.8-1.6C2.3,268,0,264,0,258.3V66.6
			c0-2.3,0.6-4.5,1.8-6.8C4,55.3,7.9,53,13.7,53h191.5L207.3,53.2z"/>
		<g>
			<path class="st2" d="M55.3,91.8c0,3-0.9,5.5-2.6,7.5c-1.8,2-4.2,3.3-7.4,4.1v0.2c3.8,0.5,6.6,1.7,8.6,3.6
				c1.9,1.9,2.8,4.4,2.8,7.5c0,4.5-1.6,8.1-4.9,10.5c-3.2,2.5-7.8,3.7-13.8,3.7c-5.3,0-9.7-0.9-13.3-2.6v-6.8c2,1,4.1,1.8,6.4,2.3
				c2.3,0.6,4.5,0.8,6.5,0.8c3.6,0,6.4-0.6,8.3-2c1.9-1.4,2.8-3.5,2.8-6.3c0-2.5-1-4.4-3-5.6s-5.2-1.8-9.5-1.8h-4.1v-6.2h4.2
				c7.5,0,11.4-2.6,11.4-7.9c0-2-0.6-3.6-1.9-4.7c-1.3-1.1-3.2-1.6-5.8-1.6c-1.8,0-3.5,0.2-5.2,0.7s-3.6,1.5-5.9,3l-3.7-5.4
				c4.4-3.2,9.4-4.8,15.2-4.8c4.8,0,8.5,1.1,11.2,3.1C54,85.3,55.3,88.1,55.3,91.8z"/>
			<path class="st2" d="M99.8,104.1c0,7.9-2.2,13.9-6.6,18s-10.6,6.2-18.8,6.2H61.2V80.8h14.7c7.5,0,13.5,2,17.6,6.1
				C97.7,91,99.8,96.7,99.8,104.1z M91.6,104.4c0-11.4-5.4-17-16-17h-6.7v34.5h5.5C85.9,121.8,91.6,116,91.6,104.4z"/>
		</g>
	</g>
	<g id="Box_1_">
		<polygon class="st3" points="102.2,158.2 147.1,168.7 190.4,158.2 146.3,145.4 		"/>
		<polygon class="st4" points="147.1,244.1 102.2,232.1 102.2,158.2 147.1,168.7 		"/>
		<polygon class="st5" points="190.4,158.2 190.4,233.2 147.1,244.1 147.1,168.7 		"/>
	</g>
</g>
<circle class="st6" cx="207.7" cy="65" r="63.7"/>
<path class="st5" d="M217.8,26.6c37.6,25.6,25.5,53.8,25.5,53.8s10.7,12.1,6.4,22.6c0,0-4.4-7.4-11.8-7.4c-7.1,0-11.3,7.4-25.7,7.4
	c-32,0-47.1-26.7-47.1-26.7c28.8,18.9,48.5,5.5,48.5,5.5c-13-7.5-40.6-43.5-40.6-43.5c24,20.5,34.4,25.9,34.4,25.9
	C201.2,59,183.8,34,183.8,34c13.9,14.1,41.5,33.7,41.5,33.7C233.2,46,217.8,26.6,217.8,26.6z"/>
</svg>
