<?xml version="1.0" encoding="utf-8"?>
<!-- Generator: Adobe Illustrator 25.2.0, SVG Export Plug-In . SVG Version: 6.00 Build 0)  -->
<svg version="1.1" id="Layer_1" xmlns="http://www.w3.org/2000/svg" xmlns:xlink="http://www.w3.org/1999/xlink" x="0px" y="0px"
	 viewBox="0 0 272 272" style="enable-background:new 0 0 272 272;" xml:space="preserve">
<style type="text/css">
	.st0{fill:#FFFFFF;}
	.st1{fill-rule:evenodd;clip-rule:evenodd;fill:#22BAE6;}
	.st2{fill:#22BAE6;}
	.st3{fill-rule:evenodd;clip-rule:evenodd;fill:#FFFFFF;}
	.st4{fill:#C7E3F5;}
	.st5{fill:url(#SVGID_1_);}
	.st6{fill:url(#SVGID_2_);}
	.st7{fill:url(#SVGID_3_);}
	.st8{fill:url(#SVGID_4_);}
	.st9{fill:url(#SVGID_5_);}
	.st10{fill:url(#SVGID_6_);}
	.st11{fill:url(#SVGID_7_);}
	.st12{fill:url(#SVGID_8_);}
	.st13{fill:url(#SVGID_9_);}
	.st14{fill:url(#SVGID_10_);}
	.st15{fill:url(#SVGID_11_);}
	.st16{fill:url(#SVGID_12_);}
	.st17{fill:#9E1209;}
	.st18{fill:url(#SVGID_13_);}
	.st19{fill:url(#SVGID_14_);}
	.st20{fill:url(#SVGID_15_);}
	.st21{fill:url(#SVGID_16_);}
</style>
<g id="Email">
	<polygon class="st0" points="211.1,65.6 203.9,60.9 14.9,60.9 7.8,68.2 7.8,257.7 12.4,263.9 153.5,263.9 211.1,190.9 	"/>
	<path class="st1" d="M68.3,196.6c0-20.9,7.3-38.7,22-53.4c14.6-14.7,32.4-22,53.4-22c20.7,0,38.4,7.3,53.2,22
		c14.8,14.7,22.1,32.4,22.1,53.4c0,20.8-7.4,38.5-22.1,53.2c-14.8,14.8-32.5,22.1-53.2,22.1c-21,0-38.8-7.4-53.4-22.1
		C75.6,235.1,68.3,217.3,68.3,196.6"/>
	<path class="st1" d="M218.9,196.6h-8.8V69.4c0-3.2-1.1-5.4-3.5-6.6c-0.8-0.4-1.7-0.7-2.8-0.9l-1.3-0.2H16.4c-3.3,0-5.5,1.1-6.6,3.4
		c-0.6,1.3-1,2.8-1.1,4.2v186.2c0,3.2,1.1,5.4,3.4,6.5c1.3,0.6,2.7,1.1,4.2,1.1h123.4l3.9,8.8h-130c-2.3,0-4.5-0.6-6.8-1.7
		C2.3,268,0,264,0,258.3V66.6c0-2.3,0.6-4.5,1.8-6.8C4.1,55.3,8,53,13.7,53h191.6l2.1,0.2c1.7,0.2,3.3,0.7,4.7,1.5
		c4.5,2.3,6.8,6.2,6.8,11.9V196.6z"/>
	<g>
		<path class="st2" d="M58.5,130.3H32v-47h26.5v6.5H39.6v12.8h17.7v6.4H39.6v14.8h18.9V130.3z"/>
	</g>
	<path class="st3" d="M119.9,236.9l-23.2-51.2l69.7-31.5l23.2,51.2L119.9,236.9z M165.5,161.4l-10.9,29l29,10.9L165.5,161.4z
		 M103.8,186.6l36.9,13.9c4.1,1.5,6.1,0.6,7.6-3.4l14-36.8L103.8,186.6z M182.4,204.6l-29-10.9c-2.2,5.7-3.6,9.6-6.2,10.8
		c-2.7,1.2-6.5-0.3-12.2-2.4l-11,29L182.4,204.6z M102.6,189.8l18.1,40l11-29L102.6,189.8z"/>
</g>
<circle class="st4" cx="207.7" cy="65" r="63.7"/>
<g>
	
		<linearGradient id="SVGID_1_" gradientUnits="userSpaceOnUse" x1="1.8974" y1="272.7448" x2="1.8262" y2="272.8704" gradientTransform="matrix(202.9347 0 0 -202.7803 -149.9885 55411.4141)">
		<stop  offset="0" style="stop-color:#FB7655"/>
		<stop  offset="0" style="stop-color:#FB7655"/>
		<stop  offset="0.41" style="stop-color:#E42B1E"/>
		<stop  offset="0.99" style="stop-color:#990000"/>
		<stop  offset="1" style="stop-color:#990000"/>
	</linearGradient>
	<path class="st5" d="M228,74.8L188.9,98l50.6-3.4l3.9-51L228,74.8z"/>
	
		<linearGradient id="SVGID_2_" gradientUnits="userSpaceOnUse" x1="2.0098" y1="273.4271" x2="1.7014" y2="273.5388" gradientTransform="matrix(60.3079 0 0 -111.7781 121.0614 30645.8984)">
		<stop  offset="0" style="stop-color:#871101"/>
		<stop  offset="0" style="stop-color:#871101"/>
		<stop  offset="0.99" style="stop-color:#911209"/>
		<stop  offset="1" style="stop-color:#911209"/>
	</linearGradient>
	<path class="st6" d="M239.6,94.5l-4.3-30l-11.8,15.6L239.6,94.5z"/>
	
		<linearGradient id="SVGID_3_" gradientUnits="userSpaceOnUse" x1="1.9228" y1="278.8226" x2="1.824" y2="279.3904" gradientTransform="matrix(188.3195 0 0 -21.9864 -134.743 6235.2319)">
		<stop  offset="0" style="stop-color:#871101"/>
		<stop  offset="0" style="stop-color:#871101"/>
		<stop  offset="0.99" style="stop-color:#911209"/>
		<stop  offset="1" style="stop-color:#911209"/>
	</linearGradient>
	<path class="st7" d="M239.6,94.5L207.8,92l-18.7,5.9L239.6,94.5z"/>
	
		<linearGradient id="SVGID_4_" gradientUnits="userSpaceOnUse" x1="3.6095" y1="273.8667" x2="3.6537" y2="273.6737" gradientTransform="matrix(65.2221 0 0 -97.0999 -47.0611 26666.127)">
		<stop  offset="0" style="stop-color:#FFFFFF"/>
		<stop  offset="0" style="stop-color:#FFFFFF"/>
		<stop  offset="0.23" style="stop-color:#E57252"/>
		<stop  offset="0.46" style="stop-color:#DE3B20"/>
		<stop  offset="0.99" style="stop-color:#A60003"/>
		<stop  offset="1" style="stop-color:#A60003"/>
	</linearGradient>
	<path class="st8" d="M189.1,97.9l8-26.1l-17.5,3.7L189.1,97.9z"/>
	
		<linearGradient id="SVGID_5_" gradientUnits="userSpaceOnUse" x1="2.2546" y1="273.2435" x2="2.2647" y2="273.0645" gradientTransform="matrix(105.3202 0 0 -106.8253 -29.2826 29245.541)">
		<stop  offset="0" style="stop-color:#FFFFFF"/>
		<stop  offset="0" style="stop-color:#FFFFFF"/>
		<stop  offset="0.23" style="stop-color:#E4714E"/>
		<stop  offset="0.56" style="stop-color:#BE1A0D"/>
		<stop  offset="0.99" style="stop-color:#A80D00"/>
		<stop  offset="1" style="stop-color:#A80D00"/>
	</linearGradient>
	<path class="st9" d="M223.4,80.2l-7.3-28.7l-21,19.6L223.4,80.2z"/>
	
		<linearGradient id="SVGID_6_" gradientUnits="userSpaceOnUse" x1="1.7463" y1="272.7733" x2="1.78" y2="272.5669" gradientTransform="matrix(94.3212 0 0 -66.4185 61.0506 18155.7227)">
		<stop  offset="0" style="stop-color:#FFFFFF"/>
		<stop  offset="0" style="stop-color:#FFFFFF"/>
		<stop  offset="0.18" style="stop-color:#E46342"/>
		<stop  offset="0.4" style="stop-color:#C82410"/>
		<stop  offset="0.99" style="stop-color:#A80D00"/>
		<stop  offset="1" style="stop-color:#A80D00"/>
	</linearGradient>
	<path class="st10" d="M241.7,51.9l-19.8-16.2l-5.5,17.8L241.7,51.9z"/>
	
		<linearGradient id="SVGID_7_" gradientUnits="userSpaceOnUse" x1="2.0129" y1="271.681" x2="2.2066" y2="271.9631" gradientTransform="matrix(70.7666 0 0 -24.3007 73.6577 6635.7607)">
		<stop  offset="0" style="stop-color:#FFFFFF"/>
		<stop  offset="0" style="stop-color:#FFFFFF"/>
		<stop  offset="0.54" style="stop-color:#C81F11"/>
		<stop  offset="0.99" style="stop-color:#BF0905"/>
		<stop  offset="1" style="stop-color:#BF0905"/>
	</linearGradient>
	<path class="st11" d="M232.5,30l-11.6,6.4l-7.3-6.5L232.5,30z"/>
	
		<linearGradient id="SVGID_8_" gradientUnits="userSpaceOnUse" x1="10.6468" y1="273.8653" x2="10.7089" y2="273.7098" gradientTransform="matrix(18.1773 0 0 -72.6448 -17.1773 19963.7637)">
		<stop  offset="0" style="stop-color:#FFFFFF"/>
		<stop  offset="0" style="stop-color:#FFFFFF"/>
		<stop  offset="0.31" style="stop-color:#DE4024"/>
		<stop  offset="0.99" style="stop-color:#BF190B"/>
		<stop  offset="1" style="stop-color:#BF190B"/>
	</linearGradient>
	<path class="st12" d="M175,84.3l4.9-8.9L176,64.8L175,84.3z"/>
	<path class="st0" d="M175.6,64.5l4,11.3l17.3-3.9l19.7-18.3l5.6-17.7l-8.8-6.2l-14.9,5.6c-4.7,4.4-13.8,13-14.1,13.2
		C184,48.6,178.4,59.4,175.6,64.5L175.6,64.5z"/>
	
		<linearGradient id="SVGID_9_" gradientUnits="userSpaceOnUse" x1="2.0035" y1="272.5197" x2="2.3388" y2="272.8649" gradientTransform="matrix(158.1624 0 0 -157.9374 -148.3454 43124.3164)">
		<stop  offset="0" style="stop-color:#BD0012"/>
		<stop  offset="0" style="stop-color:#BD0012"/>
		<stop  offset="7.000000e-02" style="stop-color:#FFFFFF"/>
		<stop  offset="0.17" style="stop-color:#FFFFFF"/>
		<stop  offset="0.27" style="stop-color:#C82F1C"/>
		<stop  offset="0.33" style="stop-color:#820C01"/>
		<stop  offset="0.46" style="stop-color:#A31601"/>
		<stop  offset="0.72" style="stop-color:#B31301"/>
		<stop  offset="0.99" style="stop-color:#E82609"/>
		<stop  offset="1" style="stop-color:#E82609"/>
	</linearGradient>
	<path class="st13" d="M189.6,44.2c10.2-10.1,23.3-16,28.3-11c5,5.1-0.3,17.4-10.5,27.5S184.3,77.1,179.3,72
		C174.2,67,179.4,54.3,189.6,44.2L189.6,44.2z"/>
	
		<linearGradient id="SVGID_10_" gradientUnits="userSpaceOnUse" x1="2.2231" y1="273.7052" x2="2.0974" y2="273.7457" gradientTransform="matrix(127.0738 0 0 -97.4086 -73.3301 26750.0684)">
		<stop  offset="0" style="stop-color:#8C0C01"/>
		<stop  offset="0" style="stop-color:#8C0C01"/>
		<stop  offset="0.54" style="stop-color:#990C00"/>
		<stop  offset="0.99" style="stop-color:#A80D0E"/>
		<stop  offset="1" style="stop-color:#A80D0E"/>
	</linearGradient>
	<path class="st14" d="M189.1,97.9l7.9-26.1l26.2,8.4C213.8,89,203.2,96.6,189.1,97.9L189.1,97.9z"/>
	
		<linearGradient id="SVGID_11_" gradientUnits="userSpaceOnUse" x1="1.8562" y1="273.1295" x2="1.7052" y2="273.25" gradientTransform="matrix(94.0112 0 0 -105.6032 62.0811 28913.0098)">
		<stop  offset="0" style="stop-color:#7E110B"/>
		<stop  offset="0" style="stop-color:#7E110B"/>
		<stop  offset="0.99" style="stop-color:#9E0C00"/>
		<stop  offset="1" style="stop-color:#9E0C00"/>
	</linearGradient>
	<path class="st15" d="M216.6,53.5l6.7,26.7c7.9-8.3,15-17.3,18.5-28.3L216.6,53.5L216.6,53.5z"/>
	
		<linearGradient id="SVGID_12_" gradientUnits="userSpaceOnUse" x1="1.8251" y1="272.4591" x2="1.7364" y2="272.5516" gradientTransform="matrix(79.7018 0 0 -81.7914 96.3546 22331.082)">
		<stop  offset="0" style="stop-color:#79130D"/>
		<stop  offset="0" style="stop-color:#79130D"/>
		<stop  offset="0.99" style="stop-color:#9E120B"/>
		<stop  offset="1" style="stop-color:#9E120B"/>
	</linearGradient>
	<path class="st16" d="M241.8,52c2.7-8.1,3.3-19.8-9.4-22L222,35.8L241.8,52L241.8,52z"/>
	<path class="st17" d="M175,84.2c0.4,13.4,10.1,13.6,14.2,13.7l-9.5-22.2L175,84.2L175,84.2z"/>
	
		<radialGradient id="SVGID_13_" cx="1.7346" cy="273.5432" r="0.1868" gradientTransform="matrix(93.1133 0 0 -48.6553 63.1192 13366.457)" gradientUnits="userSpaceOnUse">
		<stop  offset="0" style="stop-color:#A80D00"/>
		<stop  offset="0" style="stop-color:#A80D00"/>
		<stop  offset="0.99" style="stop-color:#7E0E08"/>
		<stop  offset="1" style="stop-color:#7E0E08"/>
	</radialGradient>
	<path class="st18" d="M216.6,53.6c6.1,3.7,18.3,11.3,18.6,11.4c0.4,0.2,5.3-8.3,6.4-13.1L216.6,53.6L216.6,53.6z"/>
	
		<radialGradient id="SVGID_14_" cx="2.2053" cy="274.0212" r="0.2373" gradientTransform="matrix(97.4344 0 0 -75.848 -14.3214 20864.0215)" gradientUnits="userSpaceOnUse">
		<stop  offset="0" style="stop-color:#A30C00"/>
		<stop  offset="0" style="stop-color:#A30C00"/>
		<stop  offset="0.99" style="stop-color:#800E08"/>
		<stop  offset="1" style="stop-color:#800E08"/>
	</radialGradient>
	<path class="st19" d="M197,71.7l10.6,20.4c6.2-3.4,11.1-7.5,15.6-11.9L197,71.7L197,71.7z"/>
	
		<linearGradient id="SVGID_15_" gradientUnits="userSpaceOnUse" x1="5.2754" y1="273.9181" x2="5.1319" y2="274.159" gradientTransform="matrix(40.1367 0 0 -81.143 -27.5331 22324.3672)">
		<stop  offset="0" style="stop-color:#8B2114"/>
		<stop  offset="0" style="stop-color:#8B2114"/>
		<stop  offset="0.43" style="stop-color:#9E100A"/>
		<stop  offset="0.99" style="stop-color:#B3100C"/>
		<stop  offset="1" style="stop-color:#B3100C"/>
	</linearGradient>
	<path class="st20" d="M179.6,75.7l-1.5,17.8c2.8,3.9,6.7,4.2,10.8,3.9C185.9,90.1,180,75.4,179.6,75.7L179.6,75.7z"/>
	
		<linearGradient id="SVGID_16_" gradientUnits="userSpaceOnUse" x1="1.6734" y1="272.0469" x2="1.8387" y2="271.8722" gradientTransform="matrix(78.0993 0 0 -32.6239 97.7268 8908.3213)">
		<stop  offset="0" style="stop-color:#B31000"/>
		<stop  offset="0" style="stop-color:#B31000"/>
		<stop  offset="0.44" style="stop-color:#910F08"/>
		<stop  offset="0.99" style="stop-color:#791C12"/>
		<stop  offset="1" style="stop-color:#791C12"/>
	</linearGradient>
	<path class="st21" d="M221.9,35.8l21,2.9c-1.1-4.7-4.6-7.8-10.4-8.8L221.9,35.8L221.9,35.8z"/>
</g>
</svg>
