<svg version="1.1" id="Layer_1" xmlns="http://www.w3.org/2000/svg" x="0" y="0" viewBox="0 0 272 272" style="enable-background:new 0 0 272 272" xml:space="preserve"><style>.st0{fill:#fff}.st1{fill-rule:evenodd;clip-rule:evenodd;fill:#22bae6}.st4{fill:#01579b}.st5{fill:#40c4ff}.st7{opacity:.2;fill:#fff;enable-background:new}</style><g id="BarCode"><path class="st0" d="M198 241.8c-25.3 30-105.9 24.7-105.9 24.7H5.4V60.1h209v101.1s1 60-16.4 80.6z"/><path class="st1" d="M68.3 196.6c0-20.9 7.3-38.7 22-53.4 14.6-14.7 32.4-22 53.4-22 20.7 0 38.4 7.3 53.2 22s22.1 32.4 22.1 53.4c0 20.8-7.4 38.5-22.1 53.2-14.8 14.8-32.5 22.1-53.2 22.1-21 0-38.8-7.4-53.4-22.1-14.7-14.6-22-32.4-22-53.2"/><path class="st1" d="M219 196.6h-8.8V69.5c0-3.2-1.1-5.4-3.5-6.6-.8-.4-1.8-.7-2.8-.9l-1.3-.2H16.4c-3.3 0-5.5 1.1-6.6 3.4-.6 1.3-1.1 2.8-1.1 4.2v186.1c0 3.2 1.1 5.4 3.4 6.5 1.3.6 2.7 1.1 4.2 1.1h123.4l3.9 8.8h-130c-2.3 0-4.5-.6-6.8-1.7-4.5-2.3-6.8-6.2-6.8-12V66.8c0-2.3.6-4.5 1.8-6.8 2.3-4.5 6.2-6.8 11.9-6.8h191.7l2.1.2c1.7.2 3.3.7 4.7 1.5 4.5 2.3 6.8 6.2 6.8 11.9v129.8z"/><path d="M26.5 125.6V79.3h17.4c3.6 0 6.4.5 8.5 1.4 2.1 1 3.8 2.4 5 4.4 1.2 1.9 1.8 4 1.8 6.2 0 1.9-.6 3.9-1.6 5.6-1.1 1.8-2.7 3.2-4.9 4.2 2.8.8 4.9 2.2 6.5 4.2 1.5 1.9 2.3 4.3 2.3 7.1 0 2.2-.5 4.2-1.4 6.1s-2 3.3-3.4 4.3c-1.4 1.1-3.1 1.8-5.1 2.3s-4.5.8-7.5.8l-17.6-.3zm6.2-26.9h10.1c2.8 0 4.7-.2 5.8-.6 1.5-.5 2.8-1.2 3.6-2.4.8-1.1 1.2-2.4 1.2-4.1 0-1.5-.4-2.9-1.1-4.1-.7-1.1-1.8-1.9-3.2-2.4-1.4-.4-3.7-.6-7.1-.6h-9.3v14.2zm0 21.5h11.6c1.9 0 3.4-.1 4.2-.2 1.4-.2 2.6-.6 3.6-1.3 1-.6 1.7-1.5 2.4-2.6.6-1.1.9-2.4.9-3.9 0-1.7-.4-3.2-1.3-4.5s-2.1-2.2-3.7-2.7c-1.5-.5-3.8-.8-6.8-.8H32.7v16z" style="fill:#22bae6"/><g id="Bars_4_"><path class="st0" d="M104.2 167.6h9.4v48.6h-9.4zM117.6 167.6h5.5v48.6h-5.5zM127 167.6h5.5v48.6H127zM136.2 167.6h3.6v48.6h-3.6zM141.4 167.6h5.2v48.6h-5.2zM150.7 167.6h3.2v48.6h-3.2zM160.3 167.6h5.4v48.6h-5.4zM167.4 167.2h2.7v48.6h-2.7zM174.3 167.2h5.8v48.6h-5.8zM174.3 219.9h5.8v5.4h-5.8zM160.3 219.9h9.9v5.4h-9.9zM150.7 219.9h4.9v5.4h-4.9zM127 219.9h5.5v5.4H127zM104.2 219.9h5.5v5.4h-5.5zM117.6 219.9h5.5v5.4h-5.5zM136.2 219.9h10.2v5.4h-10.2z"/></g></g><circle cx="207.7" cy="65" r="63.7" style="fill:#152331"/><path class="st4" d="m183.1 88.7-14.3-14.3c-1.7-1.7-2.8-4.2-2.8-6.6 0-1.1.6-2.8 1.1-3.9l13.2-27.5 2.8 52.3z"/><path class="st5" d="m232.1 39.2-14.3-14.3c-1.2-1.3-3.9-2.8-6-2.8-1.9 0-3.7.4-4.9 1.1l-26.4 13.2 51.6 2.8zM200.2 105.7h34.6V90.9L209 82.6l-23.7 8.3z"/><path d="M180.4 81c0 4.4.6 5.5 2.8 7.7l2.2 2.2h49.5l-24.2-27.5-30.2-26.9V81h-.1z" style="fill:#29b6f6"/><path class="st4" d="M224.4 36.4h-44l54.4 54.4h14.8v-34L232 39.2c-2.4-2.5-4.6-2.8-7.6-2.8z"/><path class="st7" d="M183.7 89.2c-2.2-2.2-2.8-4.4-2.8-8.2V37l-.6-.6v44.5c.1 3.9.1 5 3.4 8.3l1.7 1.7-1.7-1.7z"/><path style="opacity:.2;fill:#263238;enable-background:new" d="M249.1 56.2v34.1h-14.8l.5.6h14.9V56.8z"/><path class="st7" d="M232.1 39.2c-2.7-2.7-5-2.8-8.2-2.8h-43.4l.6.6H224c1.5 0 5.6-.3 8.1 2.2z"/><radialGradient id="SVGID_1_" cx="207.901" cy="65.533" r="41.83" gradientTransform="matrix(1 0 0 -1 0 129.533)" gradientUnits="userSpaceOnUse"><stop offset="0" style="stop-color:#fff;stop-opacity:.1"/><stop offset="1" style="stop-color:#fff;stop-opacity:0"/></radialGradient><path d="m249.1 56.2-17-17-14.3-14.3c-1.2-1.3-3.9-2.8-6-2.8-1.9 0-3.7.4-4.9 1.1l-26.4 13.2-13.2 27.5c-.5 1-1.1 2.7-1.1 3.9 0 2.4 1.1 4.9 2.8 6.6l13 13.1c.3.4.7.8 1.1 1.2l.6.6 1.7 1.7 14.3 14.3.6.6H235v-15h14.8V56.8l-.7-.6z" style="opacity:.2;fill:url(#SVGID_1_);enable-background:new"/></svg>