<?xml version="1.0" encoding="utf-8"?>
<!-- Generator: Adobe Illustrator 25.2.0, SVG Export Plug-In . SVG Version: 6.00 Build 0)  -->
<svg version="1.1" id="Layer_1" xmlns="http://www.w3.org/2000/svg" xmlns:xlink="http://www.w3.org/1999/xlink" x="0px" y="0px"
	 viewBox="0 0 272 272" style="enable-background:new 0 0 272 272;" xml:space="preserve">
<style type="text/css">
	.st0{fill:#FFFFFF;}
	.st1{fill-rule:evenodd;clip-rule:evenodd;fill:#22BAE6;}
	.st2{fill:#22BAE6;}
	.st3{fill:#1A4674;}
	.st4{fill:#C6C6C6;}
	.st5{clip-path:url(#SVGID_2_);}
	.st6{fill:#5C8DBC;}
	.st7{fill:#1B598E;}
</style>
<g id="Slides">
	<polygon class="st0" points="210.7,64.1 203.5,59.5 14.5,59.5 7.4,66.6 7.4,256.3 12,262.4 153.1,262.4 210.7,189.4 	"/>
	<path class="st1" d="M68.3,196.6c0-20.9,7.3-38.7,22-53.4c14.6-14.7,32.4-22,53.4-22c20.7,0,38.4,7.3,53.2,22
		c14.8,14.7,22.1,32.4,22.1,53.4c0,20.8-7.4,38.5-22.1,53.2c-14.8,14.8-32.5,22.1-53.2,22.1c-21,0-38.8-7.4-53.4-22.1
		C75.6,235.1,68.3,217.3,68.3,196.6"/>
	<path class="st1" d="M218.9,196.6h-8.8V69.4c0-3.2-1.1-5.4-3.5-6.6c-0.8-0.4-1.7-0.7-2.8-0.9l-1.3-0.2H16.4c-3.3,0-5.5,1.1-6.6,3.4
		c-0.6,1.3-1,2.8-1.1,4.2v186.1c0,3.2,1.1,5.4,3.4,6.5c1.3,0.6,2.7,1.1,4.2,1.1h123.4l3.9,8.8h-130c-2.3,0-4.5-0.6-6.8-1.7
		C2.3,268,0,264,0,258.3V66.6c0-2.3,0.6-4.5,1.8-6.8C4.1,55.3,8,53,13.7,53h191.6l2.1,0.2c1.7,0.2,3.3,0.7,4.7,1.5
		c4.5,2.3,6.8,6.2,6.8,11.9V196.6z"/>
	<g>
		<path class="st2" d="M59,112c0,4.2-1.5,7.5-4.5,9.8c-3,2.4-7.1,3.6-12.5,3.6c-5.3,0-9.7-0.8-13.1-2.5v-7.2c2.1,1,4.4,1.8,6.8,2.4
			c2.4,0.6,4.6,0.9,6.7,0.9c3.1,0,5.3-0.6,6.7-1.7c1.5-1.1,2.2-2.7,2.2-4.6c0-1.8-0.6-3.2-1.9-4.5c-1.3-1.2-4.1-2.7-8.2-4.3
			c-4.3-1.7-7.3-3.7-9.1-5.9c-1.8-2.2-2.6-4.9-2.6-8c0-3.9,1.4-7,4.1-9.2c2.8-2.3,6.5-3.4,11.2-3.4c4.5,0,8.9,1,13.4,2.9l-2.4,6.2
			c-4.2-1.8-7.9-2.6-11.2-2.6c-2.5,0-4.4,0.6-5.7,1.6c-1.3,1.1-1.9,2.5-1.9,4.3c0,1.2,0.2,2.3,0.8,3.2c0.6,0.9,1.4,1.7,2.5,2.4
			c1.2,0.8,3.3,1.8,6.3,3.1c3.4,1.5,6,2.8,7.5,4c1.5,1.2,2.8,2.7,3.5,4.2C58.6,108.1,59,109.9,59,112z"/>
	</g>
	<g id="Symbol_4_">
		<path class="st0" d="M144.1,182c0,12.7-10.2,23-22.9,23s-22.9-10.3-22.9-23c0-12.7,10.2-23,22.9-23c0.9,0,0,0,0,0v23
			c0,0,0,0,20.7-10.1C143.2,173.9,144.1,177.1,144.1,182z"/>
		<path class="st0" d="M123.9,154v22.1l20.2-9.9C144.1,166.2,139.2,153.6,123.9,154z"/>
		<rect x="151.8" y="162.3" class="st0" width="35.4" height="1.5"/>
		<rect x="151.8" y="178.9" class="st0" width="35.4" height="1.5"/>
		<rect x="151.8" y="196.6" class="st0" width="35.4" height="1.5"/>
		<rect x="109.3" y="215.6" class="st0" width="77.8" height="1.5"/>
		<rect x="109.3" y="233.1" class="st0" width="77.8" height="1.5"/>
		<rect x="98.3" y="213.7" class="st0" width="6.9" height="7.1"/>
		<rect x="98.3" y="230.3" class="st0" width="6.9" height="7.1"/>
	</g>
</g>
<g>
	<circle class="st3" cx="207.7" cy="65" r="62.7"/>
	<path class="st4" d="M207.7,3.3c34,0,61.7,27.7,61.7,61.7s-27.7,61.7-61.7,61.7S146,99.1,146,65S173.7,3.3,207.7,3.3 M207.7,1.3
		C172.5,1.3,144,29.8,144,65s28.5,63.7,63.7,63.7s63.7-28.5,63.7-63.7S242.9,1.3,207.7,1.3L207.7,1.3z"/>
</g>
<g>
	<g>
		<defs>
			<circle id="SVGID_1_" cx="207.7" cy="65" r="62.3"/>
		</defs>
		<clipPath id="SVGID_2_">
			<use xlink:href="#SVGID_1_"  style="overflow:visible;"/>
		</clipPath>
		<g class="st5">
			<path class="st6" d="M286.2,31.2c0-3-0.6-5.6-1.9-7.8s-3.1-4.1-5.7-5.5c-20.9-12-41.8-24.1-62.7-36.1c-5.6-3.3-11.1-3.1-16.7,0.2
				c-8.3,4.9-50,28.8-62.4,35.9c-5.1,3-7.6,7.5-7.6,13.4c0,24.2,0,48.5,0,72.7c0,2.9,0.6,5.5,1.8,7.7c1.3,2.3,3.2,4.2,5.8,5.7
				c12.4,7.2,54.1,31,62.4,35.9c5.6,3.3,11.1,3.4,16.7,0.2c20.9-12.1,41.8-24.1,62.7-36.1c2.6-1.5,4.5-3.4,5.8-5.7
				c1.2-2.2,1.8-4.8,1.8-7.7C286.2,103.8,286.2,55.4,286.2,31.2"/>
			<path class="st3" d="M207.9,67.3L131,111.6c1.3,2.3,3.2,4.2,5.8,5.7c12.4,7.2,54.1,31,62.4,35.9c5.6,3.3,11.1,3.4,16.7,0.2
				c20.9-12.1,41.8-24.1,62.7-36.1c2.6-1.5,4.5-3.4,5.8-5.7L207.9,67.3"/>
			<path class="st3" d="M185.2,80.4c4.5,7.8,12.9,13.1,22.5,13.1c9.7,0,18.2-5.3,22.6-13.2l-22.4-13L185.2,80.4"/>
			<path class="st7" d="M286.2,31.2c0-3-0.6-5.6-1.9-7.8L208,67.3l76.4,44.3c1.2-2.2,1.8-4.8,1.8-7.7
				C286.2,103.8,286.2,55.4,286.2,31.2"/>
		</g>
	</g>
</g>
<g>
	<path class="st0" d="M259.6,67.1h-4.3v4.3H251v-4.3h-4.3v-4.3h4.3v-4.3h4.3v4.3h4.3V67.1"/>
	<path class="st0" d="M243.8,67.1h-4.3v4.3h-4.3v-4.3h-4.3v-4.3h4.3v-4.3h4.3v4.3h4.3V67.1"/>
	<path class="st0" d="M222.2,74.2c-3.2,5.7-9.3,9.6-16.4,9.6c-7,0-13.1-3.8-16.3-9.5c-1.6-2.7-2.5-5.9-2.5-9.3
		c0-10.4,8.4-18.8,18.8-18.8c6.9,0,13,3.8,16.2,9.4l16.4-9.4c-6.5-11.3-18.7-18.8-32.6-18.8c-20.8,0-37.7,16.9-37.7,37.7
		c0,6.8,1.8,13.2,5,18.8c6.5,11.3,18.7,18.9,32.7,18.9s26.2-7.7,32.7-19L222.2,74.2"/>
</g>
</svg>
