<?xml version="1.0" encoding="utf-8"?>
<!-- Generator: Adobe Illustrator 25.2.0, SVG Export Plug-In . SVG Version: 6.00 Build 0)  -->
<svg version="1.1" id="Layer_1" xmlns="http://www.w3.org/2000/svg" xmlns:xlink="http://www.w3.org/1999/xlink" x="0px" y="0px"
	 viewBox="0 0 272 272" style="enable-background:new 0 0 272 272;" xml:space="preserve">
<style type="text/css">
	.st0{fill-rule:evenodd;clip-rule:evenodd;fill:#FFFFFF;}
	.st1{fill-rule:evenodd;clip-rule:evenodd;fill:#22BAE6;}
	.st2{fill:#22BAE6;}
	.st3{fill:#DBDBDD;}
	.st4{fill:#EFEDF0;}
	.st5{fill:#FFFFFF;}
	.st6{fill:#672572;}
</style>
<g id="_x33_D">
	<path id="XMLID_4_" class="st0" d="M143.6,121.2c-20.9,0-38.7,7.4-53.3,22.1c-14.7,14.6-22.1,32.4-22.1,53.3s7.4,38.7,22.1,53.2
		c5.4,5.5,11.3,10,17.5,13.5H16.4c-1.5-0.1-2.8-0.5-4.2-1.2c-2.3-1.1-3.4-3.2-3.4-6.4V69.4c0.2-1.6,0.6-3.1,1.1-4.2
		c1.2-2.3,3.4-3.4,6.6-3.4h186.1l1.2,0.2c1.1,0.2,2,0.5,2.9,0.8c2.4,1.1,3.6,3.2,3.6,6.6v91.5c-3.5-6.3-7.9-12.2-13.5-17.7
		C181.9,128.6,164.2,121.2,143.6,121.2z"/>
	<g>
		<path id="XMLID_1_" class="st1" d="M143.6,121.2c20.6,0,38.4,7.4,53.1,22.1c5.5,5.4,10,11.4,13.4,17.7V69.4c0-3.3-1.2-5.5-3.6-6.6
			c-0.8-0.3-1.8-0.6-2.9-0.8l-1.2-0.2h-186c-3.2,0-5.4,1.1-6.6,3.4c-0.6,1.2-0.9,2.6-1.1,4.2v186c0,3.2,1.1,5.4,3.4,6.4
			c1.4,0.7,2.8,1.1,4.2,1.2h91.5c-6.3-3.5-12.2-7.9-17.5-13.5c-14.7-14.5-22.1-32.3-22.1-53.2s7.4-38.7,22.1-53.3
			C104.9,128.6,122.7,121.2,143.6,121.2z M207.3,53.2c2,0.4,3.6,0.9,4.6,1.5c4.5,2.2,6.8,6.2,6.8,11.9v129.9
			c0,20.8-7.4,38.5-22.2,53.2C181.8,264.5,164,272,143.4,272H13.6c-2.2,0-4.5-0.6-6.8-1.6C2.3,268,0,264,0,258.3V66.6
			c0-2.3,0.6-4.5,1.8-6.8C4,55.3,7.9,53,13.7,53h191.5L207.3,53.2z"/>
		<g>
			<path class="st2" d="M55.3,91.8c0,3-0.9,5.5-2.6,7.5c-1.8,2-4.2,3.3-7.4,4.1v0.2c3.8,0.5,6.6,1.7,8.6,3.6
				c1.9,1.9,2.8,4.4,2.8,7.5c0,4.5-1.6,8.1-4.9,10.5c-3.2,2.5-7.8,3.7-13.8,3.7c-5.3,0-9.7-0.9-13.3-2.6v-6.8c2,1,4.1,1.8,6.4,2.3
				c2.3,0.6,4.5,0.8,6.5,0.8c3.6,0,6.4-0.6,8.3-2c1.9-1.4,2.8-3.5,2.8-6.3c0-2.5-1-4.4-3-5.6s-5.2-1.8-9.5-1.8h-4.1v-6.2h4.2
				c7.5,0,11.4-2.6,11.4-7.9c0-2-0.6-3.6-1.9-4.7c-1.3-1.1-3.2-1.6-5.8-1.6c-1.8,0-3.5,0.2-5.2,0.7s-3.6,1.5-5.9,3l-3.7-5.4
				c4.4-3.2,9.4-4.8,15.2-4.8c4.8,0,8.5,1.1,11.2,3.1C54,85.3,55.3,88.1,55.3,91.8z"/>
			<path class="st2" d="M99.8,104.1c0,7.9-2.2,13.9-6.6,18s-10.6,6.2-18.8,6.2H61.2V80.8h14.7c7.5,0,13.5,2,17.6,6.1
				C97.7,91,99.8,96.7,99.8,104.1z M91.6,104.4c0-11.4-5.4-17-16-17h-6.7v34.5h5.5C85.9,121.8,91.6,116,91.6,104.4z"/>
		</g>
	</g>
	<g id="Box_1_">
		<polygon class="st3" points="102.2,158.2 147.1,168.7 190.4,158.2 146.3,145.4 		"/>
		<polygon class="st4" points="147.1,244.1 102.2,232.1 102.2,158.2 147.1,168.7 		"/>
		<polygon class="st5" points="190.4,158.2 190.4,233.2 147.1,244.1 147.1,168.7 		"/>
	</g>
</g>
<circle class="st6" cx="207.7" cy="65" r="63.7"/>
<g id="XMLID_2_">
	<path id="XMLID_3_" class="st5" d="M225.9,47.5c0.6-0.5,0.9-1.2,0.9-2.1c0-0.8-0.2-1.4-0.7-1.9c-0.4-0.4-1-0.8-1.9-1.1
		c-0.8-0.3-1.3-0.6-1.5-0.8c-0.3-0.2-0.4-0.6-0.4-1s0.2-0.8,0.5-1c0.3-0.3,0.8-0.4,1.3-0.4c0.9,0,1.6,0.2,2.3,0.7v-1.6
		c-0.6-0.3-1.4-0.5-2.2-0.5c-1,0-1.9,0.3-2.6,0.8c-0.7,0.6-1,1.3-1,2.1s0.2,1.4,0.6,1.8c0.4,0.4,1,0.8,1.8,1.1
		c0.8,0.4,1.4,0.7,1.7,0.9c0.3,0.3,0.4,0.6,0.4,1c0,0.9-0.6,1.4-1.9,1.4c-1,0-1.8-0.3-2.6-1v1.7c0.7,0.4,1.6,0.6,2.5,0.6
		C224.3,48.4,225.2,48.1,225.9,47.5z"/>
	<path id="XMLID_29_" class="st5" d="M241.1,48.1h1.6v-8.7h2.4V38h-2.4v-1.6c0-1.4,0.6-2.1,1.7-2.1c0.4,0,0.8,0.1,1.1,0.3v-1.5
		c-0.3-0.1-0.7-0.2-1.2-0.2c-0.9,0-1.6,0.3-2.2,0.8c-0.7,0.6-1,1.5-1,2.6V38h-1.7v1.4h1.7L241.1,48.1L241.1,48.1z"/>
	<path id="XMLID_30_" class="st5" d="M189.5,35.4c0.3,0,0.5-0.1,0.8-0.3c0.2-0.2,0.3-0.5,0.3-0.8s-0.1-0.5-0.3-0.7s-0.5-0.3-0.8-0.3
		s-0.5,0.1-0.7,0.3s-0.3,0.5-0.3,0.7c0,0.3,0.1,0.6,0.3,0.8C189,35.3,189.2,35.4,189.5,35.4z"/>
	<path id="XMLID_31_" class="st5" d="M197.6,48.4c1.1,0,2-0.2,2.8-0.7v-1.5c-0.8,0.6-1.6,0.9-2.5,0.9c-1,0-1.9-0.3-2.5-1
		s-0.9-1.6-0.9-2.8s0.3-2.2,1-2.9c0.6-0.7,1.5-1.1,2.5-1.1c0.9,0,1.7,0.3,2.4,0.8v-1.7c-0.7-0.3-1.5-0.5-2.3-0.5
		c-1.6,0-2.9,0.5-3.8,1.5c-1,1-1.4,2.4-1.4,4c0,1.5,0.4,2.7,1.3,3.6C195,47.9,196.2,48.4,197.6,48.4z"/>
	<path id="XMLID_34_" class="st5" d="M255.2,38.8h0.3c0.2,0,0.4,0.2,0.6,0.6l0.4,0.8h0.6l-0.5-0.9c-0.2-0.4-0.4-0.6-0.6-0.6l0,0
		c0.3-0.1,0.5-0.2,0.6-0.3c0.2-0.2,0.2-0.4,0.2-0.6c0-0.3-0.1-0.5-0.3-0.6c-0.2-0.2-0.5-0.3-1-0.3h-1v3.4h0.5v-1.5
		C255,38.8,255.2,38.8,255.2,38.8z M255.2,37.2h0.4c0.3,0,0.5,0.1,0.6,0.2c0.1,0.1,0.2,0.2,0.2,0.4c0,0.4-0.2,0.6-0.7,0.6h-0.5V37.2
		z"/>
	<path id="XMLID_35_" class="st5" d="M247.7,45.4c0,2,0.9,3,2.6,3c0.6,0,1.1-0.1,1.5-0.3v-1.4c-0.3,0.2-0.6,0.3-1,0.3
		c-0.5,0-0.9-0.1-1.2-0.4c-0.2-0.3-0.3-0.8-0.3-1.4v-5.7h2.5V38h-2.5v-3c-0.6,0.2-1.1,0.4-1.6,0.5V38H246v1.4h1.7V45.4z"/>
	<path id="XMLID_40_" class="st5" d="M255.8,41.2c0.8,0,1.4-0.3,1.9-0.8s0.8-1.1,0.8-1.9c0-0.8-0.3-1.4-0.8-1.9s-1.1-0.7-1.9-0.7
		c-0.8,0-1.4,0.3-1.9,0.8s-0.8,1.2-0.8,1.9c0,0.8,0.3,1.4,0.8,1.9C254.3,41,255,41.2,255.8,41.2z M254.1,36.9c0.5-0.5,1-0.7,1.7-0.7
		s1.2,0.2,1.7,0.7s0.7,1,0.7,1.7s-0.2,1.3-0.7,1.7c-0.5,0.5-1,0.7-1.7,0.7s-1.2-0.2-1.7-0.7s-0.7-1-0.7-1.7
		C253.4,37.9,253.6,37.3,254.1,36.9z"/>
	<rect id="XMLID_41_" x="188.7" y="38" class="st5" width="1.6" height="10.1"/>
	<path id="XMLID_44_" class="st5" d="M213.7,48.4c1.5,0,2.8-0.5,3.7-1.5s1.4-2.3,1.4-3.9c0-1.6-0.4-2.9-1.3-3.9
		c-0.8-0.9-2-1.4-3.5-1.4s-2.8,0.4-3.7,1.3c-1,1-1.5,2.3-1.5,4.1c0,1.5,0.4,2.8,1.3,3.7C211,47.9,212.2,48.4,213.7,48.4z
		 M211.4,40.1c0.6-0.7,1.4-1,2.4-1s1.8,0.3,2.4,1c0.6,0.7,0.9,1.7,0.9,3c0,1.2-0.3,2.2-0.8,2.9c-0.6,0.7-1.4,1-2.4,1s-1.8-0.3-2.5-1
		c-0.6-0.7-0.9-1.6-0.9-2.8C210.5,41.8,210.8,40.8,211.4,40.1z"/>
	<path id="XMLID_47_" class="st5" d="M237,46.9c0.9-1,1.4-2.3,1.4-3.9c0-1.6-0.4-2.9-1.3-3.9c-0.8-0.9-2-1.4-3.5-1.4
		s-2.8,0.4-3.7,1.3c-1,1-1.5,2.3-1.5,4.1c0,1.5,0.4,2.8,1.3,3.7c0.9,1,2.1,1.5,3.6,1.5C234.9,48.4,236.1,47.9,237,46.9z M230.1,43.1
		c0-1.3,0.3-2.3,1-3c0.6-0.7,1.4-1,2.4-1s1.8,0.3,2.4,1c0.6,0.7,0.9,1.7,0.9,3c0,1.2-0.3,2.2-0.8,2.9c-0.6,0.7-1.4,1-2.4,1
		s-1.8-0.3-2.5-1S230.1,44.3,230.1,43.1z"/>
	<polygon id="XMLID_48_" class="st5" points="213.2,73 226.6,73 226.6,69.1 213.2,69.1 213.2,56.7 227.7,56.7 227.7,52.8 
		208.8,52.8 208.8,89.9 228.5,89.9 228.5,86 213.2,86 	"/>
	<polygon id="XMLID_49_" class="st5" points="232.6,56.7 243.3,56.7 243.3,89.9 247.7,89.9 247.7,56.7 258.4,56.7 258.4,52.8 
		232.6,52.8 	"/>
	<path id="XMLID_50_" class="st5" d="M161.4,84.7c-0.8,0-1.5,0.3-2,0.9c-0.6,0.6-0.8,1.3-0.8,2.1c0,0.8,0.3,1.5,0.8,2.1
		c0.6,0.6,1.2,0.9,2,0.9s1.5-0.3,2.1-0.9s0.9-1.3,0.9-2.1c0-0.8-0.3-1.5-0.9-2.1C162.9,85,162.3,84.7,161.4,84.7z"/>
	<path id="XMLID_51_" class="st5" d="M205.6,38.4c-0.5,0.4-0.9,1-1.1,1.7l0,0V38h-1.6v10.1h1.6V43c0-1.2,0.3-2.1,0.8-2.8
		c0.4-0.6,1-0.9,1.7-0.9c0.5,0,1,0.1,1.2,0.3V38c-0.2-0.1-0.5-0.1-1-0.1C206.6,37.8,206,38,205.6,38.4z"/>
	<polygon id="XMLID_52_" class="st5" points="172.2,35.9 172.3,35.9 177.5,48.1 178.3,48.1 183.6,35.9 183.6,35.9 183.5,48.1 
		185.2,48.1 185.2,34 183.1,34 178,45.5 177.9,45.5 172.9,34 170.7,34 170.7,48.1 172.3,48.1 	"/>
	<polygon id="XMLID_53_" class="st5" points="196.3,84.2 176.4,52.8 170.7,52.8 170.7,89.9 175.1,89.9 175.1,58.1 195.3,89.9 
		200.6,89.9 200.6,52.8 196.3,52.8 	"/>
</g>
</svg>
