<?xml version="1.0" encoding="utf-8"?>
<!-- Generator: Adobe Illustrator 25.2.0, SVG Export Plug-In . SVG Version: 6.00 Build 0)  -->
<svg version="1.1" id="Layer_1" xmlns="http://www.w3.org/2000/svg" xmlns:xlink="http://www.w3.org/1999/xlink" x="0px" y="0px"
	 viewBox="0 0 272 272" style="enable-background:new 0 0 272 272;" xml:space="preserve">
<style type="text/css">
	.st0{fill-rule:evenodd;clip-rule:evenodd;fill:#FFFFFF;}
	.st1{fill-rule:evenodd;clip-rule:evenodd;fill:#22BAE6;}
	.st2{fill:#22BAE6;}
	.st3{fill:#FFFFFF;}
	.st4{fill:#F7DF1E;}
</style>
<g id="Imaging">
	<path id="XMLID_4_" class="st0" d="M143.6,121.2c-20.9,0-38.7,7.4-53.3,22.1c-14.7,14.6-22.1,32.4-22.1,53.3s7.4,38.7,22.1,53.2
		c5.4,5.5,11.3,10,17.5,13.5H16.4c-1.5-0.1-2.8-0.5-4.2-1.2c-2.3-1.1-3.4-3.2-3.4-6.4V69.4c0.2-1.6,0.6-3.1,1.1-4.2
		c1.2-2.3,3.4-3.4,6.6-3.4h186.1l1.2,0.2c1.1,0.2,2,0.5,2.9,0.8c2.4,1.1,3.6,3.2,3.6,6.6v91.5c-3.5-6.3-7.9-12.2-13.5-17.7
		C181.9,128.6,164.2,121.2,143.6,121.2z"/>
	<path id="XMLID_3_" class="st1" d="M143.6,121.2c20.6,0,38.4,7.4,53.1,22.1c5.5,5.4,10,11.4,13.4,17.7V69.4c0-3.3-1.2-5.5-3.6-6.6
		c-0.8-0.3-1.8-0.6-2.9-0.8l-1.2-0.2h-186c-3.2,0-5.4,1.1-6.6,3.4c-0.6,1.2-0.9,2.6-1.1,4.2v186c0,3.2,1.1,5.4,3.4,6.4
		c1.4,0.7,2.8,1.1,4.2,1.2h91.5c-6.3-3.5-12.2-7.9-17.5-13.5c-14.7-14.5-22.1-32.3-22.1-53.2s7.4-38.7,22.1-53.3
		C104.9,128.6,122.7,121.2,143.6,121.2z M207.3,53.2c2,0.4,3.6,0.9,4.6,1.5c4.5,2.2,6.8,6.2,6.8,11.9v129.9
		c0,20.8-7.4,38.5-22.2,53.2C181.8,264.5,164,272,143.4,272H13.6c-2.2,0-4.5-0.6-6.8-1.6C2.3,268,0,264,0,258.3V66.6
		c0-2.3,0.6-4.5,1.8-6.8C4,55.3,7.9,53,13.7,53h191.5L207.3,53.2z"/>
	<g>
		<path class="st2" d="M29.3,123.6V76.4h5.5v47.4L29.3,123.6L29.3,123.6z"/>
	</g>
	<g>
		<g>
			<path class="st3" d="M180.2,170.6v49.1h-75.6v-49.1H180.2 M186.7,164.2H98.2v62h88.6L186.7,164.2L186.7,164.2z"/>
		</g>
		<path class="st0" d="M120.3,195.2L120.3,195.2c-5.1,0-9.3-4.2-9.3-9.3l0,0c0-5.1,4.2-9.3,9.3-9.3l0,0c5.1,0,9.3,4.2,9.3,9.3l0,0
			C129.6,191,125.5,195.2,120.3,195.2z"/>
		<polygon class="st0" points="99.1,224.4 140.3,189.9 152.4,205 166.5,195.2 183.4,219.6 183.4,223.8 		"/>
	</g>
</g>
<g>
	<circle class="st4" cx="207.7" cy="65" r="62.7"/>
	<path class="st4" d="M207.7,3.3c34,0,61.7,27.7,61.7,61.7s-27.7,61.7-61.7,61.7S146,99.1,146,65S173.7,3.3,207.7,3.3 M207.7,1.3
		C172.5,1.3,144,29.8,144,65s28.5,63.7,63.7,63.7s63.7-28.5,63.7-63.7S242.9,1.3,207.7,1.3L207.7,1.3z"/>
</g>
<g>
	<path d="M161.2,84.7l10-6.1c1.9,3.4,3.7,6.3,7.9,6.3c4,0,6.6-1.6,6.6-7.7V35.4H198v42c0,12.7-7.5,18.5-18.4,18.5
		C169.9,96,164.1,90.9,161.2,84.7"/>
	<path d="M204.7,83.4l10-5.8c2.6,4.3,6.1,7.5,12.1,7.5c5.1,0,8.3-2.5,8.3-6.1c0-4.2-3.3-5.7-9-8.2l-3.1-1.3
		c-8.9-3.8-14.8-8.5-14.8-18.5c0-9.2,7-16.3,18-16.3c7.8,0,13.4,2.7,17.5,9.8l-9.6,6.1c-2.1-3.8-4.4-5.3-7.9-5.3
		c-3.6,0-5.9,2.3-5.9,5.3c0,3.7,2.3,5.2,7.6,7.5l3.1,1.3c10.5,4.5,16.3,9,16.3,19.3c0,11.1-8.7,17.1-20.4,17.1
		C215.7,96,208.3,90.5,204.7,83.4"/>
</g>
</svg>
