<?xml version="1.0" encoding="utf-8"?>
<!-- Generator: Adobe Illustrator 25.2.0, SVG Export Plug-In . SVG Version: 6.00 Build 0)  -->
<svg version="1.1" id="Layer_1" xmlns="http://www.w3.org/2000/svg" xmlns:xlink="http://www.w3.org/1999/xlink" x="0px" y="0px"
	 viewBox="0 0 272 272" style="enable-background:new 0 0 272 272;" xml:space="preserve">
<style type="text/css">
	.st0{fill-rule:evenodd;clip-rule:evenodd;fill:#FFFFFF;}
	.st1{fill-rule:evenodd;clip-rule:evenodd;fill:#22BAE6;}
	.st2{fill:#22BAE6;}
	.st3{fill:#FFFFFF;}
	.st4{fill:#C1BC30;}
</style>
<g id="Imaging">
	<path id="XMLID_4_" class="st0" d="M143.6,121.2c-20.9,0-38.7,7.4-53.3,22.1c-14.7,14.6-22.1,32.4-22.1,53.3s7.4,38.7,22.1,53.2
		c5.4,5.5,11.3,10,17.5,13.5H16.4c-1.5-0.1-2.8-0.5-4.2-1.2c-2.3-1.1-3.4-3.2-3.4-6.4V69.4c0.2-1.6,0.6-3.1,1.1-4.2
		c1.2-2.3,3.4-3.4,6.6-3.4h186.1l1.2,0.2c1.1,0.2,2,0.5,2.9,0.8c2.4,1.1,3.6,3.2,3.6,6.6v91.5c-3.5-6.3-7.9-12.2-13.5-17.7
		C181.9,128.6,164.2,121.2,143.6,121.2z"/>
	<path id="XMLID_3_" class="st1" d="M143.6,121.2c20.6,0,38.4,7.4,53.1,22.1c5.5,5.4,10,11.4,13.4,17.7V69.4c0-3.3-1.2-5.5-3.6-6.6
		c-0.8-0.3-1.8-0.6-2.9-0.8l-1.2-0.2h-186c-3.2,0-5.4,1.1-6.6,3.4c-0.6,1.2-0.9,2.6-1.1,4.2v186c0,3.2,1.1,5.4,3.4,6.4
		c1.4,0.7,2.8,1.1,4.2,1.2h91.5c-6.3-3.5-12.2-7.9-17.5-13.5c-14.7-14.5-22.1-32.3-22.1-53.2s7.4-38.7,22.1-53.3
		C104.9,128.6,122.7,121.2,143.6,121.2z M207.3,53.2c2,0.4,3.6,0.9,4.6,1.5c4.5,2.2,6.8,6.2,6.8,11.9v129.9
		c0,20.8-7.4,38.5-22.2,53.2C181.8,264.5,164,272,143.4,272H13.6c-2.2,0-4.5-0.6-6.8-1.6C2.3,268,0,264,0,258.3V66.6
		c0-2.3,0.6-4.5,1.8-6.8C4,55.3,7.9,53,13.7,53h191.5L207.3,53.2z"/>
	<g>
		<path class="st2" d="M29.3,123.6V76.4h5.5v47.4L29.3,123.6L29.3,123.6z"/>
	</g>
	<g>
		<g>
			<path class="st3" d="M180.2,170.6v49.1h-75.6v-49.1H180.2 M186.7,164.2H98.2v62h88.6L186.7,164.2L186.7,164.2z"/>
		</g>
		<path class="st0" d="M120.3,195.2L120.3,195.2c-5.1,0-9.3-4.2-9.3-9.3l0,0c0-5.1,4.2-9.3,9.3-9.3l0,0c5.1,0,9.3,4.2,9.3,9.3l0,0
			C129.6,191,125.5,195.2,120.3,195.2z"/>
		<polygon class="st0" points="99.1,224.4 140.3,189.9 152.4,205 166.5,195.2 183.4,219.6 183.4,223.8 		"/>
	</g>
</g>
<circle class="st4" cx="207.7" cy="65" r="63.7"/>
<g>
	<path class="st3" d="M174.4,48.5c-3.2,0-5.8,2.6-5.8,5.8v24.1c0,3.2,2.6,5.8,5.8,5.8s5.8-2.6,5.8-5.8V54.3
		C180.2,51,177.6,48.5,174.4,48.5L174.4,48.5z M241.8,48.5c-3.2,0-5.8,2.6-5.8,5.8v24.1c0,3.2,2.6,5.8,5.8,5.8s5.8-2.6,5.8-5.8V54.3
		C247.5,51,245,48.5,241.8,48.5L241.8,48.5z"/>
	<path class="st3" d="M198.4,75.9c-3.2,0-5.8,2.6-5.8,5.8v24.1c0,3.2,2.6,5.8,5.8,5.8s5.8-2.6,5.8-5.8V81.7
		C204.2,78.5,201.7,75.9,198.4,75.9L198.4,75.9z M217.7,75.9c-3.2,0-5.8,2.6-5.8,5.8v24.1c0,3.2,2.6,5.8,5.8,5.8s5.8-2.6,5.8-5.8
		V81.7C223.5,78.5,220.9,75.9,217.7,75.9L217.7,75.9z"/>
	<path class="st3" d="M192.1,18.2c-0.1,0-0.3,0-0.4,0.1c-0.4,0.2-0.5,0.7-0.3,1.1l4.1,7.4c-7.8,4.1-13.1,11.8-13.1,20.7h51.5
		c0-8.9-5.3-16.6-13.1-20.7l4.1-7.4c0.2-0.4,0.1-0.9-0.3-1.1c-0.1-0.1-0.3-0.1-0.4-0.1c-0.3,0-0.6,0.1-0.7,0.4l-4.1,7.4
		c-3.4-1.5-7.2-2.3-11.1-2.3s-7.8,0.8-11.1,2.3l-4.1-7.4C192.6,18.3,192.4,18.2,192.1,18.2L192.1,18.2z M182.3,49.5v37.3
		c0,3.5,2.8,6.2,6.2,6.2h39.1c3.5,0,6.2-2.8,6.2-6.2V49.5H182.3L182.3,49.5z"/>
	<path class="st4" d="M196.2,33.7c-1.2,0-2.2,1-2.2,2.2s1,2.2,2.2,2.2s2.2-1,2.2-2.2C198.3,34.7,197.4,33.7,196.2,33.7L196.2,33.7z
		 M220,33.7c-1.2,0-2.2,1-2.2,2.2s1,2.2,2.2,2.2s2.2-1,2.2-2.2C222.1,34.7,221.1,33.7,220,33.7L220,33.7z"/>
</g>
</svg>
