<?xml version="1.0" encoding="utf-8"?>
<!-- Generator: Adobe Illustrator 25.2.0, SVG Export Plug-In . SVG Version: 6.00 Build 0)  -->
<svg version="1.1" id="Layer_1" xmlns="http://www.w3.org/2000/svg" xmlns:xlink="http://www.w3.org/1999/xlink" x="0px" y="0px"
	 viewBox="0 0 272 272" style="enable-background:new 0 0 272 272;" xml:space="preserve">
<style type="text/css">
	.st0{fill-rule:evenodd;clip-rule:evenodd;fill:#FFFFFF;}
	.st1{fill-rule:evenodd;clip-rule:evenodd;fill:#22BAE6;}
	.st2{fill:#22BAE6;}
	.st3{fill:#FFFFFF;}
	.st4{fill:#4F5C93;}
</style>
<g id="Cloud">
	<path id="XMLID_8_" class="st0" d="M143.7,121.1c-20.9,0-38.7,7.4-53.3,22.1c-14.7,14.6-22.1,32.4-22.1,53.3s7.4,38.7,22.1,53.2
		c5.4,5.5,11.3,10,17.5,13.5H16.4c-1.5-0.1-2.8-0.5-4.2-1.2c-2.3-1.1-3.4-3.2-3.4-6.4V69.2c0.2-1.6,0.6-3.1,1.1-4.2
		c1.2-2.3,3.4-3.4,6.6-3.4h186.2l1.2,0.2c1.1,0.2,2,0.5,2.9,0.8c2.4,1.1,3.6,3.2,3.6,6.6v91.6c-3.5-6.3-8-12.3-13.5-17.7
		C182,128.5,164.3,121.1,143.7,121.1z"/>
	<g>
		<path id="XMLID_2_" class="st1" d="M143.7,121.1c20.6,0,38.4,7.4,53.1,22.1c5.5,5.4,10,11.4,13.4,17.7V69.2c0-3.3-1.2-5.5-3.6-6.6
			c-0.8-0.3-1.8-0.6-2.9-0.8l-1.2-0.2H16.4c-3.2,0-5.4,1.1-6.6,3.4c-0.6,1.2-0.9,2.6-1.1,4.2v186.1c0,3.2,1.1,5.4,3.4,6.4
			c1.4,0.7,2.8,1.1,4.2,1.2h91.5c-6.3-3.5-12.2-8-17.5-13.5c-14.7-14.5-22.1-32.3-22.1-53.2s7.4-38.7,22.1-53.3
			C105,128.5,122.8,121.1,143.7,121.1z M207.5,53.1c2,0.4,3.6,0.9,4.6,1.5c4.5,2.2,6.8,6.2,6.8,11.9v130c0,20.9-7.4,38.5-22.2,53.2
			c-14.8,14.8-32.5,22.2-53.1,22.2H13.6c-2.2,0-4.5-0.6-6.8-1.6C2.3,268,0,264,0,258.3V66.5c0-2.3,0.6-4.5,1.8-6.8
			C4,55.1,8,52.9,13.7,52.9h191.6L207.5,53.1z"/>
		<g>
			<path class="st2" d="M61.7,128.2h-7.8v-21.4H32v21.4h-7.8V80.7H32v19.4h21.9V80.7h7.8V128.2L61.7,128.2z"/>
		</g>
	</g>
	<g id="shape">
		<path class="st3" d="M85.6,196.3l38.4-19.8v5.7l-32.4,16.2v0.2l32.4,16.2v5.7l-38.4-19.8C85.6,200.7,85.6,196.3,85.6,196.3z"/>
		<path class="st3" d="M129.4,223.9l23.1-60h5.6l-23.2,60H129.4z"/>
		<path class="st3" d="M201.7,200.8l-38.4,19.7v-5.7l32.6-16.2v-0.2l-32.6-16.2v-5.7l38.4,19.7V200.8z"/>
	</g>
</g>
<circle class="st4" cx="207.7" cy="65" r="63.7"/>
<g>
	<path class="st3" d="M176.5,56.8c3.3,0,5.4,0.6,6.5,1.8s1.3,3.3,0.8,6.2c-0.6,3-1.7,5.2-3.4,6.5s-4.2,1.9-7.7,1.9h-5.2l3.2-16.4
		C170.7,56.8,176.5,56.8,176.5,56.8z M155.7,89.8h8.5l2-10.4h7.3c3.3,0,5.9-0.3,8-1s4-1.8,5.7-3.4c1.5-1.3,2.6-2.8,3.5-4.4
		s1.5-3.3,1.9-5.2c0.9-4.6,0.2-8.2-2-10.9c-2.3-2.6-5.9-3.9-10.8-3.9h-16.4L155.7,89.8z"/>
	<path class="st3" d="M198.9,40.2h8.5l-2,10.4h7.6c4.8,0,8,0.8,9.8,2.5s2.3,4.4,1.6,8.1l-3.5,18.2h-8.6l3.4-17.4
		c0.4-2,0.2-3.3-0.4-4c-0.6-0.7-2.1-1.1-4.2-1.1h-6.8l-4.4,22.5h-8.5L198.9,40.2z"/>
	<path class="st3" d="M243.2,56.8c3.3,0,5.4,0.6,6.5,1.8s1.3,3.3,0.8,6.2c-0.6,3-1.7,5.2-3.4,6.5s-4.2,1.9-7.7,1.9h-5.2l3.2-16.4
		C237.4,56.8,243.2,56.8,243.2,56.8z M222.4,89.8h8.5l2-10.4h7.3c3.3,0,5.9-0.3,8-1s4-1.8,5.7-3.4c1.5-1.3,2.6-2.8,3.5-4.4
		s1.5-3.3,1.9-5.2c0.9-4.6,0.2-8.2-2-10.9c-2.3-2.6-5.9-3.9-10.8-3.9H230L222.4,89.8z"/>
</g>
</svg>
