<?xml version="1.0" encoding="utf-8"?>
<!-- Generator: Adobe Illustrator 25.2.0, SVG Export Plug-In . SVG Version: 6.00 Build 0)  -->
<svg version="1.1" id="Layer_1" xmlns="http://www.w3.org/2000/svg" xmlns:xlink="http://www.w3.org/1999/xlink" x="0px" y="0px"
	 viewBox="0 0 272 272" style="enable-background:new 0 0 272 272;" xml:space="preserve">
<style type="text/css">
	.st0{fill:#FFFFFF;}
	.st1{fill-rule:evenodd;clip-rule:evenodd;fill:#22BAE6;}
	.st2{fill:#22BAE6;}
	.st3{fill-rule:evenodd;clip-rule:evenodd;fill:#FCFCFB;}
	.st4{fill:#DADADA;}
	.st5{fill:url(#SVGID_1_);}
	.st6{fill:url(#SVGID_2_);}
</style>
<g id="CLoud">
	<path class="st0" d="M198.1,241.8c-25.3,30-106,24.7-106,24.7H5.4V59.9h209.2v101.2C214.5,161.1,215.5,221.2,198.1,241.8z"/>
	<g>
		<path class="st1" d="M68.3,196.5c0-20.9,7.3-38.7,22-53.4c14.6-14.7,32.4-22,53.4-22c20.7,0,38.5,7.3,53.2,22
			c14.8,14.7,22.2,32.5,22.2,53.4c0,20.9-7.4,38.5-22.2,53.2c-14.8,14.8-32.5,22.2-53.2,22.2c-21,0-38.8-7.4-53.4-22.2
			C75.6,235.2,68.3,217.4,68.3,196.5"/>
		<path class="st1" d="M219.2,196.5h-8.8V69.3c0-3.2-1.1-5.4-3.5-6.6c-0.8-0.4-1.8-0.7-2.8-0.9l-1.3-0.2H16.4
			c-3.3,0-5.5,1.1-6.6,3.4c-0.6,1.3-1.1,2.8-1.1,4.2v186.2c0,3.2,1.1,5.4,3.4,6.5c1.3,0.6,2.7,1.1,4.2,1.1h123.5l3.9,8.8H13.6
			c-2.3,0-4.5-0.6-6.8-1.7C2.3,268,0,264,0,258.3V66.6c0-2.3,0.6-4.5,1.8-6.8C4.1,55.3,8,53,13.7,53h191.8l2.1,0.2
			c1.7,0.2,3.3,0.7,4.7,1.5c4.5,2.3,6.8,6.2,6.8,11.9L219.2,196.5L219.2,196.5z"/>
		<g>
			<g>
				<path class="st2" d="M66.7,101.4c0,7.9-2.2,13.9-6.5,18c-4.4,4.1-10.6,6.2-18.8,6.2H28.1V78.1h14.7c7.5,0,13.5,2,17.6,6.1
					C64.6,88.2,66.7,94,66.7,101.4z M58.5,101.6c0-11.4-5.4-17-16-17h-6.7V119h5.5C52.8,119,58.5,113.2,58.5,101.6z"/>
			</g>
		</g>
	</g>
	<g id="Shape_2_">
		<path class="st3" d="M104.9,209.1c0-5.4,0.2-10.6-0.1-15.8c-0.4-5.7,4.3-10.7,10.6-10.5c6.4,0.2,12.7,0.1,19.1,0.1
			c0.6,0,1.3,0,2.1,0c0-3.4,0-6.7,0-10c-0.3-0.1-0.7-0.2-1.2-0.2c-2.7-0.2-4.2-1.8-4.2-4.5c-0.1-3.9,0-7.9,0-11.8
			c0-3.4,1.7-5.4,5-5.4c4-0.1,8-0.1,12,0c3,0.1,4.7,1.8,4.7,4.8c0.1,3.7,0.1,7.2,0,10.9c-0.2,5-0.5,5.4-5.3,6.3c0,3.2,0,6.4,0,10
			c3.8,0,7.5,0,11.1,0c4.5,0.1,8.9-0.1,13.3,0.4c4.1,0.4,7.3,4.5,7.4,8.8c0,5.7,0,11.4,0,17.2c0.7,0.1,1.3,0.2,1.9,0.2
			c2,0.4,3.2,1.8,3.2,3.9c0,4.4,0.1,8.8,0.1,13.1c0,3.1-1.3,4.6-4.4,4.7c-4.3,0.1-8.6,0.1-12.9,0c-2.7-0.1-4.2-1.9-4.2-4.6
			c0-3.7,0.2-7.5-0.1-11.1c-0.2-4.1,1.3-5.7,5.3-6.2c0-4.9,0-10,0-15.2c-6.9,0-13.7,0-20.7,0c0,5,0,10.1,0,15
			c4.9,1.5,5.3,1.9,5.2,7.1c0,3.3,0,6.7,0,10c0,3.5-1.5,4.9-5,5c-3.8,0-7.7,0-11.5,0c-3.4,0-5.1-1.8-5.1-5.2s0-6.8,0-10.2
			c0-4.6,0.8-5.7,5.4-6.7c0-4.9,0-10,0-15.1c-6.9,0-13.8,0-20.8,0c0,5.1,0,10.1,0,15.1c4.7,1.1,5.3,1.9,5.3,6.9c0,3.4,0,6.8,0,10.2
			c0,3.3-1.6,4.9-4.9,4.9c-3.9,0.1-7.9,0.1-11.8,0c-3.6,0-5-1.6-5.1-5.3c0-3.4,0-6.8,0-10.2C99.5,211.1,100.3,210.2,104.9,209.1z
			 M137.1,225.4c3.5,0,6.8,0,10.3,0c0-3.4,0-6.7,0-10.1c-3.5,0-6.8,0-10.3,0C137.1,218.7,137.1,221.9,137.1,225.4z M137.2,166.6
			c3.6,0,6.9,0,10.2,0c0-3.4,0-6.7,0-9.9c-3.5,0-6.7,0-10.2,0C137.2,160.1,137.2,163.3,137.2,166.6z M105.5,215.3
			c0,3.6,0,6.8,0,10.1c3.4,0,6.7,0,10,0c0-3.5,0-6.7,0-10.1C112,215.3,108.8,215.3,105.5,215.3z M179.1,215.4c-3.4,0-6.7,0-9.8,0
			c0,3.5,0,6.7,0,10c3.3,0,6.5,0,9.8,0C179.1,222,179.1,218.8,179.1,215.4z"/>
	</g>
</g>
<g>
	<circle class="st0" cx="207.7" cy="65" r="62.7"/>
	<path class="st4" d="M207.7,3.3c34,0,61.7,27.7,61.7,61.7s-27.7,61.7-61.7,61.7S146,99.1,146,65S173.7,3.3,207.7,3.3 M207.7,1.3
		C172.5,1.3,144,29.8,144,65s28.5,63.7,63.7,63.7s63.7-28.5,63.7-63.7S242.9,1.3,207.7,1.3L207.7,1.3z"/>
</g>
<g>
	
		<linearGradient id="SVGID_1_" gradientUnits="userSpaceOnUse" x1="1.9236" y1="-0.8295" x2="2.1269" y2="-0.6277" gradientTransform="matrix(189.3834 0 0 189.8058 -188.2389 190.865)">
		<stop  offset="0" style="stop-color:#387EB8"/>
		<stop  offset="1" style="stop-color:#366994"/>
	</linearGradient>
	<path class="st5" d="M207.4,26.3c-19.8,0-18.5,8.6-18.5,8.6v8.9h18.9v2.7h-26.4c0,0-12.6-1.4-12.6,18.5s11,19.2,11,19.2h6.6v-9.3
		c0,0-0.4-11,10.9-11H216c0,0,10.5,0.2,10.5-10.2V36.6C226.5,36.6,228.1,26.3,207.4,26.3L207.4,26.3L207.4,26.3z M197,32.3
		c1.9,0,3.4,1.5,3.4,3.4S198.9,39,197,39s-3.4-1.5-3.4-3.4S195.1,32.3,197,32.3L197,32.3L197,32.3z"/>
	
		<linearGradient id="SVGID_2_" gradientUnits="userSpaceOnUse" x1="1.7003" y1="-1.0388" x2="1.9187" y2="-0.8319" gradientTransform="matrix(189.3834 0 0 189.8058 -122.2384 255.1267)">
		<stop  offset="0" style="stop-color:#FFE052"/>
		<stop  offset="1" style="stop-color:#FFC331"/>
	</linearGradient>
	<path class="st6" d="M208,103.7c19.8,0,18.5-8.6,18.5-8.6v-8.9h-18.9v-2.7H234c0,0,12.6,1.4,12.6-18.5s-11-19.2-11-19.2H229v9.3
		c0,0,0.4,11-10.9,11h-18.7c0,0-10.5-0.2-10.5,10.2v17.1C188.9,93.4,187.3,103.7,208,103.7L208,103.7L208,103.7z M218.4,97.8
		c-1.9,0-3.4-1.5-3.4-3.4s1.5-3.4,3.4-3.4s3.4,1.5,3.4,3.4C221.8,96.3,220.3,97.8,218.4,97.8L218.4,97.8L218.4,97.8z"/>
</g>
</svg>
