<?xml version="1.0" encoding="utf-8"?>
<!-- Generator: Adobe Illustrator 25.2.0, SVG Export Plug-In . SVG Version: 6.00 Build 0)  -->
<svg version="1.1" id="Layer_1" xmlns="http://www.w3.org/2000/svg" xmlns:xlink="http://www.w3.org/1999/xlink" x="0px" y="0px"
	 viewBox="0 0 272 272" style="enable-background:new 0 0 272 272;" xml:space="preserve">
<style type="text/css">
	.st0{fill:#FFFFFF;}
	.st1{fill-rule:evenodd;clip-rule:evenodd;fill:#22BAE6;}
	.st2{fill:#22BAE6;}
	.st3{fill:#DADADA;}
	.st4{fill:url(#SVGID_1_);}
	.st5{fill:url(#SVGID_2_);}
</style>
<g id="BarCode">
	<path class="st0" d="M198,241.8c-25.3,30-105.9,24.7-105.9,24.7H5.4V60.1h209v101.1C214.4,161.2,215.4,221.2,198,241.8z"/>
	<g>
		<path class="st1" d="M68.3,196.6c0-20.9,7.3-38.7,22-53.4c14.6-14.7,32.4-22,53.4-22c20.7,0,38.4,7.3,53.2,22s22.1,32.4,22.1,53.4
			c0,20.8-7.4,38.5-22.1,53.2c-14.8,14.8-32.5,22.1-53.2,22.1c-21,0-38.8-7.4-53.4-22.1C75.6,235.2,68.3,217.4,68.3,196.6"/>
		<path class="st1" d="M219,196.6h-8.8V69.5c0-3.2-1.1-5.4-3.5-6.6c-0.8-0.4-1.8-0.7-2.8-0.9l-1.3-0.2H16.4c-3.3,0-5.5,1.1-6.6,3.4
			c-0.6,1.3-1.1,2.8-1.1,4.2v186.1c0,3.2,1.1,5.4,3.4,6.5c1.3,0.6,2.7,1.1,4.2,1.1h123.4l3.9,8.8h-130c-2.3,0-4.5-0.6-6.8-1.7
			c-4.5-2.3-6.8-6.2-6.8-12V66.8c0-2.3,0.6-4.5,1.8-6.8c2.3-4.5,6.2-6.8,11.9-6.8h191.7l2.1,0.2c1.7,0.2,3.3,0.7,4.7,1.5
			c4.5,2.3,6.8,6.2,6.8,11.9V196.6L219,196.6z"/>
		<g>
			<g>
				<path class="st2" d="M26.5,125.6V79.3h17.4c3.6,0,6.4,0.5,8.5,1.4c2.1,1,3.8,2.4,5,4.4c1.2,1.9,1.8,4,1.8,6.2
					c0,1.9-0.6,3.9-1.6,5.6c-1.1,1.8-2.7,3.2-4.9,4.2c2.8,0.8,4.9,2.2,6.5,4.2c1.5,1.9,2.3,4.3,2.3,7.1c0,2.2-0.5,4.2-1.4,6.1
					s-2,3.3-3.4,4.3c-1.4,1.1-3.1,1.8-5.1,2.3s-4.5,0.8-7.5,0.8L26.5,125.6L26.5,125.6z M32.7,98.7h10.1c2.8,0,4.7-0.2,5.8-0.6
					c1.5-0.5,2.8-1.2,3.6-2.4c0.8-1.1,1.2-2.4,1.2-4.1c0-1.5-0.4-2.9-1.1-4.1c-0.7-1.1-1.8-1.9-3.2-2.4c-1.4-0.4-3.7-0.6-7.1-0.6
					h-9.3C32.7,84.5,32.7,98.7,32.7,98.7z M32.7,120.2h11.6c1.9,0,3.4-0.1,4.2-0.2c1.4-0.2,2.6-0.6,3.6-1.3c1-0.6,1.7-1.5,2.4-2.6
					c0.6-1.1,0.9-2.4,0.9-3.9c0-1.7-0.4-3.2-1.3-4.5s-2.1-2.2-3.7-2.7c-1.5-0.5-3.8-0.8-6.8-0.8H32.7V120.2z"/>
			</g>
		</g>
	</g>
	<g id="Bars_4_">
		<rect x="104.2" y="167.6" class="st0" width="9.4" height="48.6"/>
		<rect x="117.6" y="167.6" class="st0" width="5.5" height="48.6"/>
		<rect x="127" y="167.6" class="st0" width="5.5" height="48.6"/>
		<rect x="136.2" y="167.6" class="st0" width="3.6" height="48.6"/>
		<rect x="141.4" y="167.6" class="st0" width="5.2" height="48.6"/>
		<rect x="150.7" y="167.6" class="st0" width="3.2" height="48.6"/>
		<rect x="160.3" y="167.6" class="st0" width="5.4" height="48.6"/>
		<rect x="167.4" y="167.2" class="st0" width="2.7" height="48.6"/>
		<rect x="174.3" y="167.2" class="st0" width="5.8" height="48.6"/>
		<rect x="174.3" y="219.9" class="st0" width="5.8" height="5.4"/>
		<rect x="160.3" y="219.9" class="st0" width="9.9" height="5.4"/>
		<rect x="150.7" y="219.9" class="st0" width="4.9" height="5.4"/>
		<rect x="127" y="219.9" class="st0" width="5.5" height="5.4"/>
		<rect x="104.2" y="219.9" class="st0" width="5.5" height="5.4"/>
		<rect x="117.6" y="219.9" class="st0" width="5.5" height="5.4"/>
		<rect x="136.2" y="219.9" class="st0" width="10.2" height="5.4"/>
	</g>
</g>
<g>
	<circle class="st0" cx="207.7" cy="65" r="62.7"/>
	<path class="st3" d="M207.7,3.3c34,0,61.7,27.7,61.7,61.7s-27.7,61.7-61.7,61.7S146,99.1,146,65S173.7,3.3,207.7,3.3 M207.7,1.3
		C172.5,1.3,144,29.8,144,65s28.5,63.7,63.7,63.7s63.7-28.5,63.7-63.7S242.9,1.3,207.7,1.3L207.7,1.3z"/>
</g>
<g>
	
		<linearGradient id="SVGID_1_" gradientUnits="userSpaceOnUse" x1="1.9236" y1="-0.8295" x2="2.1269" y2="-0.6277" gradientTransform="matrix(189.3834 0 0 189.8058 -188.2389 190.865)">
		<stop  offset="0" style="stop-color:#387EB8"/>
		<stop  offset="1" style="stop-color:#366994"/>
	</linearGradient>
	<path class="st4" d="M207.4,26.3c-19.8,0-18.5,8.6-18.5,8.6v8.9h18.9v2.7h-26.4c0,0-12.6-1.4-12.6,18.5s11,19.2,11,19.2h6.6v-9.3
		c0,0-0.4-11,10.9-11H216c0,0,10.5,0.2,10.5-10.2V36.6C226.5,36.6,228.1,26.3,207.4,26.3L207.4,26.3L207.4,26.3z M197,32.3
		c1.9,0,3.4,1.5,3.4,3.4S198.9,39,197,39s-3.4-1.5-3.4-3.4S195.1,32.3,197,32.3L197,32.3L197,32.3z"/>
	
		<linearGradient id="SVGID_2_" gradientUnits="userSpaceOnUse" x1="1.7003" y1="-1.0388" x2="1.9187" y2="-0.8319" gradientTransform="matrix(189.3834 0 0 189.8058 -122.2384 255.1267)">
		<stop  offset="0" style="stop-color:#FFE052"/>
		<stop  offset="1" style="stop-color:#FFC331"/>
	</linearGradient>
	<path class="st5" d="M208,103.7c19.8,0,18.5-8.6,18.5-8.6v-8.9h-18.9v-2.7H234c0,0,12.6,1.4,12.6-18.5s-11-19.2-11-19.2H229v9.3
		c0,0,0.4,11-10.9,11h-18.7c0,0-10.5-0.2-10.5,10.2v17.1C188.9,93.4,187.3,103.7,208,103.7L208,103.7L208,103.7z M218.4,97.8
		c-1.9,0-3.4-1.5-3.4-3.4s1.5-3.4,3.4-3.4s3.4,1.5,3.4,3.4C221.8,96.3,220.3,97.8,218.4,97.8L218.4,97.8L218.4,97.8z"/>
</g>
</svg>
