<?xml version="1.0" encoding="utf-8"?>
<!-- Generator: Adobe Illustrator 25.2.0, SVG Export Plug-In . SVG Version: 6.00 Build 0)  -->
<svg version="1.1" id="Layer_1" xmlns="http://www.w3.org/2000/svg" xmlns:xlink="http://www.w3.org/1999/xlink" x="0px" y="0px"
	 viewBox="0 0 272 272" style="enable-background:new 0 0 272 272;" xml:space="preserve">
<style type="text/css">
	.st0{fill:#FFFFFF;}
	.st1{fill-rule:evenodd;clip-rule:evenodd;fill:#22BAE6;}
	.st2{fill:#22BAE6;}
	.st3{fill:#FDFDFD;}
	.st4{fill:#152331;}
	.st5{fill:#01579B;}
	.st6{fill:#40C4FF;}
	.st7{fill:#29B6F6;}
	.st8{opacity:0.2;fill:#FFFFFF;enable-background:new    ;}
	.st9{opacity:0.2;fill:#263238;enable-background:new    ;}
	.st10{opacity:0.2;fill:url(#SVGID_1_);enable-background:new    ;}
</style>
<g id="Words">
	<polygon class="st0" points="213.6,62.1 206.2,57.4 12.3,57.4 4.9,64.8 4.9,259.2 9.7,265.5 154.6,265.5 213.6,190.7 	"/>
	<g>
		<path class="st1" d="M68.3,196.6c0-20.9,7.3-38.7,22-53.3c14.6-14.7,32.3-22,53.3-22c20.7,0,38.4,7.3,53.2,22
			c14.8,14.7,22.1,32.4,22.1,53.3c0,20.8-7.4,38.5-22.1,53.2c-14.8,14.8-32.5,22.1-53.2,22.1c-21,0-38.8-7.4-53.3-22.1
			C75.6,235.1,68.3,217.4,68.3,196.6"/>
		<path class="st1" d="M219,196.6h-8.8V69.5c0-3.2-1.1-5.4-3.5-6.6c-0.8-0.4-1.7-0.7-2.8-0.9l-1.3-0.2H16.4c-3.3,0-5.5,1.1-6.6,3.4
			c-0.6,1.3-1,2.8-1.1,4.2v186.1c0,3.2,1.1,5.4,3.4,6.5c1.3,0.6,2.8,1.1,4.2,1.1h123.4l3.9,8.8h-130c-2.3,0-4.5-0.6-6.8-1.7
			C2.3,267.9,0,264,0,258.2V66.7c0-2.3,0.6-4.5,1.8-6.8C4,55.3,7.9,53,13.6,53h191.7l2.1,0.2c1.7,0.2,3.3,0.7,4.7,1.5
			c4.5,2.3,6.8,6.2,6.8,11.9L219,196.6L219,196.6z"/>
		<g>
			<path class="st2" d="M75.9,130.4h-8.5l-8-28.3c-0.3-1.2-0.8-3-1.3-5.4c-0.5-2.4-0.8-4-1-4.9c-0.2,1.4-0.6,3.2-1.1,5.4
				c-0.5,2.3-0.9,3.9-1.2,4.9l-7.9,28.1h-8.4l-6.1-23.8l-6.2-23.7h7.9l6.8,27.6c1.1,4.5,1.8,8.4,2.3,11.8c0.2-1.9,0.6-3.9,1.1-6.2
				c0.5-2.3,0.9-4.1,1.3-5.5l7.7-27.7H61l7.9,27.8c0.7,2.6,1.5,6.4,2.4,11.5c0.3-3.1,1.1-7.1,2.4-11.8l6.7-27.6h7.9L75.9,130.4z"/>
		</g>
		<g>
			<rect x="97.4" y="159.1" class="st3" width="91.7" height="6.8"/>
			<rect x="97.4" y="182.7" class="st3" width="91.7" height="6.8"/>
			<rect x="97.4" y="205.7" class="st3" width="62.7" height="6.8"/>
			<rect x="97.4" y="229.4" class="st3" width="33.4" height="6.8"/>
		</g>
	</g>
</g>
<circle class="st4" cx="207.7" cy="65" r="63.7"/>
<g>
	<path class="st5" d="M183.1,88.9l-14.3-14.3c-1.7-1.7-2.8-4.2-2.8-6.6c0-1.1,0.6-2.8,1.1-3.9l13.2-27.5L183.1,88.9z"/>
	<path class="st6" d="M232.1,39.4l-14.3-14.3c-1.2-1.3-3.9-2.8-6-2.8c-1.9,0-3.7,0.4-4.9,1.1l-26.4,13.2L232.1,39.4z"/>
	<polygon class="st6" points="200.2,105.9 234.8,105.9 234.8,91.1 209,82.8 185.3,91.1 	"/>
	<path class="st7" d="M180.4,81.2c0,4.4,0.6,5.5,2.8,7.7l2.2,2.2h49.5l-24.2-27.5l-30.2-26.9V81.2z"/>
	<path class="st5" d="M224.4,36.6h-44l54.4,54.4h14.8V57l-17.6-17.6C229.6,36.9,227.4,36.6,224.4,36.6z"/>
	<path class="st8" d="M183.7,89.4c-2.2-2.2-2.8-4.4-2.8-8.2v-44l-0.6-0.6v44.5C180.4,85,180.4,86.1,183.7,89.4l1.7,1.7l0,0
		L183.7,89.4z"/>
	<polygon class="st9" points="249.1,56.4 249.1,90.5 234.3,90.5 234.8,91.1 249.7,91.1 249.7,57 	"/>
	<path class="st8" d="M232.1,39.4c-2.7-2.7-5-2.8-8.2-2.8h-43.4l0.6,0.6h42.9C225.5,37.2,229.6,36.9,232.1,39.4L232.1,39.4z"/>
	
		<radialGradient id="SVGID_1_" cx="207.9009" cy="206.6012" r="41.797" gradientTransform="matrix(1 0 0 1 0 -142.4672)" gradientUnits="userSpaceOnUse">
		<stop  offset="0" style="stop-color:#FFFFFF;stop-opacity:0.1"/>
		<stop  offset="1" style="stop-color:#FFFFFF;stop-opacity:0"/>
	</radialGradient>
	<path class="st10" d="M249.1,56.4l-17-17l-14.3-14.3c-1.2-1.3-3.9-2.8-6-2.8c-1.9,0-3.7,0.4-4.9,1.1l-26.4,13.2l-13.2,27.5
		c-0.5,1-1.1,2.7-1.1,3.9c0,2.4,1.1,4.9,2.8,6.6L182,87.7c0.3,0.4,0.7,0.8,1.1,1.2l0.6,0.6l1.7,1.7l14.3,14.3l0.6,0.6h34.1h0.6V91.1
		h14.8v0V57L249.1,56.4z"/>
</g>
<g>
</g>
<g>
</g>
<g>
</g>
<g>
</g>
<g>
</g>
<g>
</g>
</svg>
