<?xml version="1.0" encoding="utf-8"?>
<!-- Generator: Adobe Illustrator 25.2.0, SVG Export Plug-In . SVG Version: 6.00 Build 0)  -->
<svg version="1.1" id="Layer_1" xmlns="http://www.w3.org/2000/svg" xmlns:xlink="http://www.w3.org/1999/xlink" x="0px" y="0px"
	 viewBox="0 0 272 272" style="enable-background:new 0 0 272 272;" xml:space="preserve">
<style type="text/css">
	.st0{fill:#FFFFFF;}
	.st1{fill-rule:evenodd;clip-rule:evenodd;fill:#22BAE6;}
	.st2{fill-rule:evenodd;clip-rule:evenodd;fill:#FFFFFF;}
	.st3{fill:#00ACD7;}
</style>
<g id="Tasks">
	<polygon class="st0" points="213.7,63 206.3,58.3 12.4,58.3 5,65.7 5,260.1 9.8,266.3 154.7,266.3 213.7,191.6 	"/>
	<path class="st1" d="M68.2,196.5c0-20.9,7.3-38.7,22-53.3c14.6-14.7,32.3-22,53.3-22c20.7,0,38.4,7.3,53.2,22
		c14.8,14.7,22.2,32.4,22.2,53.3c0,20.8-7.4,38.5-22.2,53.2c-14.7,14.7-32.5,22.2-53.2,22.2c-21,0-38.7-7.4-53.3-22.2
		C75.6,235,68.2,217.3,68.2,196.5"/>
	<path class="st1" d="M218.8,196.5h-8.8V69.4c0-3.2-1.2-5.4-3.5-6.6c-0.9-0.4-1.8-0.7-2.9-0.9l-1.3-0.2H16.4c-3.3,0-5.5,1.2-6.6,3.4
		c-0.6,1.3-1,2.7-1.1,4.3v186.1c0,3.2,1.2,5.4,3.4,6.5c1.3,0.6,2.7,1.1,4.3,1.2h123.3l3.8,8.8H13.6c-2.2,0-4.6-0.5-6.8-1.7
		c-4.6-2.2-6.8-6.3-6.8-12V66.6c0-2.2,0.5-4.6,1.8-6.8C4.1,55.2,8.1,53,13.8,53h191.5l2.1,0.2c1.7,0.2,3.3,0.7,4.7,1.5
		c4.6,2.2,6.8,6.3,6.8,11.9v129.9H218.8z"/>
	<g>
		<path class="st1" d="M95,88l-16.9,16.4l15.9,23.8h-6l-13.4-20l-6.4,6.4l-0.1,13.5h-5.6l0.2-40.2h5.6l-0.1,19.9L88.7,88H95z
			 M24.2,84.8v-5.1l37.9,0.2v5.1L47,84.8L46.8,128h-6.7l0.2-43.2L24.2,84.8z"/>
	</g>
	<path class="st2" d="M110.6,162.8l-0.3,68.2l68.2,0.3l0.3-68.2L110.6,162.8z M105.4,235.9l0.4-78l77.8,0.4l-0.4,78L105.4,235.9z
		 M173.7,181.2l-34.2,34l-24.2-24.5l9.8-9.7l14.5,14.6l24.4-24.2L173.7,181.2z"/>
</g>
<circle class="st3" cx="207.7" cy="65" r="63.7"/>
<g>
	<g>
		<g>
			<g>
				<path class="st0" d="M157.9,58.1c-0.2,0-0.3-0.1-0.2-0.3l1.2-1.5c0.1-0.2,0.4-0.3,0.6-0.3h19.7c0.2,0,0.3,0.2,0.2,0.3l-0.9,1.4
					c-0.1,0.2-0.4,0.3-0.6,0.3L157.9,58.1z"/>
			</g>
		</g>
	</g>
	<g>
		<g>
			<g>
				<path class="st0" d="M149.6,63.2c-0.2,0-0.3-0.1-0.2-0.3l1.2-1.5c0.1-0.2,0.4-0.3,0.6-0.3h25.2c0.2,0,0.3,0.2,0.3,0.3l-0.4,1.3
					c-0.1,0.2-0.3,0.3-0.5,0.3L149.6,63.2z"/>
			</g>
		</g>
	</g>
	<g>
		<g>
			<g>
				<path class="st0" d="M162.9,68.2c-0.2,0-0.3-0.2-0.2-0.3l0.8-1.4c0.1-0.2,0.3-0.3,0.6-0.3h11c0.2,0,0.3,0.2,0.3,0.4l-0.1,1.3
					c0,0.2-0.2,0.4-0.4,0.4L162.9,68.2z"/>
			</g>
		</g>
	</g>
	<g>
		<g id="CXHf1q_3_">
			<g>
				<g>
					<path class="st0" d="M220.2,57.1c-3.5,0.9-5.8,1.5-9.3,2.4c-0.8,0.2-0.9,0.3-1.6-0.6c-0.8-0.9-1.4-1.5-2.6-2.1
						c-3.5-1.7-6.8-1.2-10,0.8c-3.8,2.4-5.7,6-5.6,10.5c0.1,4.4,3.1,8.1,7.4,8.7c3.8,0.5,6.9-0.8,9.4-3.6c0.5-0.6,0.9-1.3,1.5-2
						c-2,0-4.5,0-10.6,0c-1.2,0-1.4-0.7-1-1.7c0.7-1.7,2-4.6,2.8-6c0.2-0.3,0.6-0.9,1.4-0.9c2.8,0,13.2,0,20.1,0
						c-0.1,1.5-0.1,3-0.3,4.5c-0.6,4-2.1,7.6-4.5,10.8c-4,5.2-9.2,8.5-15.7,9.4c-5.4,0.7-10.4-0.3-14.8-3.6c-4.1-3.1-6.4-7.2-7-12.2
						c-0.7-6,1-11.4,4.7-16.2c3.9-5.1,9.1-8.4,15.4-9.5c5.2-0.9,10.2-0.3,14.6,2.7c2.9,1.9,5,4.6,6.4,7.8
						C221.1,56.6,220.8,56.9,220.2,57.1z"/>
				</g>
				<g>
					<path class="st0" d="M238.4,87.6c-5-0.1-9.6-1.5-13.5-4.9c-3.3-2.8-5.3-6.4-6-10.6c-1-6.2,0.7-11.8,4.5-16.7
						c4-5.3,8.9-8.1,15.4-9.2c5.6-1,10.9-0.4,15.7,2.8c4.4,3,7.1,7,7.8,12.3c0.9,7.4-1.2,13.5-6.3,18.7c-3.6,3.7-8.1,6-13.2,7.1
						C241.4,87.4,239.9,87.4,238.4,87.6z M251.6,65.3c-0.1-0.7-0.1-1.3-0.2-1.8c-1-5.5-6-8.6-11.3-7.3c-5.1,1.2-8.4,4.4-9.7,9.6
						c-1,4.3,1.1,8.7,5.1,10.4c3,1.3,6.1,1.2,9-0.3C248.9,73.6,251.3,70.1,251.6,65.3z"/>
				</g>
			</g>
		</g>
	</g>
</g>
</svg>
