<?xml version="1.0" encoding="utf-8"?>
<!-- Generator: Adobe Illustrator 25.2.0, SVG Export Plug-In . SVG Version: 6.00 Build 0)  -->
<svg version="1.1" id="Layer_1" xmlns="http://www.w3.org/2000/svg" xmlns:xlink="http://www.w3.org/1999/xlink" x="0px" y="0px"
	 viewBox="0 0 272 272" style="enable-background:new 0 0 272 272;" xml:space="preserve">
<style type="text/css">
	.st0{fill:#FFFFFF;}
	.st1{fill-rule:evenodd;clip-rule:evenodd;fill:#22BAE6;}
	.st2{fill:#22BAE6;}
	.st3{fill-rule:evenodd;clip-rule:evenodd;fill:#FCFCFB;}
	.st4{fill:#DD4443;}
</style>
<g id="CLoud">
	<path class="st0" d="M198.1,241.8c-25.3,30-106,24.7-106,24.7H5.4V59.9h209.2v101.2C214.5,161.1,215.5,221.2,198.1,241.8z"/>
	<g>
		<path class="st1" d="M68.3,196.5c0-20.9,7.3-38.7,22-53.4c14.6-14.7,32.4-22,53.4-22c20.7,0,38.5,7.3,53.2,22
			c14.8,14.7,22.2,32.5,22.2,53.4c0,20.9-7.4,38.5-22.2,53.2c-14.8,14.8-32.5,22.2-53.2,22.2c-21,0-38.8-7.4-53.4-22.2
			C75.6,235.2,68.3,217.4,68.3,196.5"/>
		<path class="st1" d="M219.2,196.5h-8.8V69.3c0-3.2-1.1-5.4-3.5-6.6c-0.8-0.4-1.8-0.7-2.8-0.9l-1.3-0.2H16.4
			c-3.3,0-5.5,1.1-6.6,3.4c-0.6,1.3-1.1,2.8-1.1,4.2v186.2c0,3.2,1.1,5.4,3.4,6.5c1.3,0.6,2.7,1.1,4.2,1.1h123.5l3.9,8.8H13.6
			c-2.3,0-4.5-0.6-6.8-1.7C2.3,268,0,264,0,258.3V66.6c0-2.3,0.6-4.5,1.8-6.8C4.1,55.3,8,53,13.7,53h191.8l2.1,0.2
			c1.7,0.2,3.3,0.7,4.7,1.5c4.5,2.3,6.8,6.2,6.8,11.9L219.2,196.5L219.2,196.5z"/>
		<g>
			<g>
				<path class="st2" d="M66.7,101.4c0,7.9-2.2,13.9-6.5,18c-4.4,4.1-10.6,6.2-18.8,6.2H28.1V78.1h14.7c7.5,0,13.5,2,17.6,6.1
					C64.6,88.2,66.7,94,66.7,101.4z M58.5,101.6c0-11.4-5.4-17-16-17h-6.7V119h5.5C52.8,119,58.5,113.2,58.5,101.6z"/>
			</g>
		</g>
	</g>
	<g id="Shape_2_">
		<path class="st3" d="M104.9,209.1c0-5.4,0.2-10.6-0.1-15.8c-0.4-5.7,4.3-10.7,10.6-10.5c6.4,0.2,12.7,0.1,19.1,0.1
			c0.6,0,1.3,0,2.1,0c0-3.4,0-6.7,0-10c-0.3-0.1-0.7-0.2-1.2-0.2c-2.7-0.2-4.2-1.8-4.2-4.5c-0.1-3.9,0-7.9,0-11.8
			c0-3.4,1.7-5.4,5-5.4c4-0.1,8-0.1,12,0c3,0.1,4.7,1.8,4.7,4.8c0.1,3.7,0.1,7.2,0,10.9c-0.2,5-0.5,5.4-5.3,6.3c0,3.2,0,6.4,0,10
			c3.8,0,7.5,0,11.1,0c4.5,0.1,8.9-0.1,13.3,0.4c4.1,0.4,7.3,4.5,7.4,8.8c0,5.7,0,11.4,0,17.2c0.7,0.1,1.3,0.2,1.9,0.2
			c2,0.4,3.2,1.8,3.2,3.9c0,4.4,0.1,8.8,0.1,13.1c0,3.1-1.3,4.6-4.4,4.7c-4.3,0.1-8.6,0.1-12.9,0c-2.7-0.1-4.2-1.9-4.2-4.6
			c0-3.7,0.2-7.5-0.1-11.1c-0.2-4.1,1.3-5.7,5.3-6.2c0-4.9,0-10,0-15.2c-6.9,0-13.7,0-20.7,0c0,5,0,10.1,0,15
			c4.9,1.5,5.3,1.9,5.2,7.1c0,3.3,0,6.7,0,10c0,3.5-1.5,4.9-5,5c-3.8,0-7.7,0-11.5,0c-3.4,0-5.1-1.8-5.1-5.2s0-6.8,0-10.2
			c0-4.6,0.8-5.7,5.4-6.7c0-4.9,0-10,0-15.1c-6.9,0-13.8,0-20.8,0c0,5.1,0,10.1,0,15.1c4.7,1.1,5.3,1.9,5.3,6.9c0,3.4,0,6.8,0,10.2
			c0,3.3-1.6,4.9-4.9,4.9c-3.9,0.1-7.9,0.1-11.8,0c-3.6,0-5-1.6-5.1-5.3c0-3.4,0-6.8,0-10.2C99.5,211.1,100.3,210.2,104.9,209.1z
			 M137.1,225.4c3.5,0,6.8,0,10.3,0c0-3.4,0-6.7,0-10.1c-3.5,0-6.8,0-10.3,0C137.1,218.7,137.1,221.9,137.1,225.4z M137.2,166.6
			c3.6,0,6.9,0,10.2,0c0-3.4,0-6.7,0-9.9c-3.5,0-6.7,0-10.2,0C137.2,160.1,137.2,163.3,137.2,166.6z M105.5,215.3
			c0,3.6,0,6.8,0,10.1c3.4,0,6.7,0,10,0c0-3.5,0-6.7,0-10.1C112,215.3,108.8,215.3,105.5,215.3z M179.1,215.4c-3.4,0-6.7,0-9.8,0
			c0,3.5,0,6.7,0,10c3.3,0,6.5,0,9.8,0C179.1,222,179.1,218.8,179.1,215.4z"/>
	</g>
</g>
<circle class="st4" cx="207.7" cy="65" r="63.7"/>
<g>
	<path class="st0" d="M195.4,85.4c0,0-3.6,2.1,2.5,2.8c7.4,0.8,11.2,0.7,19.4-0.8c0,0,2.1,1.3,5.2,2.5
		C204.2,97.7,181,89.4,195.4,85.4"/>
	<path class="st0" d="M193.2,75.1c0,0-4,3,2.1,3.6c7.9,0.8,14.2,0.9,25-1.2c0,0,1.5,1.5,3.9,2.3C202,86.4,177.3,80.4,193.2,75.1"/>
	<path class="st0" d="M212.1,57.8c4.5,5.2-1.2,9.9-1.2,9.9s11.5-5.9,6.2-13.3c-4.9-6.9-8.7-10.3,11.7-22.2
		C228.8,32.1,196.7,40.1,212.1,57.8"/>
	<path class="st0" d="M236.3,93c0,0,2.6,2.2-2.9,3.9c-10.6,3.2-44,4.2-53.3,0.1c-3.3-1.5,2.9-3.5,4.9-3.9c2.1-0.4,3.2-0.4,3.2-0.4
		c-3.7-2.6-24,5.1-10.3,7.4C215.2,106.1,246,97.3,236.3,93"/>
	<path class="st0" d="M197.1,64.5c0,0-17,4-6,5.5c4.6,0.6,13.9,0.5,22.5-0.2c7-0.6,14.1-1.9,14.1-1.9s-2.5,1.1-4.3,2.3
		c-17.3,4.5-50.7,2.4-41.1-2.2C190.5,64.1,197.1,64.5,197.1,64.5"/>
	<path class="st0" d="M227.7,81.6c17.6-9.1,9.4-17.9,3.8-16.7c-1.4,0.3-2,0.5-2,0.5s0.5-0.8,1.5-1.2c11.2-3.9,19.8,11.6-3.6,17.8
		C227.3,82,227.6,81.8,227.7,81.6"/>
	<path class="st0" d="M217.1,13c0,0,9.7,9.7-9.2,24.7c-15.2,12-3.5,18.8,0,26.7c-8.9-8-15.4-15.1-11-21.6
		C203.2,33.1,221,28.4,217.1,13"/>
	<path class="st0" d="M198.9,106.3c16.9,1.1,42.8-0.6,43.4-8.6c0,0-1.2,3-13.9,5.4c-14.4,2.7-32.1,2.4-42.7,0.7
		C185.6,103.8,187.8,105.6,198.9,106.3"/>
</g>
</svg>
