<?xml version="1.0" encoding="utf-8"?>
<!-- Generator: Adobe Illustrator 25.2.0, SVG Export Plug-In . SVG Version: 6.00 Build 0)  -->
<svg version="1.1" id="Layer_1" xmlns="http://www.w3.org/2000/svg" xmlns:xlink="http://www.w3.org/1999/xlink" x="0px" y="0px"
	 viewBox="0 0 272 272" style="enable-background:new 0 0 272 272;" xml:space="preserve">
<style type="text/css">
	.st0{fill:#FFFFFF;}
	.st1{fill-rule:evenodd;clip-rule:evenodd;fill:#22BAE6;}
	.st2{fill:#22BAE6;}
	.st3{fill-rule:evenodd;clip-rule:evenodd;fill:#FFFFFF;}
	.st4{fill:#4F5C93;}
</style>
<g id="Email">
	<polygon class="st0" points="211.1,65.6 203.9,60.9 14.9,60.9 7.8,68.2 7.8,257.7 12.4,263.9 153.5,263.9 211.1,190.9 	"/>
	<path class="st1" d="M68.3,196.6c0-20.9,7.3-38.7,22-53.4c14.6-14.7,32.4-22,53.4-22c20.7,0,38.4,7.3,53.2,22
		c14.8,14.7,22.1,32.4,22.1,53.4c0,20.8-7.4,38.5-22.1,53.2c-14.8,14.8-32.5,22.1-53.2,22.1c-21,0-38.8-7.4-53.4-22.1
		C75.6,235.1,68.3,217.3,68.3,196.6"/>
	<path class="st1" d="M218.9,196.6h-8.8V69.4c0-3.2-1.1-5.4-3.5-6.6c-0.8-0.4-1.7-0.7-2.8-0.9l-1.3-0.2H16.4c-3.3,0-5.5,1.1-6.6,3.4
		c-0.6,1.3-1,2.8-1.1,4.2v186.2c0,3.2,1.1,5.4,3.4,6.5c1.3,0.6,2.7,1.1,4.2,1.1h123.4l3.9,8.8h-130c-2.3,0-4.5-0.6-6.8-1.7
		C2.3,268,0,264,0,258.3V66.6c0-2.3,0.6-4.5,1.8-6.8C4.1,55.3,8,53,13.7,53h191.6l2.1,0.2c1.7,0.2,3.3,0.7,4.7,1.5
		c4.5,2.3,6.8,6.2,6.8,11.9V196.6z"/>
	<g>
		<path class="st2" d="M58.5,130.3H32v-47h26.5v6.5H39.6v12.8h17.7v6.4H39.6v14.8h18.9V130.3z"/>
	</g>
	<path class="st3" d="M119.9,236.9l-23.2-51.2l69.7-31.5l23.2,51.2L119.9,236.9z M165.5,161.4l-10.9,29l29,10.9L165.5,161.4z
		 M103.8,186.6l36.9,13.9c4.1,1.5,6.1,0.6,7.6-3.4l14-36.8L103.8,186.6z M182.4,204.6l-29-10.9c-2.2,5.7-3.6,9.6-6.2,10.8
		c-2.7,1.2-6.5-0.3-12.2-2.4l-11,29L182.4,204.6z M102.6,189.8l18.1,40l11-29L102.6,189.8z"/>
</g>
<circle class="st4" cx="207.7" cy="65" r="63.7"/>
<g>
	<path class="st0" d="M176.5,56.8c3.3,0,5.4,0.6,6.5,1.8s1.3,3.3,0.8,6.2c-0.6,3-1.7,5.2-3.4,6.5s-4.2,1.9-7.7,1.9h-5.2l3.2-16.4
		C170.7,56.8,176.5,56.8,176.5,56.8z M155.7,89.8h8.5l2-10.4h7.3c3.3,0,5.9-0.3,8-1s4-1.8,5.7-3.4c1.5-1.3,2.6-2.8,3.5-4.4
		s1.5-3.3,1.9-5.2c0.9-4.6,0.2-8.2-2-10.9c-2.3-2.6-5.9-3.9-10.8-3.9h-16.4L155.7,89.8z"/>
	<path class="st0" d="M198.9,40.2h8.5l-2,10.4h7.6c4.8,0,8,0.8,9.8,2.5s2.3,4.4,1.6,8.1l-3.5,18.2h-8.6l3.4-17.4
		c0.4-2,0.2-3.3-0.4-4c-0.6-0.7-2.1-1.1-4.2-1.1h-6.8l-4.4,22.5h-8.5L198.9,40.2z"/>
	<path class="st0" d="M243.2,56.8c3.3,0,5.4,0.6,6.5,1.8s1.3,3.3,0.8,6.2c-0.6,3-1.7,5.2-3.4,6.5s-4.2,1.9-7.7,1.9h-5.2l3.2-16.4
		C237.4,56.8,243.2,56.8,243.2,56.8z M222.4,89.8h8.5l2-10.4h7.3c3.3,0,5.9-0.3,8-1s4-1.8,5.7-3.4c1.5-1.3,2.6-2.8,3.5-4.4
		s1.5-3.3,1.9-5.2c0.9-4.6,0.2-8.2-2-10.9c-2.3-2.6-5.9-3.9-10.8-3.9H230L222.4,89.8z"/>
</g>
</svg>
