<?xml version="1.0" encoding="utf-8"?>
<!-- Generator: Adobe Illustrator 25.2.0, SVG Export Plug-In . SVG Version: 6.00 Build 0)  -->
<svg version="1.1" id="Layer_1" xmlns="http://www.w3.org/2000/svg" xmlns:xlink="http://www.w3.org/1999/xlink" x="0px" y="0px"
	 viewBox="0 0 272 272" style="enable-background:new 0 0 272 272;" xml:space="preserve">
<style type="text/css">
	.st0{fill:#FFFFFF;}
	.st1{fill-rule:evenodd;clip-rule:evenodd;fill:#22BAE6;}
	.st2{fill:#22BAE6;}
	.st3{fill-rule:evenodd;clip-rule:evenodd;fill:#FFFFFF;}
	.st4{fill:#00ACD7;}
</style>
<g id="Cells">
	<polygon class="st0" points="213.8,63.1 206.4,58.4 12.4,58.4 5,65.7 5,260.2 9.8,266.5 154.8,266.5 213.8,191.7 	"/>
	<path class="st1" d="M68.3,196.6c0-20.9,7.3-38.7,22-53.4c14.6-14.7,32.4-22,53.4-22c20.7,0,38.4,7.3,53.2,22
		c14.8,14.7,22.1,32.4,22.1,53.4c0,20.8-7.4,38.5-22.1,53.2c-14.8,14.8-32.5,22.1-53.2,22.1c-21,0-38.8-7.4-53.4-22.1
		C75.6,235.1,68.3,217.3,68.3,196.6"/>
	<path class="st1" d="M218.9,196.6h-8.8V69.4c0-3.2-1.1-5.4-3.5-6.6c-0.8-0.4-1.8-0.7-2.8-0.9l-1.3-0.2H16.4c-3.3,0-5.5,1.1-6.6,3.4
		c-0.6,1.3-1,2.7-1.1,4.2v186.2c0,3.2,1.1,5.4,3.4,6.5c1.3,0.6,2.7,1.1,4.2,1.1h123.4l3.9,8.8h-130c-2.3,0-4.5-0.6-6.8-1.7
		C2.3,268,0,264,0,258.3V66.6c0-2.3,0.6-4.5,1.8-6.8C4.1,55.3,8,53,13.7,53h191.6l2.1,0.2c1.7,0.2,3.3,0.7,4.7,1.5
		c4.5,2.3,6.8,6.2,6.8,11.9V196.6L218.9,196.6z"/>
	<g>
		<path class="st2" d="M47.2,88.2c-4.4,0-7.9,1.5-10.4,4.7c-2.5,3.1-3.8,7.5-3.8,12.9c0,5.8,1.2,10.1,3.6,13.1
			c2.4,2.9,5.9,4.4,10.5,4.4c2,0,3.9-0.2,5.8-0.6s3.8-0.9,5.8-1.5v6.6c-3.7,1.4-7.9,2.1-12.5,2.1c-6.9,0-12.1-2.1-15.8-6.2
			s-5.5-10.1-5.5-17.8c0-4.9,0.9-9.2,2.7-12.8c1.8-3.7,4.4-6.5,7.7-8.4c3.4-1.9,7.3-2.9,11.8-2.9c4.8,0,9.2,1,13.2,3L57.6,91
			c-1.5-0.7-3.2-1.4-5-1.9C51,88.5,49.2,88.2,47.2,88.2z"/>
	</g>
	<g>
		<rect x="104.8" y="161.9" class="st3" width="30.7" height="15.8"/>
		<rect x="104.8" y="189.9" class="st3" width="30.7" height="15.9"/>
		<rect x="104.8" y="215.3" class="st3" width="30.7" height="15.9"/>
		<rect x="151.8" y="161.9" class="st3" width="30.7" height="15.8"/>
		<rect x="151.8" y="189.9" class="st3" width="30.7" height="15.9"/>
	</g>
</g>
<circle class="st4" cx="207.7" cy="65" r="63.7"/>
<g>
	<g>
		<g>
			<g>
				<path class="st0" d="M157.9,58.1c-0.2,0-0.3-0.1-0.2-0.3l1.2-1.5c0.1-0.2,0.4-0.3,0.6-0.3h19.7c0.2,0,0.3,0.2,0.2,0.3l-0.9,1.4
					c-0.1,0.2-0.4,0.3-0.6,0.3L157.9,58.1z"/>
			</g>
		</g>
	</g>
	<g>
		<g>
			<g>
				<path class="st0" d="M149.6,63.2c-0.2,0-0.3-0.1-0.2-0.3l1.2-1.5c0.1-0.2,0.4-0.3,0.6-0.3h25.2c0.2,0,0.3,0.2,0.3,0.3l-0.4,1.3
					c-0.1,0.2-0.3,0.3-0.5,0.3L149.6,63.2z"/>
			</g>
		</g>
	</g>
	<g>
		<g>
			<g>
				<path class="st0" d="M162.9,68.2c-0.2,0-0.3-0.2-0.2-0.3l0.8-1.4c0.1-0.2,0.3-0.3,0.6-0.3h11c0.2,0,0.3,0.2,0.3,0.4l-0.1,1.3
					c0,0.2-0.2,0.4-0.4,0.4L162.9,68.2z"/>
			</g>
		</g>
	</g>
	<g>
		<g id="CXHf1q_3_">
			<g>
				<g>
					<path class="st0" d="M220.2,57.1c-3.5,0.9-5.8,1.5-9.3,2.4c-0.8,0.2-0.9,0.3-1.6-0.6c-0.8-0.9-1.4-1.5-2.6-2.1
						c-3.5-1.7-6.8-1.2-10,0.8c-3.8,2.4-5.7,6-5.6,10.5c0.1,4.4,3.1,8.1,7.4,8.7c3.8,0.5,6.9-0.8,9.4-3.6c0.5-0.6,0.9-1.3,1.5-2
						c-2,0-4.5,0-10.6,0c-1.2,0-1.4-0.7-1-1.7c0.7-1.7,2-4.6,2.8-6c0.2-0.3,0.6-0.9,1.4-0.9c2.8,0,13.2,0,20.1,0
						c-0.1,1.5-0.1,3-0.3,4.5c-0.6,4-2.1,7.6-4.5,10.8c-4,5.2-9.2,8.5-15.7,9.4c-5.4,0.7-10.4-0.3-14.8-3.6c-4.1-3.1-6.4-7.2-7-12.2
						c-0.7-6,1-11.4,4.7-16.2c3.9-5.1,9.1-8.4,15.4-9.5c5.2-0.9,10.2-0.3,14.6,2.7c2.9,1.9,5,4.6,6.4,7.8
						C221.1,56.6,220.8,56.9,220.2,57.1z"/>
				</g>
				<g>
					<path class="st0" d="M238.4,87.6c-5-0.1-9.6-1.5-13.5-4.9c-3.3-2.8-5.3-6.4-6-10.6c-1-6.2,0.7-11.8,4.5-16.7
						c4-5.3,8.9-8.1,15.4-9.2c5.6-1,10.9-0.4,15.7,2.8c4.4,3,7.1,7,7.8,12.3c0.9,7.4-1.2,13.5-6.3,18.7c-3.6,3.7-8.1,6-13.2,7.1
						C241.4,87.4,239.9,87.4,238.4,87.6z M251.6,65.3c-0.1-0.7-0.1-1.3-0.2-1.8c-1-5.5-6-8.6-11.3-7.3c-5.1,1.2-8.4,4.4-9.7,9.6
						c-1,4.3,1.1,8.7,5.1,10.4c3,1.3,6.1,1.2,9-0.3C248.9,73.6,251.3,70.1,251.6,65.3z"/>
				</g>
			</g>
		</g>
	</g>
</g>
</svg>
