<?xml version="1.0" encoding="utf-8"?>
<!-- Generator: Adobe Illustrator 25.2.0, SVG Export Plug-In . SVG Version: 6.00 Build 0)  -->
<svg version="1.1" id="Layer_1" xmlns="http://www.w3.org/2000/svg" xmlns:xlink="http://www.w3.org/1999/xlink" x="0px" y="0px"
	 viewBox="0 0 272 272" style="enable-background:new 0 0 272 272;" xml:space="preserve">
<style type="text/css">
	.st0{fill:#FFFFFF;}
	.st1{fill-rule:evenodd;clip-rule:evenodd;fill:#22BAE6;}
	.st2{fill:#22BAE6;}
	.st3{fill:#FDFDFD;}
	.st4{fill:#EF5135;}
</style>
<g id="Words">
	<polygon class="st0" points="213.6,62.1 206.2,57.4 12.3,57.4 4.9,64.8 4.9,259.2 9.7,265.5 154.6,265.5 213.6,190.7 	"/>
	<g>
		<path class="st1" d="M68.3,196.6c0-20.9,7.3-38.7,22-53.3c14.6-14.7,32.3-22,53.3-22c20.7,0,38.4,7.3,53.2,22
			c14.8,14.7,22.1,32.4,22.1,53.3c0,20.8-7.4,38.5-22.1,53.2c-14.8,14.8-32.5,22.1-53.2,22.1c-21,0-38.8-7.4-53.3-22.1
			C75.6,235.1,68.3,217.4,68.3,196.6"/>
		<path class="st1" d="M219,196.6h-8.8V69.5c0-3.2-1.1-5.4-3.5-6.6c-0.8-0.4-1.7-0.7-2.8-0.9l-1.3-0.2H16.4c-3.3,0-5.5,1.1-6.6,3.4
			c-0.6,1.3-1,2.8-1.1,4.2v186.1c0,3.2,1.1,5.4,3.4,6.5c1.3,0.6,2.8,1.1,4.2,1.1h123.4l3.9,8.8h-130c-2.3,0-4.5-0.6-6.8-1.7
			C2.3,267.9,0,264,0,258.2V66.7c0-2.3,0.6-4.5,1.8-6.8C4,55.3,7.9,53,13.6,53h191.7l2.1,0.2c1.7,0.2,3.3,0.7,4.7,1.5
			c4.5,2.3,6.8,6.2,6.8,11.9L219,196.6L219,196.6z"/>
		<g>
			<path class="st2" d="M75.9,130.4h-8.5l-8-28.3c-0.3-1.2-0.8-3-1.3-5.4c-0.5-2.4-0.8-4-1-4.9c-0.2,1.4-0.6,3.2-1.1,5.4
				c-0.5,2.3-0.9,3.9-1.2,4.9l-7.9,28.1h-8.4l-6.1-23.8l-6.2-23.7h7.9l6.8,27.6c1.1,4.5,1.8,8.4,2.3,11.8c0.2-1.9,0.6-3.9,1.1-6.2
				c0.5-2.3,0.9-4.1,1.3-5.5l7.7-27.7H61l7.9,27.8c0.7,2.6,1.5,6.4,2.4,11.5c0.3-3.1,1.1-7.1,2.4-11.8l6.7-27.6h7.9L75.9,130.4z"/>
		</g>
		<g>
			<rect x="97.4" y="159.1" class="st3" width="91.7" height="6.8"/>
			<rect x="97.4" y="182.7" class="st3" width="91.7" height="6.8"/>
			<rect x="97.4" y="205.7" class="st3" width="62.7" height="6.8"/>
			<rect x="97.4" y="229.4" class="st3" width="33.4" height="6.8"/>
		</g>
	</g>
</g>
<circle class="st4" cx="207.7" cy="65" r="63.7"/>
<path class="st0" d="M217.8,26.6c37.6,25.6,25.5,53.8,25.5,53.8s10.7,12.1,6.4,22.6c0,0-4.4-7.4-11.8-7.4c-7.1,0-11.3,7.4-25.7,7.4
	c-32,0-47.1-26.7-47.1-26.7c28.8,18.9,48.5,5.5,48.5,5.5c-13-7.5-40.6-43.5-40.6-43.5c24,20.5,34.4,25.9,34.4,25.9
	C201.2,59,183.8,34,183.8,34c13.9,14.1,41.5,33.7,41.5,33.7C233.2,46,217.8,26.6,217.8,26.6z"/>
<g>
</g>
<g>
</g>
<g>
</g>
<g>
</g>
<g>
</g>
<g>
</g>
<g>
</g>
<g>
</g>
<g>
</g>
<g>
</g>
</svg>
