<?xml version="1.0" encoding="utf-8"?>
<!-- Generator: Adobe Illustrator 25.2.0, SVG Export Plug-In . SVG Version: 6.00 Build 0)  -->
<svg version="1.1" id="Layer_1" xmlns="http://www.w3.org/2000/svg" xmlns:xlink="http://www.w3.org/1999/xlink" x="0px" y="0px"
	 viewBox="0 0 272 272" style="enable-background:new 0 0 272 272;" xml:space="preserve">
<style type="text/css">
	.st0{fill-rule:evenodd;clip-rule:evenodd;fill:#FFFFFF;}
	.st1{fill-rule:evenodd;clip-rule:evenodd;fill:#22BAE6;}
	.st2{fill:#22BAE6;}
	.st3{fill:none;stroke:#FFFFFF;stroke-width:3;stroke-miterlimit:10;}
	.st4{fill:none;stroke:#FFFFFF;stroke-width:3;stroke-miterlimit:10;stroke-dasharray:4.8543,1.9417;}
	.st5{fill:none;stroke:#FFFFFF;stroke-width:3;stroke-miterlimit:10;stroke-dasharray:4.9649,1.9859;}
	.st6{fill:none;stroke:#FFFFFF;stroke-width:3;stroke-miterlimit:10;stroke-dasharray:5.0156,2.0062;}
	.st7{fill:none;stroke:#FFFFFF;stroke-width:3;stroke-miterlimit:10;stroke-dasharray:4.9498,1.9799;}
	.st8{fill:none;stroke:#FFFFFF;stroke-width:3;stroke-linecap:round;stroke-linejoin:round;stroke-miterlimit:10;}
	.st9{fill:#FFFFFF;stroke:#FFFFFF;stroke-width:0.3479;stroke-linecap:round;stroke-linejoin:round;stroke-miterlimit:10;}
	.st10{fill:none;stroke:#FFFFFF;stroke-width:5;stroke-miterlimit:10;}
	.st11{fill:none;stroke:#FFFFFF;stroke-width:2;stroke-linecap:round;stroke-linejoin:round;stroke-miterlimit:10;}
	
		.st12{opacity:0.5;fill:#FFFFFF;stroke:#FFFFFF;stroke-width:2;stroke-linecap:round;stroke-linejoin:round;stroke-miterlimit:10;enable-background:new    ;}
	.st13{fill:#672572;}
	.st14{fill:#FFFFFF;}
</style>
<g id="CAD">
	<path id="XMLID_8_" class="st0" d="M143.8,121c-20.9,0-38.7,7.4-53.3,22.1c-14.7,14.6-22.1,32.4-22.1,53.3s7.4,38.7,22.1,53.2
		c5.4,5.5,11.3,10,17.5,13.5H16.4c-1.5-0.1-2.8-0.5-4.2-1.2c-2.3-1.1-3.4-3.2-3.4-6.4V69.2c0.2-1.6,0.6-3.1,1.1-4.2
		c1.2-2.3,3.4-3.4,6.6-3.4h186.3l1.2,0.2c1.1,0.2,2,0.5,2.9,0.8c2.4,1.1,3.6,3.2,3.6,6.6v91.6c-3.5-6.3-8-12.3-13.5-17.7
		C182.1,128.4,164.4,121,143.8,121z"/>
	<g>
		<path id="XMLID_1_" class="st1" d="M143.8,121c20.6,0,38.4,7.4,53.2,22.1c5.5,5.4,10,11.4,13.4,17.7V69.2c0-3.3-1.2-5.5-3.6-6.6
			c-0.8-0.3-1.8-0.6-2.9-0.8l-1.2-0.2H16.4c-3.2,0-5.4,1.1-6.6,3.4c-0.6,1.2-0.9,2.6-1.1,4.2v186.2c0,3.2,1.1,5.4,3.4,6.4
			c1.4,0.7,2.8,1.1,4.2,1.2h91.6c-6.3-3.5-12.2-8-17.5-13.5c-14.7-14.5-22.1-32.3-22.1-53.2s7.4-38.7,22.1-53.3
			C105,128.4,122.8,121,143.8,121z M207.6,53c2,0.4,3.6,0.9,4.6,1.5c4.5,2.2,6.8,6.2,6.8,11.9v130c0,20.9-7.4,38.6-22.2,53.2
			C182,264.5,164.2,272,143.6,272h-130c-2.2,0-4.5-0.6-6.8-1.6C2.3,268,0,264,0,258.3V66.4c0-2.3,0.6-4.5,1.8-6.8
			C4,55,8,52.8,13.7,52.8h191.7L207.6,53z"/>
		<g>
			<path class="st2" d="M46.1,86.6c-4.5,0-8,1.6-10.6,4.7c-2.6,3.1-3.8,7.5-3.8,13.1c0,5.8,1.2,10.2,3.7,13.2c2.4,3,6,4.5,10.7,4.5
				c2,0,4-0.2,5.8-0.6c1.9-0.4,3.8-0.9,5.8-1.5v6.7c-3.7,1.4-8,2.1-12.7,2.1c-7,0-12.3-2.1-16-6.3c-3.7-4.2-5.6-10.1-5.6-18
				c0-5,0.9-9.3,2.7-13c1.8-3.7,4.5-6.6,7.9-8.5s7.5-2.9,12-2.9c4.9,0,9.3,1,13.5,3.1l-2.8,6.5c-1.6-0.7-3.3-1.5-5.1-2
				C49.9,86.9,48.1,86.6,46.1,86.6z"/>
			<path class="st2" d="M83.9,128.2l-1.2-4h-0.2c-1.4,1.7-2.8,2.9-4.1,3.6c-1.4,0.6-3.2,1-5.4,1c-2.8,0-5-0.7-6.6-2.3
				c-1.6-1.5-2.4-3.7-2.4-6.4c0-2.9,1.1-5.1,3.2-6.7c2.2-1.5,5.5-2.3,10-2.4l5-0.2v-1.5c0-1.8-0.4-3.2-1.3-4.1s-2.2-1.4-4-1.4
				c-1.5,0-2.8,0.2-4.2,0.6c-1.4,0.4-2.6,1-3.9,1.5l-1.9-4.4c1.5-0.8,3.2-1.5,5-1.9c1.8-0.4,3.6-0.6,5.2-0.6c3.7,0,6.3,0.8,8.2,2.4
				c1.9,1.5,2.8,4.1,2.8,7.5v19.2H83.9L83.9,128.2z M74.9,124c2.2,0,4-0.6,5.3-1.9c1.3-1.2,2-2.9,2-5.2v-2.5l-3.7,0.2
				c-2.8,0.1-5,0.6-6.3,1.5s-1.9,2.2-1.9,3.9c0,1.3,0.4,2.3,1.1,2.9C72.2,123.7,73.4,124,74.9,124z"/>
		</g>
	</g>
	<g>
		<g>
			<g>
				<polyline class="st3" points="184.2,230.5 184.2,232.6 182.1,232.6 				"/>
				<line class="st4" x1="180.5" y1="232.6" x2="109.6" y2="232.6"/>
				<polyline class="st3" points="108.9,232.6 106.8,232.6 106.8,230.5 				"/>
				<line class="st5" x1="106.8" y1="228.9" x2="106.8" y2="201.5"/>
				<polyline class="st3" points="106.8,200.7 106.8,198.7 108.3,197.2 				"/>
				<polyline class="st6" points="109.4,196.1 127.2,178.6 140.8,165 181.3,165 				"/>
				<polyline class="st3" points="182.1,165 184.2,165 184.2,167 				"/>
				<line class="st7" x1="184.2" y1="168.7" x2="184.2" y2="229.7"/>
			</g>
		</g>
		<rect x="155.8" y="192" class="st8" width="15.3" height="13.5"/>
		<rect x="162.7" y="198" class="st9" width="1.8" height="1.5"/>
		<polygon class="st10" points="148.9,157 102.4,157 102.4,203.1 		"/>
		<polygon class="st3" points="126.4,168.7 111.4,168.7 111.4,183.4 		"/>
		<line class="st8" x1="111.4" y1="156.7" x2="111.4" y2="161.4"/>
		<line class="st11" x1="122.8" y1="156.7" x2="122.8" y2="160.8"/>
		<line class="st8" x1="128.9" y1="157.5" x2="128.9" y2="159.4"/>
		<line class="st11" x1="134.9" y1="157.5" x2="134.9" y2="159.4"/>
		<line class="st11" x1="116.8" y1="157.5" x2="116.8" y2="160.1"/>
		<line class="st8" x1="163.6" y1="192" x2="163.6" y2="165"/>
		<line class="st8" x1="163.6" y1="232.1" x2="163.6" y2="205.8"/>
		<line class="st8" x1="155.8" y1="198.8" x2="106.8" y2="198.8"/>
		<line class="st8" x1="171.2" y1="198.8" x2="184.2" y2="198.8"/>
		<polygon class="st12" points="163.4,232.6 106.8,232.6 106.8,198.8 155.8,198.8 155.8,205.1 163.4,205.5 		"/>
	</g>
</g>
<circle class="st13" cx="207.7" cy="65" r="63.7"/>
<g id="XMLID_2_">
	<path id="XMLID_3_" class="st14" d="M225.9,47.5c0.6-0.5,0.9-1.2,0.9-2.1c0-0.8-0.2-1.4-0.7-1.9c-0.4-0.4-1-0.8-1.9-1.1
		c-0.8-0.3-1.3-0.6-1.5-0.8c-0.3-0.2-0.4-0.6-0.4-1s0.2-0.8,0.5-1c0.3-0.3,0.8-0.4,1.3-0.4c0.9,0,1.6,0.2,2.3,0.7v-1.6
		c-0.6-0.3-1.4-0.5-2.2-0.5c-1,0-1.9,0.3-2.6,0.8c-0.7,0.6-1,1.3-1,2.1s0.2,1.4,0.6,1.8c0.4,0.4,1,0.8,1.8,1.1
		c0.8,0.4,1.4,0.7,1.7,0.9c0.3,0.3,0.4,0.6,0.4,1c0,0.9-0.6,1.4-1.9,1.4c-1,0-1.8-0.3-2.6-1v1.7c0.7,0.4,1.6,0.6,2.5,0.6
		C224.3,48.4,225.2,48.1,225.9,47.5z"/>
	<path id="XMLID_29_" class="st14" d="M241.1,48.1h1.6v-8.7h2.4V38h-2.4v-1.6c0-1.4,0.6-2.1,1.7-2.1c0.4,0,0.8,0.1,1.1,0.3v-1.5
		c-0.3-0.1-0.7-0.2-1.2-0.2c-0.9,0-1.6,0.3-2.2,0.8c-0.7,0.6-1,1.5-1,2.6V38h-1.7v1.4h1.7L241.1,48.1L241.1,48.1z"/>
	<path id="XMLID_30_" class="st14" d="M189.5,35.4c0.3,0,0.5-0.1,0.8-0.3c0.2-0.2,0.3-0.5,0.3-0.8s-0.1-0.5-0.3-0.7
		s-0.5-0.3-0.8-0.3s-0.5,0.1-0.7,0.3s-0.3,0.5-0.3,0.7c0,0.3,0.1,0.6,0.3,0.8C189,35.3,189.2,35.4,189.5,35.4z"/>
	<path id="XMLID_31_" class="st14" d="M197.6,48.4c1.1,0,2-0.2,2.8-0.7v-1.5c-0.8,0.6-1.6,0.9-2.5,0.9c-1,0-1.9-0.3-2.5-1
		s-0.9-1.6-0.9-2.8s0.3-2.2,1-2.9c0.6-0.7,1.5-1.1,2.5-1.1c0.9,0,1.7,0.3,2.4,0.8v-1.7c-0.7-0.3-1.5-0.5-2.3-0.5
		c-1.6,0-2.9,0.5-3.8,1.5c-1,1-1.4,2.4-1.4,4c0,1.5,0.4,2.7,1.3,3.6C195,47.9,196.2,48.4,197.6,48.4z"/>
	<path id="XMLID_34_" class="st14" d="M255.2,38.8h0.3c0.2,0,0.4,0.2,0.6,0.6l0.4,0.8h0.6l-0.5-0.9c-0.2-0.4-0.4-0.6-0.6-0.6l0,0
		c0.3-0.1,0.5-0.2,0.6-0.3c0.2-0.2,0.2-0.4,0.2-0.6c0-0.3-0.1-0.5-0.3-0.6c-0.2-0.2-0.5-0.3-1-0.3h-1v3.4h0.5v-1.5H255.2z
		 M255.2,37.2h0.4c0.3,0,0.5,0.1,0.6,0.2c0.1,0.1,0.2,0.2,0.2,0.4c0,0.4-0.2,0.6-0.7,0.6h-0.5V37.2z"/>
	<path id="XMLID_35_" class="st14" d="M247.7,45.4c0,2,0.9,3,2.6,3c0.6,0,1.1-0.1,1.5-0.3v-1.4c-0.3,0.2-0.6,0.3-1,0.3
		c-0.5,0-0.9-0.1-1.2-0.4c-0.2-0.3-0.3-0.8-0.3-1.4v-5.7h2.5V38h-2.5v-3c-0.6,0.2-1.1,0.4-1.6,0.5V38H246v1.4h1.7V45.4z"/>
	<path id="XMLID_40_" class="st14" d="M255.8,41.2c0.8,0,1.4-0.3,1.9-0.8s0.8-1.1,0.8-1.9c0-0.8-0.3-1.4-0.8-1.9s-1.1-0.7-1.9-0.7
		c-0.8,0-1.4,0.3-1.9,0.8s-0.8,1.2-0.8,1.9c0,0.8,0.3,1.4,0.8,1.9C254.3,41,255,41.2,255.8,41.2z M254.1,36.9c0.5-0.5,1-0.7,1.7-0.7
		s1.2,0.2,1.7,0.7s0.7,1,0.7,1.7s-0.2,1.3-0.7,1.7c-0.5,0.5-1,0.7-1.7,0.7s-1.2-0.2-1.7-0.7s-0.7-1-0.7-1.7
		C253.4,37.9,253.6,37.3,254.1,36.9z"/>
	<rect id="XMLID_41_" x="188.7" y="38" class="st14" width="1.6" height="10.1"/>
	<path id="XMLID_44_" class="st14" d="M213.7,48.4c1.5,0,2.8-0.5,3.7-1.5s1.4-2.3,1.4-3.9c0-1.6-0.4-2.9-1.3-3.9
		c-0.8-0.9-2-1.4-3.5-1.4s-2.8,0.4-3.7,1.3c-1,1-1.5,2.3-1.5,4.1c0,1.5,0.4,2.8,1.3,3.7C211,47.9,212.2,48.4,213.7,48.4z
		 M211.4,40.1c0.6-0.7,1.4-1,2.4-1s1.8,0.3,2.4,1c0.6,0.7,0.9,1.7,0.9,3c0,1.2-0.3,2.2-0.8,2.9c-0.6,0.7-1.4,1-2.4,1s-1.8-0.3-2.5-1
		c-0.6-0.7-0.9-1.6-0.9-2.8C210.5,41.8,210.8,40.8,211.4,40.1z"/>
	<path id="XMLID_47_" class="st14" d="M237,46.9c0.9-1,1.4-2.3,1.4-3.9c0-1.6-0.4-2.9-1.3-3.9c-0.8-0.9-2-1.4-3.5-1.4
		s-2.8,0.4-3.7,1.3c-1,1-1.5,2.3-1.5,4.1c0,1.5,0.4,2.8,1.3,3.7c0.9,1,2.1,1.5,3.6,1.5C234.9,48.4,236.1,47.9,237,46.9z M230.1,43.1
		c0-1.3,0.3-2.3,1-3c0.6-0.7,1.4-1,2.4-1s1.8,0.3,2.4,1c0.6,0.7,0.9,1.7,0.9,3c0,1.2-0.3,2.2-0.8,2.9c-0.6,0.7-1.4,1-2.4,1
		s-1.8-0.3-2.5-1S230.1,44.3,230.1,43.1z"/>
	<polygon id="XMLID_48_" class="st14" points="213.2,73 226.6,73 226.6,69.1 213.2,69.1 213.2,56.7 227.7,56.7 227.7,52.8 
		208.8,52.8 208.8,89.9 228.5,89.9 228.5,86 213.2,86 	"/>
	<polygon id="XMLID_49_" class="st14" points="232.6,56.7 243.3,56.7 243.3,89.9 247.7,89.9 247.7,56.7 258.4,56.7 258.4,52.8 
		232.6,52.8 	"/>
	<path id="XMLID_50_" class="st14" d="M161.4,84.7c-0.8,0-1.5,0.3-2,0.9c-0.6,0.6-0.8,1.3-0.8,2.1c0,0.8,0.3,1.5,0.8,2.1
		c0.6,0.6,1.2,0.9,2,0.9s1.5-0.3,2.1-0.9s0.9-1.3,0.9-2.1c0-0.8-0.3-1.5-0.9-2.1C162.9,85,162.3,84.7,161.4,84.7z"/>
	<path id="XMLID_51_" class="st14" d="M205.6,38.4c-0.5,0.4-0.9,1-1.1,1.7l0,0V38h-1.6v10.1h1.6V43c0-1.2,0.3-2.1,0.8-2.8
		c0.4-0.6,1-0.9,1.7-0.9c0.5,0,1,0.1,1.2,0.3V38c-0.2-0.1-0.5-0.1-1-0.1C206.6,37.8,206,38,205.6,38.4z"/>
	<polygon id="XMLID_52_" class="st14" points="172.2,35.9 172.3,35.9 177.5,48.1 178.3,48.1 183.6,35.9 183.6,35.9 183.5,48.1 
		185.2,48.1 185.2,34 183.1,34 178,45.5 177.9,45.5 172.9,34 170.7,34 170.7,48.1 172.3,48.1 	"/>
	<polygon id="XMLID_53_" class="st14" points="196.3,84.2 176.4,52.8 170.7,52.8 170.7,89.9 175.1,89.9 175.1,58.1 195.3,89.9 
		200.6,89.9 200.6,52.8 196.3,52.8 	"/>
</g>
</svg>
