<?xml version="1.0" encoding="utf-8"?>
<!-- Generator: Adobe Illustrator 25.2.0, SVG Export Plug-In . SVG Version: 6.00 Build 0)  -->
<svg version="1.1" id="Layer_1" xmlns="http://www.w3.org/2000/svg" xmlns:xlink="http://www.w3.org/1999/xlink" x="0px" y="0px"
	 viewBox="0 0 272 272" style="enable-background:new 0 0 272 272;" xml:space="preserve">
<style type="text/css">
	.st0{fill:#FFFFFF;}
	.st1{fill-rule:evenodd;clip-rule:evenodd;fill:#22BAE6;}
	.st2{fill:#22BAE6;}
	.st3{fill:#4F5C93;}
</style>
<g id="BarCode">
	<path class="st0" d="M198,241.8c-25.3,30-105.9,24.7-105.9,24.7H5.4V60.1h209v101.1C214.4,161.2,215.4,221.2,198,241.8z"/>
	<g>
		<path class="st1" d="M68.3,196.6c0-20.9,7.3-38.7,22-53.4c14.6-14.7,32.4-22,53.4-22c20.7,0,38.4,7.3,53.2,22s22.1,32.4,22.1,53.4
			c0,20.8-7.4,38.5-22.1,53.2c-14.8,14.8-32.5,22.1-53.2,22.1c-21,0-38.8-7.4-53.4-22.1C75.6,235.2,68.3,217.4,68.3,196.6"/>
		<path class="st1" d="M219,196.6h-8.8V69.5c0-3.2-1.1-5.4-3.5-6.6c-0.8-0.4-1.8-0.7-2.8-0.9l-1.3-0.2H16.4c-3.3,0-5.5,1.1-6.6,3.4
			c-0.6,1.3-1.1,2.8-1.1,4.2v186.1c0,3.2,1.1,5.4,3.4,6.5c1.3,0.6,2.7,1.1,4.2,1.1h123.4l3.9,8.8h-130c-2.3,0-4.5-0.6-6.8-1.7
			c-4.5-2.3-6.8-6.2-6.8-12V66.8c0-2.3,0.6-4.5,1.8-6.8c2.3-4.5,6.2-6.8,11.9-6.8h191.7l2.1,0.2c1.7,0.2,3.3,0.7,4.7,1.5
			c4.5,2.3,6.8,6.2,6.8,11.9V196.6L219,196.6z"/>
		<g>
			<g>
				<path class="st2" d="M26.5,125.6V79.3h17.4c3.6,0,6.4,0.5,8.5,1.4c2.1,1,3.8,2.4,5,4.4c1.2,1.9,1.8,4,1.8,6.2
					c0,1.9-0.6,3.9-1.6,5.6c-1.1,1.8-2.7,3.2-4.9,4.2c2.8,0.8,4.9,2.2,6.5,4.2c1.5,1.9,2.3,4.3,2.3,7.1c0,2.2-0.5,4.2-1.4,6.1
					s-2,3.3-3.4,4.3c-1.4,1.1-3.1,1.8-5.1,2.3s-4.5,0.8-7.5,0.8L26.5,125.6L26.5,125.6z M32.7,98.7h10.1c2.8,0,4.7-0.2,5.8-0.6
					c1.5-0.5,2.8-1.2,3.6-2.4c0.8-1.1,1.2-2.4,1.2-4.1c0-1.5-0.4-2.9-1.1-4.1c-0.7-1.1-1.8-1.9-3.2-2.4c-1.4-0.4-3.7-0.6-7.1-0.6
					h-9.3C32.7,84.5,32.7,98.7,32.7,98.7z M32.7,120.2h11.6c1.9,0,3.4-0.1,4.2-0.2c1.4-0.2,2.6-0.6,3.6-1.3c1-0.6,1.7-1.5,2.4-2.6
					c0.6-1.1,0.9-2.4,0.9-3.9c0-1.7-0.4-3.2-1.3-4.5s-2.1-2.2-3.7-2.7c-1.5-0.5-3.8-0.8-6.8-0.8H32.7V120.2z"/>
			</g>
		</g>
	</g>
	<g id="Bars_4_">
		<rect x="104.2" y="167.6" class="st0" width="9.4" height="48.6"/>
		<rect x="117.6" y="167.6" class="st0" width="5.5" height="48.6"/>
		<rect x="127" y="167.6" class="st0" width="5.5" height="48.6"/>
		<rect x="136.2" y="167.6" class="st0" width="3.6" height="48.6"/>
		<rect x="141.4" y="167.6" class="st0" width="5.2" height="48.6"/>
		<rect x="150.7" y="167.6" class="st0" width="3.2" height="48.6"/>
		<rect x="160.3" y="167.6" class="st0" width="5.4" height="48.6"/>
		<rect x="167.4" y="167.2" class="st0" width="2.7" height="48.6"/>
		<rect x="174.3" y="167.2" class="st0" width="5.8" height="48.6"/>
		<rect x="174.3" y="219.9" class="st0" width="5.8" height="5.4"/>
		<rect x="160.3" y="219.9" class="st0" width="9.9" height="5.4"/>
		<rect x="150.7" y="219.9" class="st0" width="4.9" height="5.4"/>
		<rect x="127" y="219.9" class="st0" width="5.5" height="5.4"/>
		<rect x="104.2" y="219.9" class="st0" width="5.5" height="5.4"/>
		<rect x="117.6" y="219.9" class="st0" width="5.5" height="5.4"/>
		<rect x="136.2" y="219.9" class="st0" width="10.2" height="5.4"/>
	</g>
</g>
<circle class="st3" cx="207.7" cy="65" r="63.7"/>
<g>
	<path class="st0" d="M176.5,56.8c3.3,0,5.4,0.6,6.5,1.8s1.3,3.3,0.8,6.2c-0.6,3-1.7,5.2-3.4,6.5s-4.2,1.9-7.7,1.9h-5.2l3.2-16.4
		C170.7,56.8,176.5,56.8,176.5,56.8z M155.7,89.8h8.5l2-10.4h7.3c3.3,0,5.9-0.3,8-1s4-1.8,5.7-3.4c1.5-1.3,2.6-2.8,3.5-4.4
		s1.5-3.3,1.9-5.2c0.9-4.6,0.2-8.2-2-10.9c-2.3-2.6-5.9-3.9-10.8-3.9h-16.4L155.7,89.8z"/>
	<path class="st0" d="M198.9,40.2h8.5l-2,10.4h7.6c4.8,0,8,0.8,9.8,2.5s2.3,4.4,1.6,8.1l-3.5,18.2h-8.6l3.4-17.4
		c0.4-2,0.2-3.3-0.4-4c-0.6-0.7-2.1-1.1-4.2-1.1h-6.8l-4.4,22.5h-8.5L198.9,40.2z"/>
	<path class="st0" d="M243.2,56.8c3.3,0,5.4,0.6,6.5,1.8s1.3,3.3,0.8,6.2c-0.6,3-1.7,5.2-3.4,6.5s-4.2,1.9-7.7,1.9h-5.2l3.2-16.4
		C237.4,56.8,243.2,56.8,243.2,56.8z M222.4,89.8h8.5l2-10.4h7.3c3.3,0,5.9-0.3,8-1s4-1.8,5.7-3.4c1.5-1.3,2.6-2.8,3.5-4.4
		s1.5-3.3,1.9-5.2c0.9-4.6,0.2-8.2-2-10.9c-2.3-2.6-5.9-3.9-10.8-3.9H230L222.4,89.8z"/>
</g>
</svg>
