<?xml version="1.0" encoding="utf-8"?>
<!-- Generator: Adobe Illustrator 25.2.0, SVG Export Plug-In . SVG Version: 6.00 Build 0)  -->
<svg version="1.1" id="Layer_1" xmlns="http://www.w3.org/2000/svg" xmlns:xlink="http://www.w3.org/1999/xlink" x="0px" y="0px"
	 viewBox="0 0 272 272" style="enable-background:new 0 0 272 272;" xml:space="preserve">
<style type="text/css">
	.st0{fill:#FFFFFF;}
	.st1{fill-rule:evenodd;clip-rule:evenodd;fill:#22BAE6;}
	.st2{fill:#22BAE6;}
	.st3{fill:#8CC84B;}
</style>
<g id="Slides">
	<polygon class="st0" points="210.7,64.1 203.5,59.5 14.5,59.5 7.4,66.6 7.4,256.3 12,262.4 153.1,262.4 210.7,189.4 	"/>
	<path class="st1" d="M68.3,196.6c0-20.9,7.3-38.7,22-53.4c14.6-14.7,32.4-22,53.4-22c20.7,0,38.4,7.3,53.2,22
		c14.8,14.7,22.1,32.4,22.1,53.4c0,20.8-7.4,38.5-22.1,53.2c-14.8,14.8-32.5,22.1-53.2,22.1c-21,0-38.8-7.4-53.4-22.1
		C75.6,235.1,68.3,217.3,68.3,196.6"/>
	<path class="st1" d="M218.9,196.6h-8.8V69.4c0-3.2-1.1-5.4-3.5-6.6c-0.8-0.4-1.7-0.7-2.8-0.9l-1.3-0.2H16.4c-3.3,0-5.5,1.1-6.6,3.4
		c-0.6,1.3-1,2.8-1.1,4.2v186.1c0,3.2,1.1,5.4,3.4,6.5c1.3,0.6,2.7,1.1,4.2,1.1h123.4l3.9,8.8h-130c-2.3,0-4.5-0.6-6.8-1.7
		C2.3,268,0,264,0,258.3V66.6c0-2.3,0.6-4.5,1.8-6.8C4.1,55.3,8,53,13.7,53h191.6l2.1,0.2c1.7,0.2,3.3,0.7,4.7,1.5
		c4.5,2.3,6.8,6.2,6.8,11.9V196.6z"/>
	<g>
		<path class="st2" d="M59,112c0,4.2-1.5,7.5-4.5,9.8c-3,2.4-7.1,3.6-12.5,3.6c-5.3,0-9.7-0.8-13.1-2.5v-7.2c2.1,1,4.4,1.8,6.8,2.4
			c2.4,0.6,4.6,0.9,6.7,0.9c3.1,0,5.3-0.6,6.7-1.7c1.5-1.1,2.2-2.7,2.2-4.6c0-1.8-0.6-3.2-1.9-4.5c-1.3-1.2-4.1-2.7-8.2-4.3
			c-4.3-1.7-7.3-3.7-9.1-5.9c-1.8-2.2-2.6-4.9-2.6-8c0-3.9,1.4-7,4.1-9.2c2.8-2.3,6.5-3.4,11.2-3.4c4.5,0,8.9,1,13.4,2.9l-2.4,6.2
			c-4.2-1.8-7.9-2.6-11.2-2.6c-2.5,0-4.4,0.6-5.7,1.6c-1.3,1.1-1.9,2.5-1.9,4.3c0,1.2,0.2,2.3,0.8,3.2c0.6,0.9,1.4,1.7,2.5,2.4
			c1.2,0.8,3.3,1.8,6.3,3.1c3.4,1.5,6,2.8,7.5,4c1.5,1.2,2.8,2.7,3.5,4.2C58.6,108.1,59,109.9,59,112z"/>
	</g>
	<g id="Symbol_4_">
		<path class="st0" d="M144.1,182c0,12.7-10.2,23-22.9,23s-22.9-10.3-22.9-23c0-12.7,10.2-23,22.9-23c0.9,0,0,0,0,0v23
			c0,0,0,0,20.7-10.1C143.2,173.9,144.1,177.1,144.1,182z"/>
		<path class="st0" d="M123.9,154v22.1l20.2-9.9C144.1,166.2,139.2,153.6,123.9,154z"/>
		<rect x="151.8" y="162.3" class="st0" width="35.4" height="1.5"/>
		<rect x="151.8" y="178.9" class="st0" width="35.4" height="1.5"/>
		<rect x="151.8" y="196.6" class="st0" width="35.4" height="1.5"/>
		<rect x="109.3" y="215.6" class="st0" width="77.8" height="1.5"/>
		<rect x="109.3" y="233.1" class="st0" width="77.8" height="1.5"/>
		<rect x="98.3" y="213.7" class="st0" width="6.9" height="7.1"/>
		<rect x="98.3" y="230.3" class="st0" width="6.9" height="7.1"/>
	</g>
</g>
<g>
	<circle class="st3" cx="207.7" cy="65" r="62.7"/>
	<path class="st0" d="M207.7,3.3c34,0,61.7,27.7,61.7,61.7s-27.7,61.7-61.7,61.7S146,99.1,146,65S173.7,3.3,207.7,3.3 M207.7,1.3
		C172.5,1.3,144,29.8,144,65s28.5,63.7,63.7,63.7s63.7-28.5,63.7-63.7S242.9,1.3,207.7,1.3L207.7,1.3z"/>
</g>
<g>
	<path class="st0" d="M204.5,27c1.9-1.1,4.4-1.1,6.4,0c9.7,5.5,19.4,10.9,29,16.4c1.8,1,3,3,3,5.1v32.9c0,2.2-1.3,4.3-3.2,5.3
		c-9.6,5.4-19.3,10.9-28.9,16.3c-2,1.1-4.5,1-6.4-0.2c-2.9-1.7-5.8-3.3-8.7-5c-0.6-0.4-1.3-0.6-1.7-1.2c0.4-0.5,1-0.6,1.6-0.8
		c1.2-0.4,2.3-1,3.4-1.6c0.3-0.2,0.6-0.1,0.9,0.1c2.5,1.4,4.9,2.9,7.4,4.3c0.5,0.3,1.1-0.1,1.5-0.4c9.5-5.3,18.9-10.7,28.4-16
		c0.4-0.2,0.5-0.5,0.5-0.9c0-10.8,0-21.7,0-32.6c0-0.4-0.2-0.8-0.6-1c-9.6-5.4-19.2-10.8-28.8-16.2c-0.3-0.2-0.8-0.2-1.1,0
		c-9.6,5.4-19.2,10.8-28.8,16.3c-0.4,0.2-0.7,0.6-0.6,1c0,10.8,0,21.7,0,32.6c0,0.4,0.2,0.7,0.5,0.9c2.6,1.5,5.1,2.9,7.7,4.3
		c1.4,0.8,3.2,1.2,4.8,0.6c1.4-0.5,2.4-1.9,2.4-3.4c0-10.8,0-21.6,0-32.4c0-0.5,0.4-0.9,0.9-0.8c1.2,0,2.5,0,3.7,0
		c0.5,0,0.9,0.5,0.8,1c0,10.9,0,21.7,0,32.6c0,2.9-1.2,6-3.9,7.5c-3.3,1.7-7.4,1.3-10.6-0.3c-2.8-1.4-5.5-3.1-8.3-4.6
		c-1.9-1-3.3-3.1-3.2-5.3V48.6c0-2.1,1.2-4.2,3.1-5.2C185.2,37.9,194.9,32.5,204.5,27z"/>
	<path class="st0" d="M212.9,49.8c4.2-0.3,8.7-0.2,12.5,1.9c2.9,1.6,4.6,4.9,4.6,8.2c-0.1,0.4-0.5,0.7-1,0.7c-1.2,0-2.4,0-3.7,0
		c-0.5,0-0.8-0.5-0.9-0.9c-0.4-1.6-1.2-3.1-2.7-3.9c-2.3-1.1-4.9-1.1-7.3-1c-1.8,0.1-3.7,0.3-5.2,1.3c-1.2,0.8-1.5,2.4-1.1,3.7
		c0.4,0.9,1.5,1.2,2.3,1.5c5.1,1.3,10.4,1.2,15.4,2.9c2.1,0.7,4.1,2.1,4.8,4.2c0.9,2.9,0.5,6.3-1.5,8.7c-1.7,1.9-4.1,2.9-6.5,3.5
		c-3.2,0.7-6.6,0.7-9.8,0.4c-3.1-0.4-6.3-1.2-8.6-3.3c-2-1.8-3-4.5-2.9-7.2c0-0.4,0.5-0.8,0.9-0.7c1.2,0,2.5,0,3.7,0
		c0.5,0,0.9,0.4,0.9,0.9c0.2,1.5,0.8,3,2.1,3.9c2.5,1.6,5.6,1.5,8.5,1.5c2.4-0.1,5-0.1,7-1.7c1-0.9,1.3-2.4,1-3.7
		c-0.3-1.1-1.4-1.6-2.4-1.9c-5-1.6-10.4-1-15.4-2.8c-2-0.7-4-2.1-4.7-4.1c-1.1-2.9-0.6-6.5,1.7-8.8C206.7,51,209.9,50.1,212.9,49.8
		L212.9,49.8z"/>
</g>
</svg>
