<?xml version="1.0" encoding="utf-8"?>
<!-- Generator: Adobe Illustrator 25.2.0, SVG Export Plug-In . SVG Version: 6.00 Build 0)  -->
<svg version="1.1" id="Layer_1" xmlns="http://www.w3.org/2000/svg" xmlns:xlink="http://www.w3.org/1999/xlink" x="0px" y="0px"
	 viewBox="0 0 272 272" style="enable-background:new 0 0 272 272;" xml:space="preserve">
<style type="text/css">
	.st0{fill:#FFFFFF;}
	.st1{fill-rule:evenodd;clip-rule:evenodd;fill:#22BAE6;}
	.st2{fill-rule:evenodd;clip-rule:evenodd;fill:#FFFFFF;}
	.st3{fill:#DADADA;}
	.st4{fill:url(#SVGID_1_);}
	.st5{fill:url(#SVGID_2_);}
</style>
<g id="Tasks">
	<polygon class="st0" points="213.7,63 206.3,58.3 12.4,58.3 5,65.7 5,260.1 9.8,266.3 154.7,266.3 213.7,191.6 	"/>
	<path class="st1" d="M68.2,196.5c0-20.9,7.3-38.7,22-53.3c14.6-14.7,32.3-22,53.3-22c20.7,0,38.4,7.3,53.2,22
		c14.8,14.7,22.2,32.4,22.2,53.3c0,20.8-7.4,38.5-22.2,53.2c-14.7,14.7-32.5,22.2-53.2,22.2c-21,0-38.7-7.4-53.3-22.2
		C75.6,235,68.2,217.3,68.2,196.5"/>
	<path class="st1" d="M218.8,196.5h-8.8V69.4c0-3.2-1.2-5.4-3.5-6.6c-0.9-0.4-1.8-0.7-2.9-0.9l-1.3-0.2H16.4c-3.3,0-5.5,1.2-6.6,3.4
		c-0.6,1.3-1,2.7-1.1,4.3v186.1c0,3.2,1.2,5.4,3.4,6.5c1.3,0.6,2.7,1.1,4.3,1.2h123.3l3.8,8.8H13.6c-2.2,0-4.6-0.5-6.8-1.7
		c-4.6-2.2-6.8-6.3-6.8-12V66.6c0-2.2,0.5-4.6,1.8-6.8C4.1,55.2,8.1,53,13.8,53h191.5l2.1,0.2c1.7,0.2,3.3,0.7,4.7,1.5
		c4.6,2.2,6.8,6.3,6.8,11.9v129.9H218.8z"/>
	<g>
		<path class="st1" d="M95,88l-16.9,16.4l15.9,23.8h-6l-13.4-20l-6.4,6.4l-0.1,13.5h-5.6l0.2-40.2h5.6l-0.1,19.9L88.7,88H95z
			 M24.2,84.8v-5.1l37.9,0.2v5.1L47,84.8L46.8,128h-6.7l0.2-43.2L24.2,84.8z"/>
	</g>
	<path class="st2" d="M110.6,162.8l-0.3,68.2l68.2,0.3l0.3-68.2L110.6,162.8z M105.4,235.9l0.4-78l77.8,0.4l-0.4,78L105.4,235.9z
		 M173.7,181.2l-34.2,34l-24.2-24.5l9.8-9.7l14.5,14.6l24.4-24.2L173.7,181.2z"/>
</g>
<g>
	<circle class="st0" cx="207.7" cy="65" r="62.7"/>
	<path class="st3" d="M207.7,3.3c34,0,61.7,27.7,61.7,61.7s-27.7,61.7-61.7,61.7S146,99.1,146,65S173.7,3.3,207.7,3.3 M207.7,1.3
		C172.5,1.3,144,29.8,144,65s28.5,63.7,63.7,63.7s63.7-28.5,63.7-63.7S242.9,1.3,207.7,1.3L207.7,1.3z"/>
</g>
<g>
	
		<linearGradient id="SVGID_1_" gradientUnits="userSpaceOnUse" x1="1.9236" y1="272.8295" x2="2.1269" y2="272.6277" gradientTransform="matrix(189.3834 0 0 -189.8058 -188.2389 51818.043)">
		<stop  offset="0" style="stop-color:#387EB8"/>
		<stop  offset="1" style="stop-color:#366994"/>
	</linearGradient>
	<path class="st4" d="M207.4,26.3c-19.8,0-18.5,8.6-18.5,8.6v8.9h18.9v2.7h-26.4c0,0-12.6-1.4-12.6,18.5s11,19.2,11,19.2h6.6v-9.3
		c0,0-0.4-11,10.9-11H216c0,0,10.5,0.2,10.5-10.2V36.6C226.5,36.6,228.1,26.3,207.4,26.3L207.4,26.3L207.4,26.3z M197,32.3
		c1.9,0,3.4,1.5,3.4,3.4S198.9,39,197,39s-3.4-1.5-3.4-3.4S195.1,32.3,197,32.3L197,32.3L197,32.3z"/>
	
		<linearGradient id="SVGID_2_" gradientUnits="userSpaceOnUse" x1="1.7003" y1="273.0388" x2="1.9187" y2="272.8319" gradientTransform="matrix(189.3834 0 0 -189.8058 -122.2384 51882.3047)">
		<stop  offset="0" style="stop-color:#FFE052"/>
		<stop  offset="1" style="stop-color:#FFC331"/>
	</linearGradient>
	<path class="st5" d="M208,103.7c19.8,0,18.5-8.6,18.5-8.6v-8.9h-18.9v-2.7H234c0,0,12.6,1.4,12.6-18.5s-11-19.2-11-19.2H229v9.3
		c0,0,0.4,11-10.9,11h-18.7c0,0-10.5-0.2-10.5,10.2v17.1C188.9,93.4,187.3,103.7,208,103.7L208,103.7L208,103.7z M218.4,97.8
		c-1.9,0-3.4-1.5-3.4-3.4s1.5-3.4,3.4-3.4s3.4,1.5,3.4,3.4C221.8,96.3,220.3,97.8,218.4,97.8L218.4,97.8L218.4,97.8z"/>
</g>
</svg>
