<?xml version="1.0" encoding="utf-8"?>
<!-- Generator: Adobe Illustrator 25.2.0, SVG Export Plug-In . SVG Version: 6.00 Build 0)  -->
<svg version="1.1" id="Layer_1" xmlns="http://www.w3.org/2000/svg" xmlns:xlink="http://www.w3.org/1999/xlink" x="0px" y="0px"
	 viewBox="0 0 272 272" style="enable-background:new 0 0 272 272;" xml:space="preserve">
<style type="text/css">
	.st0{fill-rule:evenodd;clip-rule:evenodd;fill:#FFFFFF;}
	.st1{fill-rule:evenodd;clip-rule:evenodd;fill:#22BAE6;}
	.st2{fill:#22BAE6;}
	.st3{fill:#DBDBDD;}
	.st4{fill:#EFEDF0;}
	.st5{fill:#FFFFFF;}
	.st6{fill:#3A3C5B;}
</style>
<g id="_x33_D">
	<path id="XMLID_3_" class="st0" d="M143.6,121.2c-20.9,0-38.7,7.4-53.3,22.1c-14.7,14.6-22.1,32.4-22.1,53.3s7.4,38.7,22.1,53.2
		c5.4,5.5,11.3,10,17.5,13.5H16.4c-1.5-0.1-2.8-0.5-4.2-1.2c-2.3-1.1-3.4-3.2-3.4-6.4V69.4c0.2-1.6,0.6-3.1,1.1-4.2
		c1.2-2.3,3.4-3.4,6.6-3.4h186.1l1.2,0.2c1.1,0.2,2,0.5,2.9,0.8c2.4,1.1,3.6,3.2,3.6,6.6v91.5c-3.5-6.3-7.9-12.2-13.5-17.7
		C181.9,128.6,164.2,121.2,143.6,121.2z"/>
	<g>
		<path id="XMLID_1_" class="st1" d="M143.6,121.2c20.6,0,38.4,7.4,53.1,22.1c5.5,5.4,10,11.4,13.4,17.7V69.4c0-3.3-1.2-5.5-3.6-6.6
			c-0.8-0.3-1.8-0.6-2.9-0.8l-1.2-0.2h-186c-3.2,0-5.4,1.1-6.6,3.4c-0.6,1.2-0.9,2.6-1.1,4.2v186c0,3.2,1.1,5.4,3.4,6.4
			c1.4,0.7,2.8,1.1,4.2,1.2h91.5c-6.3-3.5-12.2-7.9-17.5-13.5c-14.7-14.5-22.1-32.3-22.1-53.2s7.4-38.7,22.1-53.3
			C104.9,128.6,122.7,121.2,143.6,121.2z M207.3,53.2c2,0.4,3.6,0.9,4.6,1.5c4.5,2.2,6.8,6.2,6.8,11.9v129.9
			c0,20.8-7.4,38.5-22.2,53.2C181.8,264.5,164,272,143.4,272H13.6c-2.2,0-4.5-0.6-6.8-1.6C2.3,268,0,264,0,258.3V66.6
			c0-2.3,0.6-4.5,1.8-6.8C4,55.3,7.9,53,13.7,53h191.5L207.3,53.2z"/>
		<g>
			<path class="st2" d="M55.3,91.8c0,3-0.9,5.5-2.6,7.5c-1.8,2-4.2,3.3-7.4,4.1v0.2c3.8,0.5,6.6,1.7,8.6,3.6
				c1.9,1.9,2.8,4.4,2.8,7.5c0,4.5-1.6,8.1-4.9,10.5c-3.2,2.5-7.8,3.7-13.8,3.7c-5.3,0-9.7-0.9-13.3-2.6v-6.8c2,1,4.1,1.8,6.4,2.3
				c2.3,0.6,4.5,0.8,6.5,0.8c3.6,0,6.4-0.6,8.3-2c1.9-1.4,2.8-3.5,2.8-6.3c0-2.5-1-4.4-3-5.6s-5.2-1.8-9.5-1.8h-4.1v-6.2h4.2
				c7.5,0,11.4-2.6,11.4-7.9c0-2-0.6-3.6-1.9-4.7c-1.3-1.1-3.2-1.6-5.8-1.6c-1.8,0-3.5,0.2-5.2,0.7s-3.6,1.5-5.9,3l-3.7-5.4
				c4.4-3.2,9.4-4.8,15.2-4.8c4.8,0,8.5,1.1,11.2,3.1C54,85.3,55.3,88.1,55.3,91.8z"/>
			<path class="st2" d="M99.8,104.1c0,7.9-2.2,13.9-6.6,18s-10.6,6.2-18.8,6.2H61.2V80.8h14.7c7.5,0,13.5,2,17.6,6.1
				C97.7,91,99.8,96.7,99.8,104.1z M91.6,104.4c0-11.4-5.4-17-16-17h-6.7v34.5h5.5C85.9,121.8,91.6,116,91.6,104.4z"/>
		</g>
	</g>
	<g id="Box_1_">
		<polygon class="st3" points="102.2,158.2 147.1,168.7 190.4,158.2 146.3,145.4 		"/>
		<polygon class="st4" points="147.1,244.1 102.2,232.1 102.2,158.2 147.1,168.7 		"/>
		<polygon class="st5" points="190.4,158.2 190.4,233.2 147.1,244.1 147.1,168.7 		"/>
	</g>
</g>
<g>
	<path class="st6" d="M271.6,64.8c0,35.2-28.6,63.8-63.8,63.8S144,100,144,64.8S172.6,1,207.8,1S271.6,29.6,271.6,64.8"/>
	<g>
		<path class="st5" d="M245.9,68.4c-1.8-11.6-14.1-19.2-23.1-24.9c-4-2.5-10.4-5.7-11.2-10.9c-0.3-2.2-0.3-4.4-0.4-6.6
			c0-0.9,0-1.7-0.1-2.6c-0.1-1.1-1.2,0.3-1.8-0.7c-1.5-2.4-0.9,0.7-0.8,2c0.4,2.9,0.8,5.9,0.7,8.8c0,5.7-1,11.1-2.4,16.6
			c-3.3,12.8-5.9,25.9-2.7,39c0.7,2.7,1.6,5.4,2.7,7.9c0.4,0.8,1,2.9,2,3.2c3.5,0.9,6.1,1.2,8.9,3.8c1.7,1.6,3,0.7,5.1-0.1
			c6.2-2.5,11.5-5.6,15.9-10.7C244.8,86.1,247.4,77.7,245.9,68.4 M239.4,80.1c-0.5,4.8-3.6,9.1-6.6,12.6c-2.2,2.6-5.2,5.9-8.5,7.1
			c-1.2,0.4,0.2-2,0.4-2.2c1-1.5,2.3-2.9,3.4-4.3c1.7-2.1,3.2-4.3,4.2-6.8c3.4-8.4,2.6-18.7-2.4-26.3c-2.7-4.1-6.4-7.6-10.2-10.8
			c-1.8-1.5-3.6-3-5.2-4.8c-0.4-0.4-3.5-4.5-2.5-5.1c0.3-0.2,7.1,6.9,7.8,7.5c2.8,2.1,5.7,4.1,8.3,6.5c3.5,3.2,7.1,6.8,9.1,11.2
			C239.6,69.4,240,74.9,239.4,80.1"/>
		<path class="st5" d="M205.8,11c1,0.7,1.2,4.6,1.2,8.3c0,3.6,0.3,19.2-0.8,23.4s-3.7,8.8-6.6,12.9c-2.8,4.1-6.1,12.7-6,18
			s3.2,14,5.5,17.7c2.4,3.6,6.4,8.7,5.5,9.9c-1.6,2-8-5-11.4-9.1s-6.8-12.3-6.9-18.8c-0.1-6.5,3.5-12.5,6.1-16.1s7.7-9.9,9.1-12.7
			c1.4-2.8,2.8-5.9,3.3-9.9s0-18.1,0-18.1S204.7,10.4,205.8,11"/>
		<path class="st5" d="M203,17.7c1,0.5,1.1,1.7,1.1,2.9c0,1.2-0.3,6.3-0.7,11.3c-0.3,5-4.3,9.2-7.2,12.1
			c-2.9,2.9-11.4,12.1-14.6,16.6c-3.2,4.5-4.8,10.5-4.4,15.5c0.3,5.1,1.6,10.1,6.3,15.4c4.8,5.3,8,7.8,10.5,9.1
			c2.5,1.2,5,2.2,4.4,3.3c-0.6,1.1-2.9,0.3-5.5-0.6s-11.4-4.5-16.5-10.3s-7.7-13.5-7.5-20.8c0.2-7.4,2.3-10.4,5.7-15.2
			s12.8-11.8,15.7-13.6c2.9-1.8,6.9-4.9,8.8-7.4c1.9-2.5,2.9-4.5,2.8-7.9c-0.1-3.4,0.2-6.5,0.1-7.6C202,19.5,202,17.3,203,17.7"/>
		<path class="st5" d="M203.3,106.5c0.5,0,0.2,2-0.6,3s-2.2,1.6-2.4,1.2s1-0.6,1.9-1.6C203,108.2,202.8,106.5,203.3,106.5"/>
		<path class="st5" d="M212.5,106.4c-0.5,0-0.2,2,0.6,3s2.2,1.6,2.4,1.2s-1-0.6-1.9-1.6C212.8,108.1,213,106.5,212.5,106.4"/>
		<path class="st5" d="M208.4,108.6c0,1.7,0.1,3.2-0.3,3.2c-0.5,0-0.3-1.4-0.3-3.2c0-1.7-0.2-3.2,0.3-3.2
			C208.5,105.4,208.4,106.9,208.4,108.6"/>
	</g>
</g>
</svg>
