<?xml version="1.0" encoding="utf-8"?>
<!-- Generator: Adobe Illustrator 25.2.0, SVG Export Plug-In . SVG Version: 6.00 Build 0)  -->
<svg version="1.1" id="Layer_1" xmlns="http://www.w3.org/2000/svg" xmlns:xlink="http://www.w3.org/1999/xlink" x="0px" y="0px"
	 viewBox="0 0 272 272" style="enable-background:new 0 0 272 272;" xml:space="preserve">
<style type="text/css">
	.st0{fill-rule:evenodd;clip-rule:evenodd;fill:#FFFFFF;}
	.st1{fill-rule:evenodd;clip-rule:evenodd;fill:#22BAE6;}
	.st2{fill:#22BAE6;}
	.st3{fill:none;stroke:#FFFFFF;stroke-width:3;stroke-miterlimit:10;}
	.st4{fill:none;stroke:#FFFFFF;stroke-width:3;stroke-miterlimit:10;stroke-dasharray:4.8543,1.9417;}
	.st5{fill:none;stroke:#FFFFFF;stroke-width:3;stroke-miterlimit:10;stroke-dasharray:4.9649,1.9859;}
	.st6{fill:none;stroke:#FFFFFF;stroke-width:3;stroke-miterlimit:10;stroke-dasharray:5.0156,2.0062;}
	.st7{fill:none;stroke:#FFFFFF;stroke-width:3;stroke-miterlimit:10;stroke-dasharray:4.9498,1.9799;}
	.st8{fill:none;stroke:#FFFFFF;stroke-width:3;stroke-linecap:round;stroke-linejoin:round;stroke-miterlimit:10;}
	.st9{fill:#FFFFFF;stroke:#FFFFFF;stroke-width:0.3479;stroke-linecap:round;stroke-linejoin:round;stroke-miterlimit:10;}
	.st10{fill:none;stroke:#FFFFFF;stroke-width:5;stroke-miterlimit:10;}
	.st11{fill:none;stroke:#FFFFFF;stroke-width:2;stroke-linecap:round;stroke-linejoin:round;stroke-miterlimit:10;}
	
		.st12{opacity:0.5;fill:#FFFFFF;stroke:#FFFFFF;stroke-width:2;stroke-linecap:round;stroke-linejoin:round;stroke-miterlimit:10;enable-background:new    ;}
	.st13{fill:#C7E3F5;}
	.st14{fill:url(#SVGID_1_);}
	.st15{fill:url(#SVGID_2_);}
	.st16{fill:url(#SVGID_3_);}
	.st17{fill:url(#SVGID_4_);}
	.st18{fill:url(#SVGID_5_);}
	.st19{fill:url(#SVGID_6_);}
	.st20{fill:url(#SVGID_7_);}
	.st21{fill:url(#SVGID_8_);}
	.st22{fill:#FFFFFF;}
	.st23{fill:url(#SVGID_9_);}
	.st24{fill:url(#SVGID_10_);}
	.st25{fill:url(#SVGID_11_);}
	.st26{fill:url(#SVGID_12_);}
	.st27{fill:#9E1209;}
	.st28{fill:url(#SVGID_13_);}
	.st29{fill:url(#SVGID_14_);}
	.st30{fill:url(#SVGID_15_);}
	.st31{fill:url(#SVGID_16_);}
</style>
<g id="CAD">
	<path id="XMLID_8_" class="st0" d="M143.8,121c-20.9,0-38.7,7.4-53.3,22.1c-14.7,14.6-22.1,32.4-22.1,53.3s7.4,38.7,22.1,53.2
		c5.4,5.5,11.3,10,17.5,13.5H16.4c-1.5-0.1-2.8-0.5-4.2-1.2c-2.3-1.1-3.4-3.2-3.4-6.4V69.2c0.2-1.6,0.6-3.1,1.1-4.2
		c1.2-2.3,3.4-3.4,6.6-3.4h186.3l1.2,0.2c1.1,0.2,2,0.5,2.9,0.8c2.4,1.1,3.6,3.2,3.6,6.6v91.6c-3.5-6.3-8-12.3-13.5-17.7
		C182.1,128.4,164.4,121,143.8,121z"/>
	<g>
		<path id="XMLID_2_" class="st1" d="M143.8,121c20.6,0,38.4,7.4,53.2,22.1c5.5,5.4,10,11.4,13.4,17.7V69.2c0-3.3-1.2-5.5-3.6-6.6
			c-0.8-0.3-1.8-0.6-2.9-0.8l-1.2-0.2H16.4c-3.2,0-5.4,1.1-6.6,3.4c-0.6,1.2-0.9,2.6-1.1,4.2v186.2c0,3.2,1.1,5.4,3.4,6.4
			c1.4,0.7,2.8,1.1,4.2,1.2h91.6c-6.3-3.5-12.2-8-17.5-13.5c-14.7-14.5-22.1-32.3-22.1-53.2s7.4-38.7,22.1-53.3
			C105,128.4,122.8,121,143.8,121z M207.6,53c2,0.4,3.6,0.9,4.6,1.5c4.5,2.2,6.8,6.2,6.8,11.9v130c0,20.9-7.4,38.6-22.2,53.2
			C182,264.5,164.2,272,143.6,272h-130c-2.2,0-4.5-0.6-6.8-1.6C2.3,268,0,264,0,258.3V66.4c0-2.3,0.6-4.5,1.8-6.8
			C4,55,8,52.8,13.7,52.8h191.7L207.6,53z"/>
		<g>
			<path class="st2" d="M46.1,86.6c-4.5,0-8,1.6-10.6,4.7c-2.6,3.1-3.8,7.5-3.8,13.1c0,5.8,1.2,10.2,3.7,13.2c2.4,3,6,4.5,10.7,4.5
				c2,0,4-0.2,5.8-0.6c1.9-0.4,3.8-0.9,5.8-1.5v6.7c-3.7,1.4-8,2.1-12.7,2.1c-7,0-12.3-2.1-16-6.3c-3.7-4.2-5.6-10.1-5.6-18
				c0-5,0.9-9.3,2.7-13c1.8-3.7,4.5-6.6,7.9-8.5s7.5-2.9,12-2.9c4.9,0,9.3,1,13.5,3.1l-2.8,6.5c-1.6-0.7-3.3-1.5-5.1-2
				C49.9,86.9,48.1,86.6,46.1,86.6z"/>
			<path class="st2" d="M83.9,128.2l-1.2-4h-0.2c-1.4,1.7-2.8,2.9-4.1,3.6c-1.4,0.6-3.2,1-5.4,1c-2.8,0-5-0.7-6.6-2.3
				c-1.6-1.5-2.4-3.7-2.4-6.4c0-2.9,1.1-5.1,3.2-6.7c2.2-1.5,5.5-2.3,10-2.4l5-0.2v-1.5c0-1.8-0.4-3.2-1.3-4.1s-2.2-1.4-4-1.4
				c-1.5,0-2.8,0.2-4.2,0.6c-1.4,0.4-2.6,1-3.9,1.5l-1.9-4.4c1.5-0.8,3.2-1.5,5-1.9c1.8-0.4,3.6-0.6,5.2-0.6c3.7,0,6.3,0.8,8.2,2.4
				c1.9,1.5,2.8,4.1,2.8,7.5v19.2H83.9L83.9,128.2z M74.9,124c2.2,0,4-0.6,5.3-1.9c1.3-1.2,2-2.9,2-5.2v-2.5l-3.7,0.2
				c-2.8,0.1-5,0.6-6.3,1.5s-1.9,2.2-1.9,3.9c0,1.3,0.4,2.3,1.1,2.9C72.2,123.7,73.4,124,74.9,124z"/>
		</g>
	</g>
	<g>
		<g>
			<g>
				<polyline class="st3" points="184.2,230.5 184.2,232.6 182.1,232.6 				"/>
				<line class="st4" x1="180.5" y1="232.6" x2="109.6" y2="232.6"/>
				<polyline class="st3" points="108.9,232.6 106.8,232.6 106.8,230.5 				"/>
				<line class="st5" x1="106.8" y1="228.9" x2="106.8" y2="201.5"/>
				<polyline class="st3" points="106.8,200.7 106.8,198.7 108.3,197.2 				"/>
				<polyline class="st6" points="109.4,196.1 127.2,178.6 140.8,165 181.3,165 				"/>
				<polyline class="st3" points="182.1,165 184.2,165 184.2,167 				"/>
				<line class="st7" x1="184.2" y1="168.7" x2="184.2" y2="229.7"/>
			</g>
		</g>
		<rect x="155.8" y="192" class="st8" width="15.3" height="13.5"/>
		<rect x="162.7" y="198" class="st9" width="1.8" height="1.5"/>
		<polygon class="st10" points="148.9,157 102.4,157 102.4,203.1 		"/>
		<polygon class="st3" points="126.4,168.7 111.4,168.7 111.4,183.4 		"/>
		<line class="st8" x1="111.4" y1="156.7" x2="111.4" y2="161.4"/>
		<line class="st11" x1="122.8" y1="156.7" x2="122.8" y2="160.8"/>
		<line class="st8" x1="128.9" y1="157.5" x2="128.9" y2="159.4"/>
		<line class="st11" x1="134.9" y1="157.5" x2="134.9" y2="159.4"/>
		<line class="st11" x1="116.8" y1="157.5" x2="116.8" y2="160.1"/>
		<line class="st8" x1="163.6" y1="192" x2="163.6" y2="165"/>
		<line class="st8" x1="163.6" y1="232.1" x2="163.6" y2="205.8"/>
		<line class="st8" x1="155.8" y1="198.8" x2="106.8" y2="198.8"/>
		<line class="st8" x1="171.2" y1="198.8" x2="184.2" y2="198.8"/>
		<polygon class="st12" points="163.4,232.6 106.8,232.6 106.8,198.8 155.8,198.8 155.8,205.1 163.4,205.5 		"/>
	</g>
</g>
<circle class="st13" cx="207.7" cy="65" r="63.7"/>
<g>
	
		<linearGradient id="SVGID_1_" gradientUnits="userSpaceOnUse" x1="1.8974" y1="-0.7448" x2="1.8262" y2="-0.8704" gradientTransform="matrix(202.9347 0 0 202.7803 -149.9885 255.1714)">
		<stop  offset="0" style="stop-color:#FB7655"/>
		<stop  offset="0" style="stop-color:#FB7655"/>
		<stop  offset="0.41" style="stop-color:#E42B1E"/>
		<stop  offset="0.99" style="stop-color:#990000"/>
		<stop  offset="1" style="stop-color:#990000"/>
	</linearGradient>
	<path class="st14" d="M228,74.8L188.9,98l50.6-3.4l3.9-51L228,74.8z"/>
	
		<linearGradient id="SVGID_2_" gradientUnits="userSpaceOnUse" x1="2.0098" y1="-1.4271" x2="1.7014" y2="-1.5388" gradientTransform="matrix(60.3079 0 0 111.7781 121.0614 242.2555)">
		<stop  offset="0" style="stop-color:#871101"/>
		<stop  offset="0" style="stop-color:#871101"/>
		<stop  offset="0.99" style="stop-color:#911209"/>
		<stop  offset="1" style="stop-color:#911209"/>
	</linearGradient>
	<path class="st15" d="M239.6,94.5l-4.3-30l-11.8,15.6L239.6,94.5z"/>
	
		<linearGradient id="SVGID_3_" gradientUnits="userSpaceOnUse" x1="1.9228" y1="-6.8226" x2="1.824" y2="-7.3904" gradientTransform="matrix(188.3195 0 0 21.9864 -134.743 254.931)">
		<stop  offset="0" style="stop-color:#871101"/>
		<stop  offset="0" style="stop-color:#871101"/>
		<stop  offset="0.99" style="stop-color:#911209"/>
		<stop  offset="1" style="stop-color:#911209"/>
	</linearGradient>
	<path class="st16" d="M239.6,94.5L207.8,92l-18.7,5.9L239.6,94.5z"/>
	
		<linearGradient id="SVGID_4_" gradientUnits="userSpaceOnUse" x1="3.6095" y1="-1.8667" x2="3.6537" y2="-1.6737" gradientTransform="matrix(65.2221 0 0 97.0999 -47.0611 254.9543)">
		<stop  offset="0" style="stop-color:#FFFFFF"/>
		<stop  offset="0" style="stop-color:#FFFFFF"/>
		<stop  offset="0.23" style="stop-color:#E57252"/>
		<stop  offset="0.46" style="stop-color:#DE3B20"/>
		<stop  offset="0.99" style="stop-color:#A60003"/>
		<stop  offset="1" style="stop-color:#A60003"/>
	</linearGradient>
	<path class="st17" d="M189.1,97.9l8-26.1l-17.5,3.7L189.1,97.9z"/>
	
		<linearGradient id="SVGID_5_" gradientUnits="userSpaceOnUse" x1="2.2546" y1="-1.2435" x2="2.2647" y2="-1.0645" gradientTransform="matrix(105.3202 0 0 106.8253 -29.2826 189.0588)">
		<stop  offset="0" style="stop-color:#FFFFFF"/>
		<stop  offset="0" style="stop-color:#FFFFFF"/>
		<stop  offset="0.23" style="stop-color:#E4714E"/>
		<stop  offset="0.56" style="stop-color:#BE1A0D"/>
		<stop  offset="0.99" style="stop-color:#A80D00"/>
		<stop  offset="1" style="stop-color:#A80D00"/>
	</linearGradient>
	<path class="st18" d="M223.4,80.2l-7.3-28.7l-21,19.6L223.4,80.2z"/>
	
		<linearGradient id="SVGID_6_" gradientUnits="userSpaceOnUse" x1="1.7463" y1="-0.7733" x2="1.78" y2="-0.5669" gradientTransform="matrix(94.3212 0 0 66.4185 61.0506 89.8899)">
		<stop  offset="0" style="stop-color:#FFFFFF"/>
		<stop  offset="0" style="stop-color:#FFFFFF"/>
		<stop  offset="0.18" style="stop-color:#E46342"/>
		<stop  offset="0.4" style="stop-color:#C82410"/>
		<stop  offset="0.99" style="stop-color:#A80D00"/>
		<stop  offset="1" style="stop-color:#A80D00"/>
	</linearGradient>
	<path class="st19" d="M241.7,51.9l-19.8-16.2l-5.5,17.8L241.7,51.9z"/>
	
		<linearGradient id="SVGID_7_" gradientUnits="userSpaceOnUse" x1="2.0129" y1="0.319" x2="2.2066" y2="3.686422e-02" gradientTransform="matrix(70.7666 0 0 24.3007 73.6577 25.9706)">
		<stop  offset="0" style="stop-color:#FFFFFF"/>
		<stop  offset="0" style="stop-color:#FFFFFF"/>
		<stop  offset="0.54" style="stop-color:#C81F11"/>
		<stop  offset="0.99" style="stop-color:#BF0905"/>
		<stop  offset="1" style="stop-color:#BF0905"/>
	</linearGradient>
	<path class="st20" d="M232.5,30l-11.6,6.4l-7.3-6.5L232.5,30z"/>
	
		<linearGradient id="SVGID_8_" gradientUnits="userSpaceOnUse" x1="10.6468" y1="-1.8653" x2="10.7089" y2="-1.7098" gradientTransform="matrix(18.1773 0 0 72.6448 -17.1773 204.3785)">
		<stop  offset="0" style="stop-color:#FFFFFF"/>
		<stop  offset="0" style="stop-color:#FFFFFF"/>
		<stop  offset="0.31" style="stop-color:#DE4024"/>
		<stop  offset="0.99" style="stop-color:#BF190B"/>
		<stop  offset="1" style="stop-color:#BF190B"/>
	</linearGradient>
	<path class="st21" d="M175,84.3l4.9-8.9L176,64.8L175,84.3z"/>
	<path class="st22" d="M175.6,64.5l4,11.3l17.3-3.9l19.7-18.3l5.6-17.7l-8.8-6.2l-14.9,5.6c-4.7,4.4-13.8,13-14.1,13.2
		C184,48.6,178.4,59.4,175.6,64.5L175.6,64.5z"/>
	
		<linearGradient id="SVGID_9_" gradientUnits="userSpaceOnUse" x1="2.0035" y1="-0.5197" x2="2.3388" y2="-0.8649" gradientTransform="matrix(158.1624 0 0 157.9374 -148.3454 165.3455)">
		<stop  offset="0" style="stop-color:#BD0012"/>
		<stop  offset="0" style="stop-color:#BD0012"/>
		<stop  offset="7.000000e-02" style="stop-color:#FFFFFF"/>
		<stop  offset="0.17" style="stop-color:#FFFFFF"/>
		<stop  offset="0.27" style="stop-color:#C82F1C"/>
		<stop  offset="0.33" style="stop-color:#820C01"/>
		<stop  offset="0.46" style="stop-color:#A31601"/>
		<stop  offset="0.72" style="stop-color:#B31301"/>
		<stop  offset="0.99" style="stop-color:#E82609"/>
		<stop  offset="1" style="stop-color:#E82609"/>
	</linearGradient>
	<path class="st23" d="M189.6,44.2c10.2-10.1,23.3-16,28.3-11c5,5.1-0.3,17.4-10.5,27.5S184.3,77.1,179.3,72
		C174.2,67,179.4,54.3,189.6,44.2L189.6,44.2z"/>
	
		<linearGradient id="SVGID_10_" gradientUnits="userSpaceOnUse" x1="2.2231" y1="-1.7052" x2="2.0974" y2="-1.7457" gradientTransform="matrix(127.0738 0 0 97.4086 -73.3301 254.9292)">
		<stop  offset="0" style="stop-color:#8C0C01"/>
		<stop  offset="0" style="stop-color:#8C0C01"/>
		<stop  offset="0.54" style="stop-color:#990C00"/>
		<stop  offset="0.99" style="stop-color:#A80D0E"/>
		<stop  offset="1" style="stop-color:#A80D0E"/>
	</linearGradient>
	<path class="st24" d="M189.1,97.9l7.9-26.1l26.2,8.4C213.8,89,203.2,96.6,189.1,97.9L189.1,97.9z"/>
	
		<linearGradient id="SVGID_11_" gradientUnits="userSpaceOnUse" x1="1.8562" y1="-1.1295" x2="1.7052" y2="-1.25" gradientTransform="matrix(94.0112 0 0 105.6032 62.0811 188.9386)">
		<stop  offset="0" style="stop-color:#7E110B"/>
		<stop  offset="0" style="stop-color:#7E110B"/>
		<stop  offset="0.99" style="stop-color:#9E0C00"/>
		<stop  offset="1" style="stop-color:#9E0C00"/>
	</linearGradient>
	<path class="st25" d="M216.6,53.5l6.7,26.7c7.9-8.3,15-17.3,18.5-28.3L216.6,53.5L216.6,53.5z"/>
	
		<linearGradient id="SVGID_12_" gradientUnits="userSpaceOnUse" x1="1.8251" y1="-0.4591" x2="1.7364" y2="-0.5516" gradientTransform="matrix(79.7018 0 0 81.7914 96.3546 83.822)">
		<stop  offset="0" style="stop-color:#79130D"/>
		<stop  offset="0" style="stop-color:#79130D"/>
		<stop  offset="0.99" style="stop-color:#9E120B"/>
		<stop  offset="1" style="stop-color:#9E120B"/>
	</linearGradient>
	<path class="st26" d="M241.8,52c2.7-8.1,3.3-19.8-9.4-22L222,35.8L241.8,52L241.8,52z"/>
	<path class="st27" d="M175,84.2c0.4,13.4,10.1,13.6,14.2,13.7l-9.5-22.2L175,84.2L175,84.2z"/>
	
		<radialGradient id="SVGID_13_" cx="1.7346" cy="-1.5432" r="0.1868" gradientTransform="matrix(93.1133 0 0 48.6553 63.1192 132.2154)" gradientUnits="userSpaceOnUse">
		<stop  offset="0" style="stop-color:#A80D00"/>
		<stop  offset="0" style="stop-color:#A80D00"/>
		<stop  offset="0.99" style="stop-color:#7E0E08"/>
		<stop  offset="1" style="stop-color:#7E0E08"/>
	</radialGradient>
	<path class="st28" d="M216.6,53.6c6.1,3.7,18.3,11.3,18.6,11.4c0.4,0.2,5.3-8.3,6.4-13.1L216.6,53.6L216.6,53.6z"/>
	
		<radialGradient id="SVGID_14_" cx="2.2053" cy="-2.0212" r="0.2373" gradientTransform="matrix(97.4344 0 0 75.848 -14.3214 233.3656)" gradientUnits="userSpaceOnUse">
		<stop  offset="0" style="stop-color:#A30C00"/>
		<stop  offset="0" style="stop-color:#A30C00"/>
		<stop  offset="0.99" style="stop-color:#800E08"/>
		<stop  offset="1" style="stop-color:#800E08"/>
	</radialGradient>
	<path class="st29" d="M197,71.7l10.6,20.4c6.2-3.4,11.1-7.5,15.6-11.9L197,71.7L197,71.7z"/>
	
		<linearGradient id="SVGID_15_" gradientUnits="userSpaceOnUse" x1="5.2754" y1="-1.9181" x2="5.1319" y2="-2.159" gradientTransform="matrix(40.1367 0 0 81.143 -27.5331 253.4718)">
		<stop  offset="0" style="stop-color:#8B2114"/>
		<stop  offset="0" style="stop-color:#8B2114"/>
		<stop  offset="0.43" style="stop-color:#9E100A"/>
		<stop  offset="0.99" style="stop-color:#B3100C"/>
		<stop  offset="1" style="stop-color:#B3100C"/>
	</linearGradient>
	<path class="st30" d="M179.6,75.7l-1.5,17.8c2.8,3.9,6.7,4.2,10.8,3.9C185.9,90.1,180,75.4,179.6,75.7L179.6,75.7z"/>
	
		<linearGradient id="SVGID_16_" gradientUnits="userSpaceOnUse" x1="1.6734" y1="-4.691670e-02" x2="1.8387" y2="0.1278" gradientTransform="matrix(78.0993 0 0 32.6239 97.7268 34.6201)">
		<stop  offset="0" style="stop-color:#B31000"/>
		<stop  offset="0" style="stop-color:#B31000"/>
		<stop  offset="0.44" style="stop-color:#910F08"/>
		<stop  offset="0.99" style="stop-color:#791C12"/>
		<stop  offset="1" style="stop-color:#791C12"/>
	</linearGradient>
	<path class="st31" d="M221.9,35.8l21,2.9c-1.1-4.7-4.6-7.8-10.4-8.8L221.9,35.8L221.9,35.8z"/>
</g>
</svg>
