<?xml version="1.0" encoding="utf-8"?>
<!-- Generator: Adobe Illustrator 25.2.0, SVG Export Plug-In . SVG Version: 6.00 Build 0)  -->
<svg version="1.1" id="Layer_1" xmlns="http://www.w3.org/2000/svg" xmlns:xlink="http://www.w3.org/1999/xlink" x="0px" y="0px"
	 viewBox="0 0 272 272" style="enable-background:new 0 0 272 272;" xml:space="preserve">
<style type="text/css">
	.st0{fill:#FFFFFF;}
	.st1{fill-rule:evenodd;clip-rule:evenodd;fill:#22BAE6;}
	.st2{fill:#22BAE6;}
	.st3{fill:#FDFDFD;}
	.st4{fill:#672572;}
</style>
<g id="Words">
	<polygon class="st0" points="213.6,62.1 206.2,57.4 12.3,57.4 4.9,64.8 4.9,259.2 9.7,265.5 154.6,265.5 213.6,190.7 	"/>
	<g>
		<path class="st1" d="M68.3,196.6c0-20.9,7.3-38.7,22-53.3c14.6-14.7,32.3-22,53.3-22c20.7,0,38.4,7.3,53.2,22
			c14.8,14.7,22.1,32.4,22.1,53.3c0,20.8-7.4,38.5-22.1,53.2c-14.8,14.8-32.5,22.1-53.2,22.1c-21,0-38.8-7.4-53.3-22.1
			C75.6,235.1,68.3,217.4,68.3,196.6"/>
		<path class="st1" d="M219,196.6h-8.8V69.5c0-3.2-1.1-5.4-3.5-6.6c-0.8-0.4-1.7-0.7-2.8-0.9l-1.3-0.2H16.4c-3.3,0-5.5,1.1-6.6,3.4
			c-0.6,1.3-1,2.8-1.1,4.2v186.1c0,3.2,1.1,5.4,3.4,6.5c1.3,0.6,2.8,1.1,4.2,1.1h123.4l3.9,8.8h-130c-2.3,0-4.5-0.6-6.8-1.7
			C2.3,267.9,0,264,0,258.2V66.7c0-2.3,0.6-4.5,1.8-6.8C4,55.3,7.9,53,13.6,53h191.7l2.1,0.2c1.7,0.2,3.3,0.7,4.7,1.5
			c4.5,2.3,6.8,6.2,6.8,11.9L219,196.6L219,196.6z"/>
		<g>
			<path class="st2" d="M75.9,130.4h-8.5l-8-28.3c-0.3-1.2-0.8-3-1.3-5.4c-0.5-2.4-0.8-4-1-4.9c-0.2,1.4-0.6,3.2-1.1,5.4
				c-0.5,2.3-0.9,3.9-1.2,4.9l-7.9,28.1h-8.4l-6.1-23.8l-6.2-23.7h7.9l6.8,27.6c1.1,4.5,1.8,8.4,2.3,11.8c0.2-1.9,0.6-3.9,1.1-6.2
				c0.5-2.3,0.9-4.1,1.3-5.5l7.7-27.7H61l7.9,27.8c0.7,2.6,1.5,6.4,2.4,11.5c0.3-3.1,1.1-7.1,2.4-11.8l6.7-27.6h7.9L75.9,130.4z"/>
		</g>
		<g>
			<rect x="97.4" y="159.1" class="st3" width="91.7" height="6.8"/>
			<rect x="97.4" y="182.7" class="st3" width="91.7" height="6.8"/>
			<rect x="97.4" y="205.7" class="st3" width="62.7" height="6.8"/>
			<rect x="97.4" y="229.4" class="st3" width="33.4" height="6.8"/>
		</g>
	</g>
</g>
<circle class="st4" cx="207.7" cy="65" r="63.7"/>
<g id="XMLID_2_">
	<path id="XMLID_3_" class="st0" d="M225.9,47.5c0.6-0.5,0.9-1.2,0.9-2.1c0-0.8-0.2-1.4-0.7-1.9c-0.4-0.4-1-0.8-1.9-1.1
		c-0.8-0.3-1.3-0.6-1.5-0.8c-0.3-0.2-0.4-0.6-0.4-1c0-0.4,0.2-0.8,0.5-1c0.3-0.3,0.8-0.4,1.3-0.4c0.9,0,1.6,0.2,2.3,0.7v-1.6
		c-0.6-0.3-1.4-0.5-2.2-0.5c-1,0-1.9,0.3-2.6,0.8c-0.7,0.6-1,1.3-1,2.1c0,0.8,0.2,1.4,0.6,1.8c0.4,0.4,1,0.8,1.8,1.1
		c0.8,0.4,1.4,0.7,1.7,0.9c0.3,0.3,0.4,0.6,0.4,1c0,0.9-0.6,1.4-1.9,1.4c-1,0-1.8-0.3-2.6-1v1.7c0.7,0.4,1.6,0.6,2.5,0.6
		C224.3,48.4,225.2,48.1,225.9,47.5z"/>
	<path id="XMLID_29_" class="st0" d="M241.1,48.1h1.6v-8.7h2.4V38h-2.4v-1.6c0-1.4,0.6-2.1,1.7-2.1c0.4,0,0.8,0.1,1.1,0.3v-1.5
		c-0.3-0.1-0.7-0.2-1.2-0.2c-0.9,0-1.6,0.3-2.2,0.8c-0.7,0.6-1,1.5-1,2.6V38h-1.7v1.4h1.7V48.1z"/>
	<path id="XMLID_30_" class="st0" d="M189.5,35.4c0.3,0,0.5-0.1,0.8-0.3c0.2-0.2,0.3-0.5,0.3-0.8c0-0.3-0.1-0.5-0.3-0.7
		c-0.2-0.2-0.5-0.3-0.8-0.3c-0.3,0-0.5,0.1-0.7,0.3c-0.2,0.2-0.3,0.5-0.3,0.7c0,0.3,0.1,0.6,0.3,0.8C189,35.3,189.2,35.4,189.5,35.4
		z"/>
	<path id="XMLID_31_" class="st0" d="M197.6,48.4c1.1,0,2-0.2,2.8-0.7v-1.5c-0.8,0.6-1.6,0.9-2.5,0.9c-1,0-1.9-0.3-2.5-1
		c-0.6-0.7-0.9-1.6-0.9-2.8c0-1.2,0.3-2.2,1-2.9c0.6-0.7,1.5-1.1,2.5-1.1c0.9,0,1.7,0.3,2.4,0.8v-1.7c-0.7-0.3-1.5-0.5-2.3-0.5
		c-1.6,0-2.9,0.5-3.8,1.5c-1,1-1.4,2.4-1.4,4c0,1.5,0.4,2.7,1.3,3.6C195,47.9,196.2,48.4,197.6,48.4z"/>
	<path id="XMLID_34_" class="st0" d="M255.2,38.8h0.3c0.2,0,0.4,0.2,0.6,0.6l0.4,0.8h0.6l-0.5-0.9c-0.2-0.4-0.4-0.6-0.6-0.6v0
		c0.3-0.1,0.5-0.2,0.6-0.3c0.2-0.2,0.2-0.4,0.2-0.6c0-0.3-0.1-0.5-0.3-0.6c-0.2-0.2-0.5-0.3-1-0.3h-1v3.4h0.5V38.8z M255.2,37.2h0.4
		c0.3,0,0.5,0.1,0.6,0.2c0.1,0.1,0.2,0.2,0.2,0.4c0,0.4-0.2,0.6-0.7,0.6h-0.5V37.2z"/>
	<path id="XMLID_35_" class="st0" d="M247.7,45.4c0,2,0.9,3,2.6,3c0.6,0,1.1-0.1,1.5-0.3v-1.4c-0.3,0.2-0.6,0.3-1,0.3
		c-0.5,0-0.9-0.1-1.2-0.4c-0.2-0.3-0.3-0.8-0.3-1.4v-5.7h2.5V38h-2.5v-3c-0.6,0.2-1.1,0.4-1.6,0.5V38H246v1.4h1.7V45.4z"/>
	<path id="XMLID_40_" class="st0" d="M255.8,41.2c0.8,0,1.4-0.3,1.9-0.8c0.5-0.5,0.8-1.1,0.8-1.9c0-0.8-0.3-1.4-0.8-1.9
		c-0.5-0.5-1.1-0.7-1.9-0.7c-0.8,0-1.4,0.3-1.9,0.8c-0.5,0.5-0.8,1.2-0.8,1.9c0,0.8,0.3,1.4,0.8,1.9C254.3,41,255,41.2,255.8,41.2z
		 M254.1,36.9c0.5-0.5,1-0.7,1.7-0.7c0.7,0,1.2,0.2,1.7,0.7c0.5,0.5,0.7,1,0.7,1.7c0,0.7-0.2,1.3-0.7,1.7c-0.5,0.5-1,0.7-1.7,0.7
		c-0.7,0-1.2-0.2-1.7-0.7c-0.5-0.5-0.7-1-0.7-1.7C253.4,37.9,253.6,37.3,254.1,36.9z"/>
	<rect id="XMLID_41_" x="188.7" y="38" class="st0" width="1.6" height="10.1"/>
	<path id="XMLID_44_" class="st0" d="M213.7,48.4c1.5,0,2.8-0.5,3.7-1.5c0.9-1,1.4-2.3,1.4-3.9c0-1.6-0.4-2.9-1.3-3.9
		c-0.8-0.9-2-1.4-3.5-1.4c-1.5,0-2.8,0.4-3.7,1.3c-1,1-1.5,2.3-1.5,4.1c0,1.5,0.4,2.8,1.3,3.7C211,47.9,212.2,48.4,213.7,48.4z
		 M211.4,40.1c0.6-0.7,1.4-1,2.4-1c1,0,1.8,0.3,2.4,1c0.6,0.7,0.9,1.7,0.9,3c0,1.2-0.3,2.2-0.8,2.9c-0.6,0.7-1.4,1-2.4,1
		c-1,0-1.8-0.3-2.5-1c-0.6-0.7-0.9-1.6-0.9-2.8C210.5,41.8,210.8,40.8,211.4,40.1z"/>
	<path id="XMLID_47_" class="st0" d="M237,46.9c0.9-1,1.4-2.3,1.4-3.9c0-1.6-0.4-2.9-1.3-3.9c-0.8-0.9-2-1.4-3.5-1.4
		c-1.5,0-2.8,0.4-3.7,1.3c-1,1-1.5,2.3-1.5,4.1c0,1.5,0.4,2.8,1.3,3.7c0.9,1,2.1,1.5,3.6,1.5C234.9,48.4,236.1,47.9,237,46.9z
		 M230.1,43.1c0-1.3,0.3-2.3,1-3c0.6-0.7,1.4-1,2.4-1c1,0,1.8,0.3,2.4,1c0.6,0.7,0.9,1.7,0.9,3c0,1.2-0.3,2.2-0.8,2.9
		c-0.6,0.7-1.4,1-2.4,1c-1,0-1.8-0.3-2.5-1C230.4,45.3,230.1,44.3,230.1,43.1z"/>
	<polygon id="XMLID_48_" class="st0" points="213.2,73 226.6,73 226.6,69.1 213.2,69.1 213.2,56.7 227.7,56.7 227.7,52.8 
		208.8,52.8 208.8,89.9 228.5,89.9 228.5,86 213.2,86 	"/>
	<polygon id="XMLID_49_" class="st0" points="232.6,56.7 243.3,56.7 243.3,89.9 247.7,89.9 247.7,56.7 258.4,56.7 258.4,52.8 
		232.6,52.8 	"/>
	<path id="XMLID_50_" class="st0" d="M161.4,84.7c-0.8,0-1.5,0.3-2,0.9c-0.6,0.6-0.8,1.3-0.8,2.1c0,0.8,0.3,1.5,0.8,2.1
		c0.6,0.6,1.2,0.9,2,0.9c0.8,0,1.5-0.3,2.1-0.9c0.6-0.6,0.9-1.3,0.9-2.1c0-0.8-0.3-1.5-0.9-2.1C162.9,85,162.3,84.7,161.4,84.7z"/>
	<path id="XMLID_51_" class="st0" d="M205.6,38.4c-0.5,0.4-0.9,1-1.1,1.7h0V38h-1.6v10.1h1.6V43c0-1.2,0.3-2.1,0.8-2.8
		c0.4-0.6,1-0.9,1.7-0.9c0.5,0,1,0.1,1.2,0.3V38c-0.2-0.1-0.5-0.1-1-0.1C206.6,37.8,206,38,205.6,38.4z"/>
	<polygon id="XMLID_52_" class="st0" points="172.2,35.9 172.3,35.9 177.5,48.1 178.3,48.1 183.6,35.9 183.6,35.9 183.5,48.1 
		185.2,48.1 185.2,34 183.1,34 178,45.5 177.9,45.5 172.9,34 170.7,34 170.7,48.1 172.3,48.1 	"/>
	<polygon id="XMLID_53_" class="st0" points="196.3,84.2 176.4,52.8 170.7,52.8 170.7,89.9 175.1,89.9 175.1,58.1 195.3,89.9 
		200.6,89.9 200.6,52.8 196.3,52.8 	"/>
</g>
<g>
</g>
<g>
</g>
<g>
</g>
<g>
</g>
<g>
</g>
<g>
</g>
</svg>
