<?xml version="1.0" encoding="utf-8"?>
<!-- Generator: Adobe Illustrator 25.2.0, SVG Export Plug-In . SVG Version: 6.00 Build 0)  -->
<svg version="1.1" id="Layer_1" xmlns="http://www.w3.org/2000/svg" xmlns:xlink="http://www.w3.org/1999/xlink" x="0px" y="0px"
	 viewBox="0 0 272 272" style="enable-background:new 0 0 272 272;" xml:space="preserve">
<style type="text/css">
	.st0{fill-rule:evenodd;clip-rule:evenodd;fill:#FFFFFF;}
	.st1{fill-rule:evenodd;clip-rule:evenodd;fill:#22BAE6;}
	.st2{fill:#22BAE6;}
	.st3{fill-rule:evenodd;clip-rule:evenodd;fill:#FEFDFC;}
	.st4{fill-rule:evenodd;clip-rule:evenodd;fill:#FDFCFB;}
	.st5{fill-rule:evenodd;clip-rule:evenodd;fill:#FDFCFA;}
	.st6{fill-rule:evenodd;clip-rule:evenodd;fill:#F9F6F0;}
	.st7{fill-rule:evenodd;clip-rule:evenodd;fill:#FAF7F4;}
	.st8{fill-rule:evenodd;clip-rule:evenodd;fill:#F9F6F2;}
	.st9{fill-rule:evenodd;clip-rule:evenodd;fill:#FAF6F2;}
	.st10{fill-rule:evenodd;clip-rule:evenodd;fill:#FBF9F5;}
	.st11{fill:#C7E3F5;}
	.st12{fill:url(#SVGID_1_);}
	.st13{fill:url(#SVGID_2_);}
	.st14{fill:url(#SVGID_3_);}
	.st15{fill:url(#SVGID_4_);}
	.st16{fill:url(#SVGID_5_);}
	.st17{fill:url(#SVGID_6_);}
	.st18{fill:url(#SVGID_7_);}
	.st19{fill:url(#SVGID_8_);}
	.st20{fill:#FFFFFF;}
	.st21{fill:url(#SVGID_9_);}
	.st22{fill:url(#SVGID_10_);}
	.st23{fill:url(#SVGID_11_);}
	.st24{fill:url(#SVGID_12_);}
	.st25{fill:#9E1209;}
	.st26{fill:url(#SVGID_13_);}
	.st27{fill:url(#SVGID_14_);}
	.st28{fill:url(#SVGID_15_);}
	.st29{fill:url(#SVGID_16_);}
</style>
<g id="OMR">
	<path id="XMLID_8_" class="st0" d="M143.6,121.2c-20.9,0-38.7,7.4-53.3,22.1c-14.7,14.6-22.1,32.4-22.1,53.3s7.4,38.7,22.1,53.2
		c5.4,5.5,11.3,10,17.5,13.5H16.4c-1.5-0.1-2.8-0.5-4.2-1.2c-2.3-1.1-3.4-3.2-3.4-6.4V69.4c0.2-1.6,0.6-3.1,1.1-4.2
		c1.2-2.3,3.4-3.4,6.6-3.4h186.1l1.2,0.2c1.1,0.2,2,0.5,2.9,0.8c2.4,1.1,3.6,3.2,3.6,6.6v91.5c-3.5-6.3-7.9-12.2-13.5-17.7
		C181.9,128.6,164.2,121.2,143.6,121.2z"/>
	<path id="XMLID_2_" class="st1" d="M143.6,121.2c20.6,0,38.4,7.4,53.1,22.1c5.5,5.4,10,11.4,13.4,17.7V69.4c0-3.3-1.2-5.5-3.6-6.6
		c-0.8-0.3-1.8-0.6-2.9-0.8l-1.2-0.2h-186c-3.2,0-5.4,1.1-6.6,3.4c-0.6,1.2-0.9,2.6-1.1,4.2v186c0,3.2,1.1,5.4,3.4,6.4
		c1.4,0.7,2.8,1.1,4.2,1.2h91.5c-6.3-3.5-12.2-7.9-17.5-13.5c-14.7-14.5-22.1-32.3-22.1-53.2s7.4-38.7,22.1-53.3
		C104.9,128.6,122.7,121.2,143.6,121.2z M207.3,53.2c2,0.4,3.6,0.9,4.6,1.5c4.5,2.2,6.8,6.2,6.8,11.9v129.9
		c0,20.8-7.4,38.5-22.2,53.2C181.8,264.5,164,272,143.4,272H13.6c-2.2,0-4.5-0.6-6.8-1.6C2.3,268,0,264,0,258.3V66.6
		c0-2.3,0.6-4.5,1.8-6.8C4,55.3,7.9,53,13.7,53h191.5L207.3,53.2z"/>
	<g>
		<path class="st2" d="M91.4,121.8h-5.1v-14.9c0-1.9-0.3-3.2-1.1-4.1s-1.8-1.4-3.2-1.4c-1.9,0-3.4,0.6-4.4,1.9
			c-0.9,1.3-1.4,3.4-1.4,6.4v12H71v-24h4.1l0.7,3.2H76c0.6-1.1,1.6-2,2.9-2.7c1.3-0.6,2.7-1,4.2-1c3.7,0,6.2,1.3,7.4,3.8h0.3
			c0.7-1.2,1.7-2.1,3-2.8c1.3-0.6,2.8-1,4.5-1c2.8,0,4.9,0.7,6.3,2.2c1.3,1.5,1.9,3.6,1.9,6.6v15.7h-5.1v-15c0-1.9-0.3-3.2-1.1-4.1
			c-0.7-0.9-1.8-1.4-3.2-1.4c-1.9,0-3.4,0.6-4.4,1.9c-0.9,1.2-1.4,3.2-1.4,5.8C91.4,109,91.4,121.8,91.4,121.8z"/>
		<path class="st2" d="M122.6,97.3c1.1,0,1.9,0.1,2.5,0.2l-0.5,4.8c-0.7-0.2-1.5-0.2-2.3-0.2c-2,0-3.7,0.6-4.9,2
			c-1.3,1.4-1.9,3.1-1.9,5.2v12.6h-5.1V97.8h4l0.6,4.2h0.2c0.8-1.5,1.9-2.6,3.2-3.4C119.7,97.7,121.1,97.3,122.6,97.3z"/>
	</g>
	<g>
		<path class="st2" d="M67.1,104.5c0,7.7-1.9,13.7-5.8,18s-9.3,6.4-16.4,6.4s-12.6-2.1-16.5-6.4s-5.8-10.3-5.8-18.2
			s1.9-13.9,5.8-18.1s9.4-6.3,16.5-6.3s12.5,2.1,16.4,6.4C65.3,90.8,67.1,96.8,67.1,104.5z M30.9,104.5c0,5.8,1.2,10.3,3.6,13.3
			s5.8,4.5,10.5,4.5s8.1-1.5,10.5-4.5s3.5-7.5,3.5-13.4c0-5.8-1.1-10.2-3.5-13.2s-5.8-4.5-10.4-4.5s-8.2,1.5-10.5,4.5
			S30.9,98.6,30.9,104.5z"/>
	</g>
	<g>
		<path class="st3" d="M154.1,190.5c-11.8,5.8-24.9,3.8-33.3-5c-13.5-14.2-8.6-37.1,8.8-44.6c14.9-6.4,32.4,0.9,37.5,17.1
			c2.2,7,1.6,13.9-1.7,20.5c-0.6,1.1-0.6,1.8,0.4,2.7c4.7,4.3,9.2,8.6,13.8,13.1c3.1,3,3.2,7.6,0.4,10.7c-2.8,3-7.3,3.4-10.5,0.5
			c-4.9-4.3-9.6-8.8-14.4-13.4C154.5,191.7,154.3,191,154.1,190.5z M159.5,167c0.7-10.2-8.7-19.8-19.8-19.4c-9.6,0.3-18,8.6-18.5,18
			c-0.6,12.2,9.5,20,18.2,20.4C150.8,186.6,160.1,176.8,159.5,167z"/>
		<path class="st4" d="M144.6,228.7c-3.6,0-5.8-2.4-5.8-6.1c0-3.6,2.4-5.8,6.4-5.7c3.1,0,5.3,2.6,5.5,5.8
			C150.9,225.7,147.9,229.3,144.6,228.7z"/>
		<path class="st4" d="M129,232.8c3.4,0,5.9,2.4,5.9,5.6c0,3.6-2.4,6.2-6.1,6.2c-3.5,0-5.8-2.4-5.8-5.8
			C123.1,235,125.4,232.8,129,232.8z"/>
		<path class="st5" d="M107.3,207.1c0-3.7,2.2-5.7,5.9-6c3.1-0.2,6.1,3,5.9,5.9c-0.1,3.4-2.5,5.9-5.8,5.9
			C109.5,213,107.3,210.7,107.3,207.1z"/>
		<path class="st6" d="M144.6,244.5c-3.6,0-5.9-2.4-5.9-6c0.1-3.6,2.4-5.8,6.1-5.8c3.4,0,5.8,2.5,5.8,6.2
			C150.6,242.2,148.1,244.6,144.6,244.5z M141.4,238.7c0,1.9,1.4,3.4,3.2,3.5s3.5-1.6,3.5-3.5c0-1.8-1.5-3.4-3.3-3.5
			C142.9,235.1,141.4,236.6,141.4,238.7z"/>
		<path class="st7" d="M128.8,228.7c-3.4,0-5.8-2.4-5.9-5.8c-0.1-3.6,2.4-5.9,6-5.9c3.3,0,5.9,2.4,5.9,5.6
			C134.9,226.3,132.5,228.7,128.8,228.7z M128.9,219.4c-1.8-0.1-3.3,1.5-3.3,3.3c-0.1,2,1.4,3.6,3.2,3.6c1.8,0,3.4-1.5,3.5-3.3
			S130.8,219.4,128.9,219.4z"/>
		<path class="st7" d="M176.2,228.7c-3.5,0-5.8-2.4-5.8-5.9c0-3.4,2.4-5.8,5.6-5.8c3.9,0,6.2,2.4,6.3,5.9
			C182.4,225.7,179.5,229.4,176.2,228.7z M176.4,219.4c-1.8-0.1-3.3,1.5-3.3,3.3c-0.1,2.1,1.3,3.6,3.2,3.6c1.8,0,3.4-1.5,3.5-3.3
			C179.8,221.2,178.2,219.4,176.4,219.4z"/>
		<path class="st8" d="M113,244.5c-3.5,0-5.8-2.4-5.8-5.8c0-3.6,2.4-5.9,6-5.9c3.4,0,5.8,2.5,5.9,5.9
			C119.2,241.6,116.4,245,113,244.5z M113,235.2c-1.9,0-3.3,1.6-3.3,3.6c0.1,1.9,1.6,3.3,3.4,3.3s3.5-1.8,3.4-3.6
			S114.8,235.2,113,235.2z"/>
		<path class="st9" d="M160.4,244.6c-3.5,0-5.8-2.4-5.8-5.9c0-3.6,2.4-5.9,6-5.9c3.5,0,5.9,2.5,5.9,6.1
			C166.5,242,163.4,245.1,160.4,244.6z M163.9,238.6c0-1.9-1.8-3.5-3.6-3.4s-3.2,1.6-3.2,3.6c0,1.9,1.5,3.4,3.3,3.4
			C162.3,242.2,163.9,240.5,163.9,238.6z"/>
		<path class="st7" d="M160.5,228.8c-3.6,0-5.8-2.4-6-5.9c-0.1-3.2,2.5-6.1,6.2-5.9c3.2,0.2,5.7,2.6,5.7,5.8
			C166.5,226.3,164,228.7,160.5,228.8z M157.1,222.9c0,1.9,1.5,3.4,3.2,3.4c1.9,0,3.5-1.5,3.5-3.5c0-1.9-1.7-3.5-3.6-3.5
			C158.6,219.5,157.1,221,157.1,222.9z"/>
		<path class="st7" d="M113.1,216.9c3.5,0,5.8,2.4,6,5.8c0.2,2.8-2.8,6.4-6.2,6.1c-3.3-0.3-5.7-2.5-5.8-5.8
			C107.1,219.3,109.5,216.9,113.1,216.9z M109.7,222.8c0,2,1.5,3.6,3.4,3.5c1.8,0,3.3-1.6,3.3-3.4c0-1.9-1.6-3.6-3.5-3.5
			C111.2,219.4,109.8,220.9,109.7,222.8z"/>
		<path class="st10" d="M128.8,213c-3.5,0-5.8-2.4-5.8-5.9c0-3.4,2.4-5.8,5.6-5.9c3.9,0,6.3,2.3,6.3,5.8
			C134.9,210.5,132.4,213,128.8,213z M125.6,207.1c0,1.9,1.5,3.5,3.2,3.5c1.7,0,3.6-1.7,3.5-3.6c-0.1-1.8-1.7-3.4-3.4-3.5
			C127.1,203.5,125.5,205.1,125.6,207.1z"/>
		<path class="st10" d="M144.6,213c-3.5,0-5.8-2.4-5.8-5.9c0-3.7,2.4-5.9,6.2-5.9c3.2,0,5.7,2.5,5.7,5.9
			C150.6,210.6,148.2,213,144.6,213z M141.4,207.1c0,1.9,1.5,3.5,3.2,3.5c1.8,0.1,3.6-1.8,3.5-3.6s-1.6-3.4-3.3-3.5
			C142.9,203.5,141.4,205,141.4,207.1z"/>
	</g>
</g>
<circle class="st11" cx="207.7" cy="65" r="63.7"/>
<g>
	
		<linearGradient id="SVGID_1_" gradientUnits="userSpaceOnUse" x1="1.8974" y1="272.7448" x2="1.8262" y2="272.8704" gradientTransform="matrix(202.9347 0 0 -202.7803 -149.9885 55411.4141)">
		<stop  offset="0" style="stop-color:#FB7655"/>
		<stop  offset="0" style="stop-color:#FB7655"/>
		<stop  offset="0.41" style="stop-color:#E42B1E"/>
		<stop  offset="0.99" style="stop-color:#990000"/>
		<stop  offset="1" style="stop-color:#990000"/>
	</linearGradient>
	<path class="st12" d="M228,74.8L188.9,98l50.6-3.4l3.9-51L228,74.8z"/>
	
		<linearGradient id="SVGID_2_" gradientUnits="userSpaceOnUse" x1="2.0098" y1="273.4271" x2="1.7014" y2="273.5388" gradientTransform="matrix(60.3079 0 0 -111.7781 121.0614 30645.8984)">
		<stop  offset="0" style="stop-color:#871101"/>
		<stop  offset="0" style="stop-color:#871101"/>
		<stop  offset="0.99" style="stop-color:#911209"/>
		<stop  offset="1" style="stop-color:#911209"/>
	</linearGradient>
	<path class="st13" d="M239.6,94.5l-4.3-30l-11.8,15.6L239.6,94.5z"/>
	
		<linearGradient id="SVGID_3_" gradientUnits="userSpaceOnUse" x1="1.9228" y1="278.8226" x2="1.824" y2="279.3904" gradientTransform="matrix(188.3195 0 0 -21.9864 -134.743 6235.2319)">
		<stop  offset="0" style="stop-color:#871101"/>
		<stop  offset="0" style="stop-color:#871101"/>
		<stop  offset="0.99" style="stop-color:#911209"/>
		<stop  offset="1" style="stop-color:#911209"/>
	</linearGradient>
	<path class="st14" d="M239.6,94.5L207.8,92l-18.7,5.9L239.6,94.5z"/>
	
		<linearGradient id="SVGID_4_" gradientUnits="userSpaceOnUse" x1="3.6095" y1="273.8667" x2="3.6537" y2="273.6737" gradientTransform="matrix(65.2221 0 0 -97.0999 -47.0611 26666.127)">
		<stop  offset="0" style="stop-color:#FFFFFF"/>
		<stop  offset="0" style="stop-color:#FFFFFF"/>
		<stop  offset="0.23" style="stop-color:#E57252"/>
		<stop  offset="0.46" style="stop-color:#DE3B20"/>
		<stop  offset="0.99" style="stop-color:#A60003"/>
		<stop  offset="1" style="stop-color:#A60003"/>
	</linearGradient>
	<path class="st15" d="M189.1,97.9l8-26.1l-17.5,3.7L189.1,97.9z"/>
	
		<linearGradient id="SVGID_5_" gradientUnits="userSpaceOnUse" x1="2.2546" y1="273.2435" x2="2.2647" y2="273.0645" gradientTransform="matrix(105.3202 0 0 -106.8253 -29.2826 29245.541)">
		<stop  offset="0" style="stop-color:#FFFFFF"/>
		<stop  offset="0" style="stop-color:#FFFFFF"/>
		<stop  offset="0.23" style="stop-color:#E4714E"/>
		<stop  offset="0.56" style="stop-color:#BE1A0D"/>
		<stop  offset="0.99" style="stop-color:#A80D00"/>
		<stop  offset="1" style="stop-color:#A80D00"/>
	</linearGradient>
	<path class="st16" d="M223.4,80.2l-7.3-28.7l-21,19.6L223.4,80.2z"/>
	
		<linearGradient id="SVGID_6_" gradientUnits="userSpaceOnUse" x1="1.7463" y1="272.7733" x2="1.78" y2="272.5669" gradientTransform="matrix(94.3212 0 0 -66.4185 61.0506 18155.7227)">
		<stop  offset="0" style="stop-color:#FFFFFF"/>
		<stop  offset="0" style="stop-color:#FFFFFF"/>
		<stop  offset="0.18" style="stop-color:#E46342"/>
		<stop  offset="0.4" style="stop-color:#C82410"/>
		<stop  offset="0.99" style="stop-color:#A80D00"/>
		<stop  offset="1" style="stop-color:#A80D00"/>
	</linearGradient>
	<path class="st17" d="M241.7,51.9l-19.8-16.2l-5.5,17.8L241.7,51.9z"/>
	
		<linearGradient id="SVGID_7_" gradientUnits="userSpaceOnUse" x1="2.0129" y1="271.681" x2="2.2066" y2="271.9631" gradientTransform="matrix(70.7666 0 0 -24.3007 73.6577 6635.7607)">
		<stop  offset="0" style="stop-color:#FFFFFF"/>
		<stop  offset="0" style="stop-color:#FFFFFF"/>
		<stop  offset="0.54" style="stop-color:#C81F11"/>
		<stop  offset="0.99" style="stop-color:#BF0905"/>
		<stop  offset="1" style="stop-color:#BF0905"/>
	</linearGradient>
	<path class="st18" d="M232.5,30l-11.6,6.4l-7.3-6.5L232.5,30z"/>
	
		<linearGradient id="SVGID_8_" gradientUnits="userSpaceOnUse" x1="10.6468" y1="273.8653" x2="10.7089" y2="273.7098" gradientTransform="matrix(18.1773 0 0 -72.6448 -17.1773 19963.7637)">
		<stop  offset="0" style="stop-color:#FFFFFF"/>
		<stop  offset="0" style="stop-color:#FFFFFF"/>
		<stop  offset="0.31" style="stop-color:#DE4024"/>
		<stop  offset="0.99" style="stop-color:#BF190B"/>
		<stop  offset="1" style="stop-color:#BF190B"/>
	</linearGradient>
	<path class="st19" d="M175,84.3l4.9-8.9L176,64.8L175,84.3z"/>
	<path class="st20" d="M175.6,64.5l4,11.3l17.3-3.9l19.7-18.3l5.6-17.7l-8.8-6.2l-14.9,5.6c-4.7,4.4-13.8,13-14.1,13.2
		C184,48.6,178.4,59.4,175.6,64.5L175.6,64.5z"/>
	
		<linearGradient id="SVGID_9_" gradientUnits="userSpaceOnUse" x1="2.0035" y1="272.5197" x2="2.3388" y2="272.8649" gradientTransform="matrix(158.1624 0 0 -157.9374 -148.3454 43124.3164)">
		<stop  offset="0" style="stop-color:#BD0012"/>
		<stop  offset="0" style="stop-color:#BD0012"/>
		<stop  offset="7.000000e-02" style="stop-color:#FFFFFF"/>
		<stop  offset="0.17" style="stop-color:#FFFFFF"/>
		<stop  offset="0.27" style="stop-color:#C82F1C"/>
		<stop  offset="0.33" style="stop-color:#820C01"/>
		<stop  offset="0.46" style="stop-color:#A31601"/>
		<stop  offset="0.72" style="stop-color:#B31301"/>
		<stop  offset="0.99" style="stop-color:#E82609"/>
		<stop  offset="1" style="stop-color:#E82609"/>
	</linearGradient>
	<path class="st21" d="M189.6,44.2c10.2-10.1,23.3-16,28.3-11c5,5.1-0.3,17.4-10.5,27.5S184.3,77.1,179.3,72
		C174.2,67,179.4,54.3,189.6,44.2L189.6,44.2z"/>
	
		<linearGradient id="SVGID_10_" gradientUnits="userSpaceOnUse" x1="2.2231" y1="273.7052" x2="2.0974" y2="273.7457" gradientTransform="matrix(127.0738 0 0 -97.4086 -73.3301 26750.0684)">
		<stop  offset="0" style="stop-color:#8C0C01"/>
		<stop  offset="0" style="stop-color:#8C0C01"/>
		<stop  offset="0.54" style="stop-color:#990C00"/>
		<stop  offset="0.99" style="stop-color:#A80D0E"/>
		<stop  offset="1" style="stop-color:#A80D0E"/>
	</linearGradient>
	<path class="st22" d="M189.1,97.9l7.9-26.1l26.2,8.4C213.8,89,203.2,96.6,189.1,97.9L189.1,97.9z"/>
	
		<linearGradient id="SVGID_11_" gradientUnits="userSpaceOnUse" x1="1.8562" y1="273.1295" x2="1.7052" y2="273.25" gradientTransform="matrix(94.0112 0 0 -105.6032 62.0811 28913.0098)">
		<stop  offset="0" style="stop-color:#7E110B"/>
		<stop  offset="0" style="stop-color:#7E110B"/>
		<stop  offset="0.99" style="stop-color:#9E0C00"/>
		<stop  offset="1" style="stop-color:#9E0C00"/>
	</linearGradient>
	<path class="st23" d="M216.6,53.5l6.7,26.7c7.9-8.3,15-17.3,18.5-28.3L216.6,53.5L216.6,53.5z"/>
	
		<linearGradient id="SVGID_12_" gradientUnits="userSpaceOnUse" x1="1.8251" y1="272.4591" x2="1.7364" y2="272.5516" gradientTransform="matrix(79.7018 0 0 -81.7914 96.3546 22331.082)">
		<stop  offset="0" style="stop-color:#79130D"/>
		<stop  offset="0" style="stop-color:#79130D"/>
		<stop  offset="0.99" style="stop-color:#9E120B"/>
		<stop  offset="1" style="stop-color:#9E120B"/>
	</linearGradient>
	<path class="st24" d="M241.8,52c2.7-8.1,3.3-19.8-9.4-22L222,35.8L241.8,52L241.8,52z"/>
	<path class="st25" d="M175,84.2c0.4,13.4,10.1,13.6,14.2,13.7l-9.5-22.2L175,84.2L175,84.2z"/>
	
		<radialGradient id="SVGID_13_" cx="1.7346" cy="273.5432" r="0.1868" gradientTransform="matrix(93.1133 0 0 -48.6553 63.1192 13366.457)" gradientUnits="userSpaceOnUse">
		<stop  offset="0" style="stop-color:#A80D00"/>
		<stop  offset="0" style="stop-color:#A80D00"/>
		<stop  offset="0.99" style="stop-color:#7E0E08"/>
		<stop  offset="1" style="stop-color:#7E0E08"/>
	</radialGradient>
	<path class="st26" d="M216.6,53.6c6.1,3.7,18.3,11.3,18.6,11.4c0.4,0.2,5.3-8.3,6.4-13.1L216.6,53.6L216.6,53.6z"/>
	
		<radialGradient id="SVGID_14_" cx="2.2053" cy="274.0212" r="0.2373" gradientTransform="matrix(97.4344 0 0 -75.848 -14.3214 20864.0215)" gradientUnits="userSpaceOnUse">
		<stop  offset="0" style="stop-color:#A30C00"/>
		<stop  offset="0" style="stop-color:#A30C00"/>
		<stop  offset="0.99" style="stop-color:#800E08"/>
		<stop  offset="1" style="stop-color:#800E08"/>
	</radialGradient>
	<path class="st27" d="M197,71.7l10.6,20.4c6.2-3.4,11.1-7.5,15.6-11.9L197,71.7L197,71.7z"/>
	
		<linearGradient id="SVGID_15_" gradientUnits="userSpaceOnUse" x1="5.2754" y1="273.9181" x2="5.1319" y2="274.159" gradientTransform="matrix(40.1367 0 0 -81.143 -27.5331 22324.3672)">
		<stop  offset="0" style="stop-color:#8B2114"/>
		<stop  offset="0" style="stop-color:#8B2114"/>
		<stop  offset="0.43" style="stop-color:#9E100A"/>
		<stop  offset="0.99" style="stop-color:#B3100C"/>
		<stop  offset="1" style="stop-color:#B3100C"/>
	</linearGradient>
	<path class="st28" d="M179.6,75.7l-1.5,17.8c2.8,3.9,6.7,4.2,10.8,3.9C185.9,90.1,180,75.4,179.6,75.7L179.6,75.7z"/>
	
		<linearGradient id="SVGID_16_" gradientUnits="userSpaceOnUse" x1="1.6734" y1="272.0469" x2="1.8387" y2="271.8722" gradientTransform="matrix(78.0993 0 0 -32.6239 97.7268 8908.3213)">
		<stop  offset="0" style="stop-color:#B31000"/>
		<stop  offset="0" style="stop-color:#B31000"/>
		<stop  offset="0.44" style="stop-color:#910F08"/>
		<stop  offset="0.99" style="stop-color:#791C12"/>
		<stop  offset="1" style="stop-color:#791C12"/>
	</linearGradient>
	<path class="st29" d="M221.9,35.8l21,2.9c-1.1-4.7-4.6-7.8-10.4-8.8L221.9,35.8L221.9,35.8z"/>
</g>
</svg>
