<?xml version="1.0" encoding="utf-8"?>
<!-- Generator: Adobe Illustrator 25.2.0, SVG Export Plug-In . SVG Version: 6.00 Build 0)  -->
<svg version="1.1" id="Layer_1" xmlns="http://www.w3.org/2000/svg" xmlns:xlink="http://www.w3.org/1999/xlink" x="0px" y="0px"
	 viewBox="0 0 272 272" style="enable-background:new 0 0 272 272;" xml:space="preserve">
<style type="text/css">
	.st0{fill-rule:evenodd;clip-rule:evenodd;fill:#FFFFFF;}
	.st1{fill-rule:evenodd;clip-rule:evenodd;fill:#22BAE6;}
	.st2{fill:#22BAE6;}
	.st3{fill:none;stroke:#FFFFFF;stroke-width:3;stroke-miterlimit:10;}
	.st4{fill:none;stroke:#FFFFFF;stroke-width:3;stroke-miterlimit:10;stroke-dasharray:4.8543,1.9417;}
	.st5{fill:none;stroke:#FFFFFF;stroke-width:3;stroke-miterlimit:10;stroke-dasharray:4.9649,1.9859;}
	.st6{fill:none;stroke:#FFFFFF;stroke-width:3;stroke-miterlimit:10;stroke-dasharray:5.0156,2.0062;}
	.st7{fill:none;stroke:#FFFFFF;stroke-width:3;stroke-miterlimit:10;stroke-dasharray:4.9498,1.9799;}
	.st8{fill:none;stroke:#FFFFFF;stroke-width:3;stroke-linecap:round;stroke-linejoin:round;stroke-miterlimit:10;}
	.st9{fill:#FFFFFF;stroke:#FFFFFF;stroke-width:0.3479;stroke-linecap:round;stroke-linejoin:round;stroke-miterlimit:10;}
	.st10{fill:none;stroke:#FFFFFF;stroke-width:5;stroke-miterlimit:10;}
	.st11{fill:none;stroke:#FFFFFF;stroke-width:2;stroke-linecap:round;stroke-linejoin:round;stroke-miterlimit:10;}
	
		.st12{opacity:0.5;fill:#FFFFFF;stroke:#FFFFFF;stroke-width:2;stroke-linecap:round;stroke-linejoin:round;stroke-miterlimit:10;enable-background:new    ;}
	.st13{fill:#DD4443;}
	.st14{fill:#FFFFFF;}
</style>
<g id="CAD">
	<path id="XMLID_8_" class="st0" d="M143.8,121c-20.9,0-38.7,7.4-53.3,22.1c-14.7,14.6-22.1,32.4-22.1,53.3s7.4,38.7,22.1,53.2
		c5.4,5.5,11.3,10,17.5,13.5H16.4c-1.5-0.1-2.8-0.5-4.2-1.2c-2.3-1.1-3.4-3.2-3.4-6.4V69.2c0.2-1.6,0.6-3.1,1.1-4.2
		c1.2-2.3,3.4-3.4,6.6-3.4h186.3l1.2,0.2c1.1,0.2,2,0.5,2.9,0.8c2.4,1.1,3.6,3.2,3.6,6.6v91.6c-3.5-6.3-8-12.3-13.5-17.7
		C182.1,128.4,164.4,121,143.8,121z"/>
	<g>
		<path id="XMLID_2_" class="st1" d="M143.8,121c20.6,0,38.4,7.4,53.2,22.1c5.5,5.4,10,11.4,13.4,17.7V69.2c0-3.3-1.2-5.5-3.6-6.6
			c-0.8-0.3-1.8-0.6-2.9-0.8l-1.2-0.2H16.4c-3.2,0-5.4,1.1-6.6,3.4c-0.6,1.2-0.9,2.6-1.1,4.2v186.2c0,3.2,1.1,5.4,3.4,6.4
			c1.4,0.7,2.8,1.1,4.2,1.2h91.6c-6.3-3.5-12.2-8-17.5-13.5c-14.7-14.5-22.1-32.3-22.1-53.2s7.4-38.7,22.1-53.3
			C105,128.4,122.8,121,143.8,121z M207.6,53c2,0.4,3.6,0.9,4.6,1.5c4.5,2.2,6.8,6.2,6.8,11.9v130c0,20.9-7.4,38.6-22.2,53.2
			C182,264.5,164.2,272,143.6,272h-130c-2.2,0-4.5-0.6-6.8-1.6C2.3,268,0,264,0,258.3V66.4c0-2.3,0.6-4.5,1.8-6.8
			C4,55,8,52.8,13.7,52.8h191.7L207.6,53z"/>
		<g>
			<path class="st2" d="M46.1,86.6c-4.5,0-8,1.6-10.6,4.7c-2.6,3.1-3.8,7.5-3.8,13.1c0,5.8,1.2,10.2,3.7,13.2c2.4,3,6,4.5,10.7,4.5
				c2,0,4-0.2,5.8-0.6c1.9-0.4,3.8-0.9,5.8-1.5v6.7c-3.7,1.4-8,2.1-12.7,2.1c-7,0-12.3-2.1-16-6.3c-3.7-4.2-5.6-10.1-5.6-18
				c0-5,0.9-9.3,2.7-13c1.8-3.7,4.5-6.6,7.9-8.5s7.5-2.9,12-2.9c4.9,0,9.3,1,13.5,3.1l-2.8,6.5c-1.6-0.7-3.3-1.5-5.1-2
				C49.9,86.9,48.1,86.6,46.1,86.6z"/>
			<path class="st2" d="M83.9,128.2l-1.2-4h-0.2c-1.4,1.7-2.8,2.9-4.1,3.6c-1.4,0.6-3.2,1-5.4,1c-2.8,0-5-0.7-6.6-2.3
				c-1.6-1.5-2.4-3.7-2.4-6.4c0-2.9,1.1-5.1,3.2-6.7c2.2-1.5,5.5-2.3,10-2.4l5-0.2v-1.5c0-1.8-0.4-3.2-1.3-4.1s-2.2-1.4-4-1.4
				c-1.5,0-2.8,0.2-4.2,0.6c-1.4,0.4-2.6,1-3.9,1.5l-1.9-4.4c1.5-0.8,3.2-1.5,5-1.9c1.8-0.4,3.6-0.6,5.2-0.6c3.7,0,6.3,0.8,8.2,2.4
				c1.9,1.5,2.8,4.1,2.8,7.5v19.2H83.9L83.9,128.2z M74.9,124c2.2,0,4-0.6,5.3-1.9c1.3-1.2,2-2.9,2-5.2v-2.5l-3.7,0.2
				c-2.8,0.1-5,0.6-6.3,1.5s-1.9,2.2-1.9,3.9c0,1.3,0.4,2.3,1.1,2.9C72.2,123.7,73.4,124,74.9,124z"/>
		</g>
	</g>
	<g>
		<g>
			<g>
				<polyline class="st3" points="184.2,230.5 184.2,232.6 182.1,232.6 				"/>
				<line class="st4" x1="180.5" y1="232.6" x2="109.6" y2="232.6"/>
				<polyline class="st3" points="108.9,232.6 106.8,232.6 106.8,230.5 				"/>
				<line class="st5" x1="106.8" y1="228.9" x2="106.8" y2="201.5"/>
				<polyline class="st3" points="106.8,200.7 106.8,198.7 108.3,197.2 				"/>
				<polyline class="st6" points="109.4,196.1 127.2,178.6 140.8,165 181.3,165 				"/>
				<polyline class="st3" points="182.1,165 184.2,165 184.2,167 				"/>
				<line class="st7" x1="184.2" y1="168.7" x2="184.2" y2="229.7"/>
			</g>
		</g>
		<rect x="155.8" y="192" class="st8" width="15.3" height="13.5"/>
		<rect x="162.7" y="198" class="st9" width="1.8" height="1.5"/>
		<polygon class="st10" points="148.9,157 102.4,157 102.4,203.1 		"/>
		<polygon class="st3" points="126.4,168.7 111.4,168.7 111.4,183.4 		"/>
		<line class="st8" x1="111.4" y1="156.7" x2="111.4" y2="161.4"/>
		<line class="st11" x1="122.8" y1="156.7" x2="122.8" y2="160.8"/>
		<line class="st8" x1="128.9" y1="157.5" x2="128.9" y2="159.4"/>
		<line class="st11" x1="134.9" y1="157.5" x2="134.9" y2="159.4"/>
		<line class="st11" x1="116.8" y1="157.5" x2="116.8" y2="160.1"/>
		<line class="st8" x1="163.6" y1="192" x2="163.6" y2="165"/>
		<line class="st8" x1="163.6" y1="232.1" x2="163.6" y2="205.8"/>
		<line class="st8" x1="155.8" y1="198.8" x2="106.8" y2="198.8"/>
		<line class="st8" x1="171.2" y1="198.8" x2="184.2" y2="198.8"/>
		<polygon class="st12" points="163.4,232.6 106.8,232.6 106.8,198.8 155.8,198.8 155.8,205.1 163.4,205.5 		"/>
	</g>
</g>
<circle class="st13" cx="207.7" cy="65" r="63.7"/>
<g>
	<path class="st14" d="M195.4,85.4c0,0-3.6,2.1,2.5,2.8c7.4,0.8,11.2,0.7,19.4-0.8c0,0,2.1,1.3,5.2,2.5
		C204.2,97.7,181,89.4,195.4,85.4"/>
	<path class="st14" d="M193.2,75.1c0,0-4,3,2.1,3.6c7.9,0.8,14.2,0.9,25-1.2c0,0,1.5,1.5,3.9,2.3C202,86.4,177.3,80.4,193.2,75.1"/>
	<path class="st14" d="M212.1,57.8c4.5,5.2-1.2,9.9-1.2,9.9s11.5-5.9,6.2-13.3c-4.9-6.9-8.7-10.3,11.7-22.2
		C228.8,32.1,196.7,40.1,212.1,57.8"/>
	<path class="st14" d="M236.3,93c0,0,2.6,2.2-2.9,3.9c-10.6,3.2-44,4.2-53.3,0.1c-3.3-1.5,2.9-3.5,4.9-3.9c2.1-0.4,3.2-0.4,3.2-0.4
		c-3.7-2.6-24,5.1-10.3,7.4C215.2,106.1,246,97.3,236.3,93"/>
	<path class="st14" d="M197.1,64.5c0,0-17,4-6,5.5c4.6,0.6,13.9,0.5,22.5-0.2c7-0.6,14.1-1.9,14.1-1.9s-2.5,1.1-4.3,2.3
		c-17.3,4.5-50.7,2.4-41.1-2.2C190.5,64.1,197.1,64.5,197.1,64.5"/>
	<path class="st14" d="M227.7,81.6c17.6-9.1,9.4-17.9,3.8-16.7c-1.4,0.3-2,0.5-2,0.5s0.5-0.8,1.5-1.2c11.2-3.9,19.8,11.6-3.6,17.8
		C227.3,82,227.6,81.8,227.7,81.6"/>
	<path class="st14" d="M217.1,13c0,0,9.7,9.7-9.2,24.7c-15.2,12-3.5,18.8,0,26.7c-8.9-8-15.4-15.1-11-21.6
		C203.2,33.1,221,28.4,217.1,13"/>
	<path class="st14" d="M198.9,106.3c16.9,1.1,42.8-0.6,43.4-8.6c0,0-1.2,3-13.9,5.4c-14.4,2.7-32.1,2.4-42.7,0.7
		C185.6,103.8,187.8,105.6,198.9,106.3"/>
</g>
</svg>
