<?xml version="1.0" encoding="utf-8"?>
<!-- Generator: Adobe Illustrator 25.2.0, SVG Export Plug-In . SVG Version: 6.00 Build 0)  -->
<svg version="1.1" id="Layer_1" xmlns="http://www.w3.org/2000/svg" xmlns:xlink="http://www.w3.org/1999/xlink" x="0px" y="0px"
	 viewBox="0 0 272 272" style="enable-background:new 0 0 272 272;" xml:space="preserve">
<style type="text/css">
	.st0{fill-rule:evenodd;clip-rule:evenodd;fill:#FFFFFF;}
	.st1{fill-rule:evenodd;clip-rule:evenodd;fill:#22BAE6;}
	.st2{fill:#22BAE6;}
	.st3{fill:#FFFFFF;}
	.st4{fill:#8CC84B;}
</style>
<g id="Cloud">
	<path id="XMLID_8_" class="st0" d="M143.7,121.1c-20.9,0-38.7,7.4-53.3,22.1c-14.7,14.6-22.1,32.4-22.1,53.3s7.4,38.7,22.1,53.2
		c5.4,5.5,11.3,10,17.5,13.5H16.4c-1.5-0.1-2.8-0.5-4.2-1.2c-2.3-1.1-3.4-3.2-3.4-6.4V69.2c0.2-1.6,0.6-3.1,1.1-4.2
		c1.2-2.3,3.4-3.4,6.6-3.4h186.2l1.2,0.2c1.1,0.2,2,0.5,2.9,0.8c2.4,1.1,3.6,3.2,3.6,6.6v91.6c-3.5-6.3-8-12.3-13.5-17.7
		C182,128.5,164.3,121.1,143.7,121.1z"/>
	<g>
		<path id="XMLID_2_" class="st1" d="M143.7,121.1c20.6,0,38.4,7.4,53.1,22.1c5.5,5.4,10,11.4,13.4,17.7V69.2c0-3.3-1.2-5.5-3.6-6.6
			c-0.8-0.3-1.8-0.6-2.9-0.8l-1.2-0.2H16.4c-3.2,0-5.4,1.1-6.6,3.4c-0.6,1.2-0.9,2.6-1.1,4.2v186.1c0,3.2,1.1,5.4,3.4,6.4
			c1.4,0.7,2.8,1.1,4.2,1.2h91.5c-6.3-3.5-12.2-8-17.5-13.5c-14.7-14.5-22.1-32.3-22.1-53.2s7.4-38.7,22.1-53.3
			C105,128.5,122.8,121.1,143.7,121.1z M207.5,53.1c2,0.4,3.6,0.9,4.6,1.5c4.5,2.2,6.8,6.2,6.8,11.9v130c0,20.9-7.4,38.5-22.2,53.2
			c-14.8,14.8-32.5,22.2-53.1,22.2H13.6c-2.2,0-4.5-0.6-6.8-1.6C2.3,268,0,264,0,258.3V66.5c0-2.3,0.6-4.5,1.8-6.8
			C4,55.1,8,52.9,13.7,52.9h191.6L207.5,53.1z"/>
		<g>
			<path class="st2" d="M61.7,128.2h-7.8v-21.4H32v21.4h-7.8V80.7H32v19.4h21.9V80.7h7.8V128.2L61.7,128.2z"/>
		</g>
	</g>
	<g id="shape">
		<path class="st3" d="M85.6,196.3l38.4-19.8v5.7l-32.4,16.2v0.2l32.4,16.2v5.7l-38.4-19.8C85.6,200.7,85.6,196.3,85.6,196.3z"/>
		<path class="st3" d="M129.4,223.9l23.1-60h5.6l-23.2,60H129.4z"/>
		<path class="st3" d="M201.7,200.8l-38.4,19.7v-5.7l32.6-16.2v-0.2l-32.6-16.2v-5.7l38.4,19.7V200.8z"/>
	</g>
</g>
<g>
	<circle class="st4" cx="207.7" cy="65" r="62.7"/>
	<path class="st3" d="M207.7,3.3c34,0,61.7,27.7,61.7,61.7s-27.7,61.7-61.7,61.7S146,99.1,146,65S173.7,3.3,207.7,3.3 M207.7,1.3
		C172.5,1.3,144,29.8,144,65s28.5,63.7,63.7,63.7s63.7-28.5,63.7-63.7S242.9,1.3,207.7,1.3L207.7,1.3z"/>
</g>
<g>
	<path class="st3" d="M204.5,27c1.9-1.1,4.4-1.1,6.4,0c9.7,5.5,19.4,10.9,29,16.4c1.8,1,3,3,3,5.1v32.9c0,2.2-1.3,4.3-3.2,5.3
		c-9.6,5.4-19.3,10.9-28.9,16.3c-2,1.1-4.5,1-6.4-0.2c-2.9-1.7-5.8-3.3-8.7-5c-0.6-0.4-1.3-0.6-1.7-1.2c0.4-0.5,1-0.6,1.6-0.8
		c1.2-0.4,2.3-1,3.4-1.6c0.3-0.2,0.6-0.1,0.9,0.1c2.5,1.4,4.9,2.9,7.4,4.3c0.5,0.3,1.1-0.1,1.5-0.4c9.5-5.3,18.9-10.7,28.4-16
		c0.4-0.2,0.5-0.5,0.5-0.9c0-10.8,0-21.7,0-32.6c0-0.4-0.2-0.8-0.6-1c-9.6-5.4-19.2-10.8-28.8-16.2c-0.3-0.2-0.8-0.2-1.1,0
		c-9.6,5.4-19.2,10.8-28.8,16.3c-0.4,0.2-0.7,0.6-0.6,1c0,10.8,0,21.7,0,32.6c0,0.4,0.2,0.7,0.5,0.9c2.6,1.5,5.1,2.9,7.7,4.3
		c1.4,0.8,3.2,1.2,4.8,0.6c1.4-0.5,2.4-1.9,2.4-3.4c0-10.8,0-21.6,0-32.4c0-0.5,0.4-0.9,0.9-0.8c1.2,0,2.5,0,3.7,0
		c0.5,0,0.9,0.5,0.8,1c0,10.9,0,21.7,0,32.6c0,2.9-1.2,6-3.9,7.5c-3.3,1.7-7.4,1.3-10.6-0.3c-2.8-1.4-5.5-3.1-8.3-4.6
		c-1.9-1-3.3-3.1-3.2-5.3V48.6c0-2.1,1.2-4.2,3.1-5.2C185.2,37.9,194.9,32.5,204.5,27z"/>
	<path class="st3" d="M212.9,49.8c4.2-0.3,8.7-0.2,12.5,1.9c2.9,1.6,4.6,4.9,4.6,8.2c-0.1,0.4-0.5,0.7-1,0.7c-1.2,0-2.4,0-3.7,0
		c-0.5,0-0.8-0.5-0.9-0.9c-0.4-1.6-1.2-3.1-2.7-3.9c-2.3-1.1-4.9-1.1-7.3-1c-1.8,0.1-3.7,0.3-5.2,1.3c-1.2,0.8-1.5,2.4-1.1,3.7
		c0.4,0.9,1.5,1.2,2.3,1.5c5.1,1.3,10.4,1.2,15.4,2.9c2.1,0.7,4.1,2.1,4.8,4.2c0.9,2.9,0.5,6.3-1.5,8.7c-1.7,1.9-4.1,2.9-6.5,3.5
		c-3.2,0.7-6.6,0.7-9.8,0.4c-3.1-0.4-6.3-1.2-8.6-3.3c-2-1.8-3-4.5-2.9-7.2c0-0.4,0.5-0.8,0.9-0.7c1.2,0,2.5,0,3.7,0
		c0.5,0,0.9,0.4,0.9,0.9c0.2,1.5,0.8,3,2.1,3.9c2.5,1.6,5.6,1.5,8.5,1.5c2.4-0.1,5-0.1,7-1.7c1-0.9,1.3-2.4,1-3.7
		c-0.3-1.1-1.4-1.6-2.4-1.9c-5-1.6-10.4-1-15.4-2.8c-2-0.7-4-2.1-4.7-4.1c-1.1-2.9-0.6-6.5,1.7-8.8C206.7,51,209.9,50.1,212.9,49.8
		L212.9,49.8z"/>
</g>
</svg>
