<?xml version="1.0" encoding="utf-8"?>
<!-- Generator: Adobe Illustrator 25.2.0, SVG Export Plug-In . SVG Version: 6.00 Build 0)  -->
<svg version="1.1" id="Layer_1" xmlns="http://www.w3.org/2000/svg" xmlns:xlink="http://www.w3.org/1999/xlink" x="0px" y="0px"
	 viewBox="0 0 272 272" style="enable-background:new 0 0 272 272;" xml:space="preserve">
<style type="text/css">
	.st0{fill-rule:evenodd;clip-rule:evenodd;fill:#FFFFFF;}
	.st1{fill-rule:evenodd;clip-rule:evenodd;fill:#22BAE6;}
	.st2{fill:#FFFFFF;}
	.st3{fill:#22BAE6;}
	.st4{fill:#C1BC30;}
</style>
<g id="PDF">
	<path id="XMLID_20_" class="st0" d="M144,120.8c-21,0-38.8,7.4-53.4,22.1c-14.7,14.6-22.1,32.4-22.1,53.4s7.4,38.8,22.1,53.3
		c5.4,5.5,11.3,10,17.6,13.5H16.4c-1.5-0.1-2.8-0.5-4.2-1.2c-2.3-1.1-3.4-3.3-3.4-6.4V68.8c0.2-1.6,0.6-3.1,1.1-4.2
		c1.2-2.3,3.4-3.4,6.6-3.4h186.6l1.2,0.2c1.1,0.2,2,0.5,2.9,0.8c2.4,1.1,3.6,3.3,3.6,6.6v91.8c-3.5-6.3-8-12.3-13.5-17.7
		C182.4,128.2,164.6,120.8,144,120.8z"/>
	<path id="XMLID_17_" class="st1" d="M144,120.8c20.7,0,38.5,7.4,53.3,22.1c5.5,5.4,10,11.4,13.4,17.7V68.8c0-3.3-1.2-5.5-3.6-6.6
		c-0.8-0.3-1.8-0.7-2.9-0.8l-1.2-0.2H16.4c-3.2,0-5.4,1.1-6.6,3.4c-0.6,1.2-0.9,2.6-1.1,4.2v186.5c0,3.2,1.1,5.4,3.4,6.4
		c1.4,0.7,2.8,1.1,4.2,1.2h91.7c-6.3-3.5-12.2-8-17.6-13.5c-14.7-14.6-22.1-32.4-22.1-53.3s7.4-38.8,22.1-53.4
		C105.2,128.2,123,120.8,144,120.8z M207.9,52.6c2,0.4,3.6,0.9,4.6,1.5c4.6,2.2,6.8,6.2,6.8,12v130.2c0,20.9-7.4,38.6-22.3,53.3
		c-14.8,14.8-32.6,22.3-53.3,22.3H13.7c-2.2,0-4.5-0.6-6.8-1.6C2.3,268,0,264,0,258.3V66.1c0-2.3,0.6-4.6,1.8-6.8
		c2.2-4.6,6.2-6.8,12-6.8h192L207.9,52.6z"/>
	<g>
		<path class="st2" d="M190.9,201.8h-40.7c-1.4,0-2.5-1.1-2.5-2.5v-26.5c0-1.4,1.1-2.5,2.5-2.5h40.7c1.4,0,2.5,1.1,2.5,2.5v26.5
			C193.4,200.6,192.3,201.8,190.9,201.8z"/>
		<polygon class="st3" points="152.9,196.1 162.4,186.1 168.9,192.5 178.7,179.3 189.8,195.9 		"/>
		<circle class="st3" cx="155.5" cy="180.1" r="2.5"/>
	</g>
	<path class="st2" d="M135.9,201.1h-21.1c-2.8,0-5-2.3-5-5l0,0c0-2.8,2.3-5,5-5h21.1c2.8,0,5,2.3,5,5l0,0
		C140.9,198.8,138.7,201.1,135.9,201.1z"/>
	<ellipse class="st2" cx="99.7" cy="196.1" rx="5" ry="5"/>
	<path class="st2" d="M135.9,180.2H99.7c-2.8,0-5-2.3-5-5l0,0c0-2.8,2.3-5,5-5h36.3c2.8,0,5,2.3,5,5l0,0
		C140.9,178,138.7,180.2,135.9,180.2z"/>
	<path class="st2" d="M154.1,221.8H99.7c-2.8,0-5-2.3-5-5l0,0c0-2.8,2.3-5,5-5h54.4c2.8,0,5,2.3,5,5l0,0
		C159,219.5,156.8,221.8,154.1,221.8z"/>
	<path class="st2" d="M154.1,221.8h-1.5c-2.8,0-5-2.3-5-5l0,0c0-2.8,2.3-5,5-5h1.5c2.8,0,5,2.3,5,5l0,0
		C159,219.5,156.8,221.8,154.1,221.8z"/>
	<path class="st2" d="M188.5,221.8h-17.1c-2.8,0-5-2.3-5-5l0,0c0-2.8,2.3-5,5-5h17.1c2.8,0,5,2.3,5,5l0,0
		C193.4,219.5,191.1,221.8,188.5,221.8z"/>
	<g>
		<path class="st3" d="M54.6,101.4c-1.1,2.1-2.9,3.8-5.4,5.1c-2.5,1.3-5.6,2-9.5,2h-8.5v18.9h-7.7V80.8h16.1c3.6,0,6.6,0.6,9.1,1.8
			c2.5,1.2,4.3,2.9,5.6,5c1.2,2.1,1.8,4.5,1.8,7.1C56.3,97.1,55.7,99.3,54.6,101.4z M46.3,100.3c1.4-1.3,2.1-3.2,2.1-5.6
			c0-5.1-2.9-7.7-8.7-7.7h-8.5v15.2h8.5C42.7,102.3,44.8,101.6,46.3,100.3z"/>
	</g>
</g>
<circle class="st4" cx="207.7" cy="65" r="63.7"/>
<g>
	<path class="st2" d="M174.4,48.5c-3.2,0-5.8,2.6-5.8,5.8v24.1c0,3.2,2.6,5.8,5.8,5.8s5.8-2.6,5.8-5.8V54.3
		C180.2,51,177.6,48.5,174.4,48.5L174.4,48.5z M241.8,48.5c-3.2,0-5.8,2.6-5.8,5.8v24.1c0,3.2,2.6,5.8,5.8,5.8s5.8-2.6,5.8-5.8V54.3
		C247.5,51,245,48.5,241.8,48.5L241.8,48.5z"/>
	<path class="st2" d="M198.4,75.9c-3.2,0-5.8,2.6-5.8,5.8v24.1c0,3.2,2.6,5.8,5.8,5.8s5.8-2.6,5.8-5.8V81.7
		C204.2,78.5,201.7,75.9,198.4,75.9L198.4,75.9z M217.7,75.9c-3.2,0-5.8,2.6-5.8,5.8v24.1c0,3.2,2.6,5.8,5.8,5.8s5.8-2.6,5.8-5.8
		V81.7C223.5,78.5,220.9,75.9,217.7,75.9L217.7,75.9z"/>
	<path class="st2" d="M192.1,18.2c-0.1,0-0.3,0-0.4,0.1c-0.4,0.2-0.5,0.7-0.3,1.1l4.1,7.4c-7.8,4.1-13.1,11.8-13.1,20.7h51.5
		c0-8.9-5.3-16.6-13.1-20.7l4.1-7.4c0.2-0.4,0.1-0.9-0.3-1.1c-0.1-0.1-0.3-0.1-0.4-0.1c-0.3,0-0.6,0.1-0.7,0.4l-4.1,7.4
		c-3.4-1.5-7.2-2.3-11.1-2.3s-7.8,0.8-11.1,2.3l-4.1-7.4C192.6,18.3,192.4,18.2,192.1,18.2L192.1,18.2z M182.3,49.5v37.3
		c0,3.5,2.8,6.2,6.2,6.2h39.1c3.5,0,6.2-2.8,6.2-6.2V49.5H182.3L182.3,49.5z"/>
	<path class="st4" d="M196.2,33.7c-1.2,0-2.2,1-2.2,2.2s1,2.2,2.2,2.2s2.2-1,2.2-2.2C198.3,34.7,197.4,33.7,196.2,33.7L196.2,33.7z
		 M220,33.7c-1.2,0-2.2,1-2.2,2.2s1,2.2,2.2,2.2s2.2-1,2.2-2.2C222.1,34.7,221.1,33.7,220,33.7L220,33.7z"/>
</g>
</svg>
