<?xml version="1.0" encoding="utf-8"?>
<!-- Generator: Adobe Illustrator 25.2.0, SVG Export Plug-In . SVG Version: 6.00 Build 0)  -->
<svg version="1.1" id="Layer_1" xmlns="http://www.w3.org/2000/svg" xmlns:xlink="http://www.w3.org/1999/xlink" x="0px" y="0px"
	 viewBox="0 0 272 272" style="enable-background:new 0 0 272 272;" xml:space="preserve">
<style type="text/css">
	.st0{fill:#FFFFFF;}
	.st1{fill-rule:evenodd;clip-rule:evenodd;fill:#22BAE6;}
	.st2{fill-rule:evenodd;clip-rule:evenodd;fill:#FFFFFF;}
	.st3{fill:#4F5C93;}
</style>
<g id="Tasks">
	<polygon class="st0" points="213.7,63 206.3,58.3 12.4,58.3 5,65.7 5,260.1 9.8,266.3 154.7,266.3 213.7,191.6 	"/>
	<path class="st1" d="M68.2,196.5c0-20.9,7.3-38.7,22-53.3c14.6-14.7,32.3-22,53.3-22c20.7,0,38.4,7.3,53.2,22
		c14.8,14.7,22.2,32.4,22.2,53.3c0,20.8-7.4,38.5-22.2,53.2c-14.7,14.7-32.5,22.2-53.2,22.2c-21,0-38.7-7.4-53.3-22.2
		C75.6,235,68.2,217.3,68.2,196.5"/>
	<path class="st1" d="M218.8,196.5h-8.8V69.4c0-3.2-1.2-5.4-3.5-6.6c-0.9-0.4-1.8-0.7-2.9-0.9l-1.3-0.2H16.4c-3.3,0-5.5,1.2-6.6,3.4
		c-0.6,1.3-1,2.7-1.1,4.3v186.1c0,3.2,1.2,5.4,3.4,6.5c1.3,0.6,2.7,1.1,4.3,1.2h123.3l3.8,8.8H13.6c-2.2,0-4.6-0.5-6.8-1.7
		c-4.6-2.2-6.8-6.3-6.8-12V66.6c0-2.2,0.5-4.6,1.8-6.8C4.1,55.2,8.1,53,13.8,53h191.5l2.1,0.2c1.7,0.2,3.3,0.7,4.7,1.5
		c4.6,2.2,6.8,6.3,6.8,11.9v129.9H218.8z"/>
	<g>
		<path class="st1" d="M95,88l-16.9,16.4l15.9,23.8h-6l-13.4-20l-6.4,6.4l-0.1,13.5h-5.6l0.2-40.2h5.6l-0.1,19.9L88.7,88H95z
			 M24.2,84.8v-5.1l37.9,0.2v5.1L47,84.8L46.8,128h-6.7l0.2-43.2L24.2,84.8z"/>
	</g>
	<path class="st2" d="M110.6,162.8l-0.3,68.2l68.2,0.3l0.3-68.2L110.6,162.8z M105.4,235.9l0.4-78l77.8,0.4l-0.4,78L105.4,235.9z
		 M173.7,181.2l-34.2,34l-24.2-24.5l9.8-9.7l14.5,14.6l24.4-24.2L173.7,181.2z"/>
</g>
<circle class="st3" cx="207.7" cy="65" r="63.7"/>
<g>
	<path class="st0" d="M176.5,56.8c3.3,0,5.4,0.6,6.5,1.8s1.3,3.3,0.8,6.2c-0.6,3-1.7,5.2-3.4,6.5s-4.2,1.9-7.7,1.9h-5.2l3.2-16.4
		C170.7,56.8,176.5,56.8,176.5,56.8z M155.7,89.8h8.5l2-10.4h7.3c3.3,0,5.9-0.3,8-1s4-1.8,5.7-3.4c1.5-1.3,2.6-2.8,3.5-4.4
		s1.5-3.3,1.9-5.2c0.9-4.6,0.2-8.2-2-10.9c-2.3-2.6-5.9-3.9-10.8-3.9h-16.4L155.7,89.8z"/>
	<path class="st0" d="M198.9,40.2h8.5l-2,10.4h7.6c4.8,0,8,0.8,9.8,2.5s2.3,4.4,1.6,8.1l-3.5,18.2h-8.6l3.4-17.4
		c0.4-2,0.2-3.3-0.4-4c-0.6-0.7-2.1-1.1-4.2-1.1h-6.8l-4.4,22.5h-8.5L198.9,40.2z"/>
	<path class="st0" d="M243.2,56.8c3.3,0,5.4,0.6,6.5,1.8s1.3,3.3,0.8,6.2c-0.6,3-1.7,5.2-3.4,6.5s-4.2,1.9-7.7,1.9h-5.2l3.2-16.4
		C237.4,56.8,243.2,56.8,243.2,56.8z M222.4,89.8h8.5l2-10.4h7.3c3.3,0,5.9-0.3,8-1s4-1.8,5.7-3.4c1.5-1.3,2.6-2.8,3.5-4.4
		s1.5-3.3,1.9-5.2c0.9-4.6,0.2-8.2-2-10.9c-2.3-2.6-5.9-3.9-10.8-3.9H230L222.4,89.8z"/>
</g>
</svg>
