<?xml version="1.0" encoding="utf-8"?>
<!-- Generator: Adobe Illustrator 25.2.0, SVG Export Plug-In . SVG Version: 6.00 Build 0)  -->
<svg version="1.1" id="Layer_1" xmlns="http://www.w3.org/2000/svg" xmlns:xlink="http://www.w3.org/1999/xlink" x="0px" y="0px"
	 viewBox="0 0 272 272" style="enable-background:new 0 0 272 272;" xml:space="preserve">
<style type="text/css">
	.st0{fill:#FFFFFF;}
	.st1{fill-rule:evenodd;clip-rule:evenodd;fill:#22BAE6;}
	.st2{fill:#22BAE6;}
	.st3{fill:#3A3C5B;}
</style>
<g id="Slides">
	<polygon class="st0" points="210.7,64.1 203.5,59.5 14.5,59.5 7.4,66.6 7.4,256.3 12,262.4 153.1,262.4 210.7,189.4 	"/>
	<path class="st1" d="M68.3,196.6c0-20.9,7.3-38.7,22-53.4c14.6-14.7,32.4-22,53.4-22c20.7,0,38.4,7.3,53.2,22
		c14.8,14.7,22.1,32.4,22.1,53.4c0,20.8-7.4,38.5-22.1,53.2c-14.8,14.8-32.5,22.1-53.2,22.1c-21,0-38.8-7.4-53.4-22.1
		C75.6,235.1,68.3,217.3,68.3,196.6"/>
	<path class="st1" d="M218.9,196.6h-8.8V69.4c0-3.2-1.1-5.4-3.5-6.6c-0.8-0.4-1.7-0.7-2.8-0.9l-1.3-0.2H16.4c-3.3,0-5.5,1.1-6.6,3.4
		c-0.6,1.3-1,2.8-1.1,4.2v186.1c0,3.2,1.1,5.4,3.4,6.5c1.3,0.6,2.7,1.1,4.2,1.1h123.4l3.9,8.8h-130c-2.3,0-4.5-0.6-6.8-1.7
		C2.3,268,0,264,0,258.3V66.6c0-2.3,0.6-4.5,1.8-6.8C4.1,55.3,8,53,13.7,53h191.6l2.1,0.2c1.7,0.2,3.3,0.7,4.7,1.5
		c4.5,2.3,6.8,6.2,6.8,11.9V196.6z"/>
	<g>
		<path class="st2" d="M59,112c0,4.2-1.5,7.5-4.5,9.8c-3,2.4-7.1,3.6-12.5,3.6c-5.3,0-9.7-0.8-13.1-2.5v-7.2c2.1,1,4.4,1.8,6.8,2.4
			c2.4,0.6,4.6,0.9,6.7,0.9c3.1,0,5.3-0.6,6.7-1.7c1.5-1.1,2.2-2.7,2.2-4.6c0-1.8-0.6-3.2-1.9-4.5c-1.3-1.2-4.1-2.7-8.2-4.3
			c-4.3-1.7-7.3-3.7-9.1-5.9c-1.8-2.2-2.6-4.9-2.6-8c0-3.9,1.4-7,4.1-9.2c2.8-2.3,6.5-3.4,11.2-3.4c4.5,0,8.9,1,13.4,2.9l-2.4,6.2
			c-4.2-1.8-7.9-2.6-11.2-2.6c-2.5,0-4.4,0.6-5.7,1.6c-1.3,1.1-1.9,2.5-1.9,4.3c0,1.2,0.2,2.3,0.8,3.2c0.6,0.9,1.4,1.7,2.5,2.4
			c1.2,0.8,3.3,1.8,6.3,3.1c3.4,1.5,6,2.8,7.5,4c1.5,1.2,2.8,2.7,3.5,4.2C58.6,108.1,59,109.9,59,112z"/>
	</g>
	<g id="Symbol_4_">
		<path class="st0" d="M144.1,182c0,12.7-10.2,23-22.9,23s-22.9-10.3-22.9-23c0-12.7,10.2-23,22.9-23c0.9,0,0,0,0,0v23
			c0,0,0,0,20.7-10.1C143.2,173.9,144.1,177.1,144.1,182z"/>
		<path class="st0" d="M123.9,154v22.1l20.2-9.9C144.1,166.2,139.2,153.6,123.9,154z"/>
		<rect x="151.8" y="162.3" class="st0" width="35.4" height="1.5"/>
		<rect x="151.8" y="178.9" class="st0" width="35.4" height="1.5"/>
		<rect x="151.8" y="196.6" class="st0" width="35.4" height="1.5"/>
		<rect x="109.3" y="215.6" class="st0" width="77.8" height="1.5"/>
		<rect x="109.3" y="233.1" class="st0" width="77.8" height="1.5"/>
		<rect x="98.3" y="213.7" class="st0" width="6.9" height="7.1"/>
		<rect x="98.3" y="230.3" class="st0" width="6.9" height="7.1"/>
	</g>
</g>
<g>
	<path class="st3" d="M271.6,64.8c0,35.2-28.6,63.8-63.8,63.8S144,100,144,64.8S172.6,1,207.8,1S271.6,29.6,271.6,64.8"/>
	<g>
		<path class="st0" d="M245.9,68.4c-1.8-11.6-14.1-19.2-23.1-24.9c-4-2.5-10.4-5.7-11.2-10.9c-0.3-2.2-0.3-4.4-0.4-6.6
			c0-0.9,0-1.7-0.1-2.6c-0.1-1.1-1.2,0.3-1.8-0.7c-1.5-2.4-0.9,0.7-0.8,2c0.4,2.9,0.8,5.9,0.7,8.8c0,5.7-1,11.1-2.4,16.6
			c-3.3,12.8-5.9,25.9-2.7,39c0.7,2.7,1.6,5.4,2.7,7.9c0.4,0.8,1,2.9,2,3.2c3.5,0.9,6.1,1.2,8.9,3.8c1.7,1.6,3,0.7,5.1-0.1
			c6.2-2.5,11.5-5.6,15.9-10.7C244.8,86.1,247.4,77.7,245.9,68.4 M239.4,80.1c-0.5,4.8-3.6,9.1-6.6,12.6c-2.2,2.6-5.2,5.9-8.5,7.1
			c-1.2,0.4,0.2-2,0.4-2.2c1-1.5,2.3-2.9,3.4-4.3c1.7-2.1,3.2-4.3,4.2-6.8c3.4-8.4,2.6-18.7-2.4-26.3c-2.7-4.1-6.4-7.6-10.2-10.8
			c-1.8-1.5-3.6-3-5.2-4.8c-0.4-0.4-3.5-4.5-2.5-5.1c0.3-0.2,7.1,6.9,7.8,7.5c2.8,2.1,5.7,4.1,8.3,6.5c3.5,3.2,7.1,6.8,9.1,11.2
			C239.6,69.4,240,74.9,239.4,80.1"/>
		<path class="st0" d="M205.8,11c1,0.7,1.2,4.6,1.2,8.3c0,3.6,0.3,19.2-0.8,23.4s-3.7,8.8-6.6,12.9c-2.8,4.1-6.1,12.7-6,18
			s3.2,14,5.5,17.7c2.4,3.6,6.4,8.7,5.5,9.9c-1.6,2-8-5-11.4-9.1s-6.8-12.3-6.9-18.8c-0.1-6.5,3.5-12.5,6.1-16.1s7.7-9.9,9.1-12.7
			c1.4-2.8,2.8-5.9,3.3-9.9s0-18.1,0-18.1S204.7,10.4,205.8,11"/>
		<path class="st0" d="M203,17.7c1,0.5,1.1,1.7,1.1,2.9c0,1.2-0.3,6.3-0.7,11.3c-0.3,5-4.3,9.2-7.2,12.1
			c-2.9,2.9-11.4,12.1-14.6,16.6c-3.2,4.5-4.8,10.5-4.4,15.5c0.3,5.1,1.6,10.1,6.3,15.4c4.8,5.3,8,7.8,10.5,9.1
			c2.5,1.2,5,2.2,4.4,3.3c-0.6,1.1-2.9,0.3-5.5-0.6s-11.4-4.5-16.5-10.3s-7.7-13.5-7.5-20.8c0.2-7.4,2.3-10.4,5.7-15.2
			s12.8-11.8,15.7-13.6c2.9-1.8,6.9-4.9,8.8-7.4c1.9-2.5,2.9-4.5,2.8-7.9c-0.1-3.4,0.2-6.5,0.1-7.6C202,19.5,202,17.3,203,17.7"/>
		<path class="st0" d="M203.3,106.5c0.5,0,0.2,2-0.6,3s-2.2,1.6-2.4,1.2s1-0.6,1.9-1.6C203,108.2,202.8,106.5,203.3,106.5"/>
		<path class="st0" d="M212.5,106.4c-0.5,0-0.2,2,0.6,3s2.2,1.6,2.4,1.2s-1-0.6-1.9-1.6C212.8,108.1,213,106.5,212.5,106.4"/>
		<path class="st0" d="M208.4,108.6c0,1.7,0.1,3.2-0.3,3.2c-0.5,0-0.3-1.4-0.3-3.2c0-1.7-0.2-3.2,0.3-3.2
			C208.5,105.4,208.4,106.9,208.4,108.6"/>
	</g>
</g>
</svg>
